<svg width="1648" height="1152" viewBox="0 0 1648 1152" fill="none" xmlns="http://www.w3.org/2000/svg">
<path d="M0 116.851V115.086C44.8367 65.1815 51.7895 18.5683 59.1261 -30.622L59.1525 -30.7992C63.6192 -60.7676 68.2383 -91.7582 81.9269 -124.459C84.682 -131.052 87.7496 -137.562 91.1381 -144L92.4325 -144C71.2716 -103.924 65.736 -66.8138 60.3116 -30.4488L60.3107 -30.4427C52.9005 19.2541 45.8802 66.3247 0 116.851Z" fill="url(#paint0_linear_2_2383)"/>
<path d="M0 154.515V152.955C4.36196 149.141 8.69098 145.109 12.9816 140.833C64.0977 89.9036 72.3723 41.3044 81.1263 -10.1503C86.2817 -40.43 91.6218 -71.7564 106.142 -104.584C112.116 -118.085 119.4 -131.193 128.065 -144L129.437 -144C97.0638 -96.4279 89.6144 -52.6896 82.3392 -9.96687L82.3374 -9.95623C73.5445 41.6698 65.2393 90.4322 13.8751 141.612C9.29052 146.18 4.66332 150.471 0 154.515Z" fill="url(#paint1_linear_2_2383)"/>
<path d="M0 187.537V186.128C11.6281 178.027 23.069 168.726 34.2218 157.822C84.0413 109.113 93.2411 61.1558 102.981 10.3797C108.842 -20.1845 114.904 -51.7882 130.289 -84.6809C139.965 -105.373 152.712 -125.033 168.799 -144L170.273 -144C123.276 -89.0429 113.595 -38.5704 104.169 10.572L104.168 10.5757L104.166 10.589C94.3937 61.5293 85.163 109.649 35.0935 158.603C23.6562 169.785 11.923 179.286 0 187.537Z" fill="url(#paint2_linear_2_2383)"/>
<path d="M0 216.959V215.633C18.9964 204.977 37.6166 191.886 55.4359 174.8C103.954 128.286 114.036 80.9863 124.704 30.9203C131.279 0.0769428 138.08 -31.8214 154.342 -64.7922C168.265 -93.0273 187.9 -119.15 213.941 -144L215.626 -144C150 -81.9247 137.77 -24.5419 125.903 31.1472C115.198 81.3813 105.085 128.831 56.3132 175.59C38.2027 192.949 19.2875 206.198 0 216.959Z" fill="url(#paint3_linear_2_2383)"/>
<path d="M0 243.613V242.339C26.4195 230.233 52.3419 214.634 76.6641 191.773C123.876 147.391 134.789 100.817 146.344 51.497C153.641 20.3614 161.186 -11.835 178.341 -44.8913C197.165 -81.1612 225.383 -113.62 264.517 -144L266.455 -144C177.309 -75.273 162.18 -10.7136 147.544 51.7598L147.533 51.8082C135.94 101.277 124.989 148.009 77.5541 192.603C52.9334 215.723 26.7093 231.433 0 243.613Z" fill="url(#paint4_linear_2_2383)"/>
<path d="M0 268.123V266.888C33.8337 253.988 67.2112 237.008 97.8853 208.769C143.779 166.49 155.489 120.637 167.886 72.0892C175.898 40.6554 184.209 8.15982 202.277 -24.9922C222.705 -62.4687 253.14 -95.537 295.303 -126.071C304.064 -132.437 313.126 -138.419 322.462 -144L324.709 -144C315.137 -138.322 305.587 -132.071 296.052 -125.17C202.154 -57.1969 185.337 8.65813 169.074 72.3478L169.072 72.3562L169.052 72.4343C156.619 121.115 144.873 167.109 98.7434 209.566C67.7747 238.084 34.1049 255.158 0 268.123Z" fill="url(#paint5_linear_2_2383)"/>
<path d="M0 290.948V289.765C41.1831 276.408 82.1919 259.019 119.093 225.741C163.661 185.556 176.119 140.457 189.306 92.7167L189.31 92.704C198.074 60.9746 207.142 28.1726 226.134 -5.08376C247.659 -42.727 279.176 -75.5375 322.528 -105.392C341.981 -118.836 362.845 -130.394 384.798 -139.887C388.059 -141.3 391.346 -142.671 394.664 -144L397.541 -144C372.603 -134.192 347.866 -121.446 323.23 -104.48C226.663 -37.981 208.258 28.5905 190.475 92.9692C177.242 140.876 164.743 186.126 119.923 226.546C82.7299 260.087 41.4402 277.536 0 290.948Z" fill="url(#paint6_linear_2_2383)"/>
<path d="M0 312.524V311.333C48.4407 297.634 97.3017 280.704 140.338 242.715C183.587 204.544 196.741 160.243 210.669 113.337L210.678 113.307C220.186 81.2836 230.025 48.1555 249.964 14.8014C272.552 -22.9944 305.213 -55.5417 349.749 -84.7131C369.4 -97.6237 390.412 -108.619 412.456 -117.527C432.295 -125.55 453.09 -132.027 476.028 -137.316C487.305 -139.915 498.554 -142.106 509.828 -144H516.774C460.111 -135.117 405.03 -119.518 350.435 -83.7777C251.168 -18.7941 231.18 48.5171 211.851 113.614C197.873 160.688 184.669 205.152 141.174 243.542C97.834 281.8 48.6893 298.769 0 312.524Z" fill="url(#paint7_linear_2_2383)"/>
<path d="M0 333.037V331.865C55.553 317.797 112.47 302.087 161.561 259.703C203.486 223.507 217.3 180.002 231.925 133.946L231.93 133.929C242.192 101.606 252.806 68.1773 273.712 34.6911C297.398 -3.27506 331.192 -35.5743 376.967 -64.0272C396.815 -76.4 417.968 -86.8322 440.095 -95.1593C460.059 -102.703 480.979 -108.688 504.047 -113.457C546.805 -122.297 589.256 -125.418 634.187 -128.722L634.67 -128.758C678.285 -131.953 722.559 -135.199 767.583 -144L773.324 -144C726.347 -134.354 680.199 -130.972 634.768 -127.643L634.685 -127.637C545.323 -121.073 460.939 -114.875 377.646 -63.082C275.608 0.354756 253.024 71.4874 233.1 134.247C218.427 180.466 204.557 224.116 162.388 260.531C112.985 303.195 55.7927 318.926 0 333.037Z" fill="url(#paint8_linear_2_2383)"/>
<path d="M0 352.701V351.529C2.33165 350.986 4.66992 350.444 7.0139 349.9L7.07395 349.886C67.3989 335.895 129.777 321.427 182.788 276.681C223.398 242.405 237.819 199.73 253.086 154.549L253.091 154.533L253.092 154.529C264.116 121.907 275.517 88.1695 297.398 54.5633C322.239 16.4192 357.172 -15.6106 404.193 -43.3512C442.53 -65.9721 483.131 -80.6876 531.974 -89.6676C575.09 -97.5981 617.99 -99.8781 663.405 -102.292L663.504 -102.297C740.744 -106.398 819.997 -110.606 902.746 -144L905.813 -144C821.956 -109.571 741.739 -105.313 663.578 -101.164L663.547 -101.162C573.638 -96.387 488.711 -91.8764 404.855 -42.3912C300.008 19.4599 275.7 91.3996 254.254 154.872C238.936 200.211 224.466 243.038 183.607 277.522C159.774 297.633 131.699 313.476 97.7783 325.95C67.8104 336.972 37.052 344.106 7.30733 351.002L7.09238 351.052C4.72203 351.603 2.35759 352.152 0 352.701Z" fill="url(#paint9_linear_2_2383)"/>
<path d="M0 371.644V370.474C7.118 368.909 14.3208 367.382 21.579 365.844L21.5871 365.842C84.3859 352.543 149.281 338.779 204.017 293.654C243.32 261.256 258.302 219.422 274.163 175.134L274.165 175.128L274.171 175.112C285.961 142.191 298.151 108.152 321.041 74.4234C347.03 36.0872 383.143 4.31498 431.415 -22.6762C516.062 -70.0189 601.592 -72.9037 692.15 -75.958L692.37 -75.9654C791.039 -79.2986 892.884 -82.7391 1002.77 -144L1005.17 -144C982.442 -131.207 959.437 -120.544 935.306 -111.6C908.691 -101.735 881.372 -94.2337 851.821 -88.6632C797.052 -78.3475 743.787 -76.5525 692.278 -74.8219L692.131 -74.8169C601.736 -71.7636 516.396 -68.881 432.041 -21.6984C324.371 38.5138 298.308 111.29 275.318 175.484L275.317 175.489L275.315 175.494C259.402 219.93 244.37 261.905 204.821 294.512C180.235 314.779 151.111 330.588 115.785 342.841C84.6229 353.649 52.7153 360.415 21.8564 366.954L21.7721 366.971C14.4476 368.524 7.18 370.064 0 371.644Z" fill="url(#paint10_linear_2_2383)"/>
<path d="M0 389.964V388.793C11.6684 386.303 23.646 384.001 35.7817 381.669C98.0746 369.703 168.668 356.134 225.235 310.633C263.241 280.053 278.737 239.08 295.141 195.7L295.154 195.666C307.714 162.457 320.703 128.118 344.594 94.262C371.782 55.7286 409.083 24.2438 458.632 -1.99866C543.798 -47.101 629.787 -48.3859 720.816 -49.7461L720.854 -49.7467C828.217 -51.3445 939.24 -52.9972 1062.14 -125.522C1071.83 -131.244 1081.06 -137.424 1089.84 -144L1091.79 -144C1082.44 -136.944 1072.77 -130.461 1062.77 -124.561C1033.22 -107.112 1003.64 -93.2781 972.34 -82.2319C944.592 -72.4403 916.169 -65.1475 885.505 -59.9108C828.726 -50.2133 773.894 -49.3958 720.873 -48.607C629.987 -47.2617 544.141 -45.9749 459.239 -1.00231C348.69 57.5472 320.856 131.139 296.298 196.082L296.289 196.107C279.829 239.623 264.281 280.727 226.025 311.495C200.631 331.926 170.388 347.694 133.573 359.701C101.142 370.275 68.0382 376.636 36.0242 382.785L35.9215 382.805C23.7371 385.148 11.7111 387.46 0 389.964Z" fill="url(#paint11_linear_2_2383)"/>
<path d="M0 407.734V406.572C15.8174 403.202 32.4015 400.336 49.3027 397.416L49.6065 397.363C114.466 386.179 187.972 373.503 246.47 327.609C283.19 298.796 299.155 258.7 316.053 216.246C342.276 150.372 371.991 75.7321 485.863 18.6747C571.504 -24.213 657.903 -23.9515 749.366 -23.6425L749.374 -23.6424C859.977 -23.3026 974.341 -22.9512 1103.26 -96.4139C1126.91 -109.896 1147.95 -126.045 1166.65 -144L1168.48 -144C1148.61 -124.86 1127.04 -108.632 1103.89 -95.4422C1072.9 -77.7759 1041.99 -63.8663 1009.34 -52.929C980.41 -43.2364 950.894 -36.129 919.118 -31.2298C860.32 -22.1661 803.932 -22.3442 749.42 -22.5164L749.364 -22.5166C658.055 -22.8058 571.813 -23.0788 486.448 19.6885C372.979 76.5223 343.34 150.966 317.194 216.651C300.237 259.248 284.22 299.483 247.251 328.488C221.006 349.088 189.564 364.799 151.147 376.529C117.372 386.839 83.0217 392.765 49.808 398.493L49.6519 398.52C32.6243 401.456 15.9175 404.337 0 407.734Z" fill="url(#paint12_linear_2_2383)"/>
<path d="M0 425.007V423.848C19.7233 419.528 41.0657 416.269 62.9464 412.927C130.522 402.605 207.111 390.906 267.715 344.599C303.16 317.505 319.547 278.294 336.898 236.777L336.898 236.775C364.734 170.15 396.284 94.6323 513.105 39.3673C599.233 -1.37983 685.993 0.34989 777.846 2.18115L777.93 2.1828C891.656 4.48164 1009.3 6.84846 1144.39 -67.3014C1181.12 -87.6093 1211.9 -114.19 1237.66 -144L1239.45 -144C1211.55 -111.657 1179.94 -85.6381 1145.02 -66.3283C1112.56 -48.5069 1080.24 -34.5904 1046.27 -23.7805C1016.16 -14.1868 985.539 -7.31968 952.653 -2.78085C891.819 5.62559 833.889 4.45865 777.883 3.3305L777.854 3.32993C686.139 1.48785 599.513 -0.251988 513.655 40.3832C397.255 95.4582 365.789 170.755 338.032 237.192L338.017 237.226L338.017 237.227C329.124 258.505 320.725 278.603 310.026 296.954C297.99 317.603 284.789 333.023 268.484 345.486C207.605 391.977 130.855 403.703 63.1169 414.043L63.1037 414.045C41.1551 417.397 19.7506 420.667 0 425.007Z" fill="url(#paint13_linear_2_2383)"/>
<path d="M0 441.796V440.643C22.4256 435.426 48.0298 432.016 75.7394 428.326L75.7412 428.325L75.8111 428.316C146.247 418.947 226.088 408.327 288.934 361.586C323.119 336.164 339.888 297.84 357.625 257.302L357.643 257.26L357.65 257.244C372.552 223.177 387.961 187.952 415.003 153.68C445.9 114.519 486.889 83.9067 540.323 60.053C626.842 21.451 713.928 24.7172 806.129 28.1752L806.147 28.1759C923.213 32.5708 1044.27 37.1146 1185.55 -38.1845C1235.16 -64.6227 1274.52 -102.253 1305.68 -144L1307.45 -144C1272.93 -97.6042 1232.21 -61.7248 1186.16 -37.1896C1152.21 -19.0958 1118.54 -5.08845 1083.21 5.63682C1051.89 15.1385 1020.14 21.79 986.107 25.9862C923.179 33.7143 863.67 31.4826 806.115 29.3242L806.079 29.3229C714.032 25.8506 627.083 22.5861 540.832 61.0774C421.486 114.326 388.163 190.461 358.761 257.636L358.742 257.681C349.63 278.515 341.012 298.215 330.329 316.008C318.325 336.003 305.405 350.765 289.671 362.456C226.581 409.402 146.561 420.043 75.9675 429.43L75.9649 429.431L75.6705 429.47C47.9661 433.161 22.3734 436.571 0 441.796Z" fill="url(#paint14_linear_2_2383)"/>
<path d="M0 455.237V454.056C25.5226 447.937 55.0043 444.567 85.5457 441.077C155.919 433.035 235.687 423.914 298.719 379.558C334.161 354.606 351.826 317.072 370.526 277.34L370.527 277.339C401.126 212.282 435.821 138.567 556.141 88.6825C643.056 52.7704 729.555 57.3585 821.136 62.2162L821.153 62.2171C938.503 68.4413 1059.85 74.8766 1202.93 1.88485C1270.35 -32.5071 1319.49 -86.7639 1355.07 -144L1356.71 -144C1351.3 -135.24 1345.7 -126.771 1339.93 -118.602C1301.88 -64.7469 1255.97 -23.8674 1203.5 2.9001C1169.13 20.4263 1135.1 33.8857 1099.48 44.0722C1067.92 53.0745 1035.95 59.2213 1001.76 62.8633C938.499 69.5985 878.811 66.4327 821.087 63.3687C729.65 58.5054 643.287 53.9226 556.63 89.7289C436.769 139.409 402.16 212.91 371.626 277.759L371.612 277.788C362.017 298.176 352.953 317.429 341.763 334.876C329.181 354.494 315.727 368.979 299.422 380.454C236.174 424.986 156.266 434.127 85.7781 442.19L85.6793 442.202C55.0673 445.702 25.515 449.089 0 455.237Z" fill="url(#paint15_linear_2_2383)"/>
<path d="M0 468.518V467.338C28.0659 460.348 61.0856 457.189 95.4161 453.904L95.4685 453.899L95.4923 453.897C165.757 447.171 245.396 439.549 308.479 397.53C345.18 373.086 363.743 336.388 383.396 297.534L383.414 297.498L383.42 297.487C415.158 234.749 451.128 163.644 571.972 117.323C659.271 84.078 745.19 89.9718 836.143 96.2179L836.152 96.2185C953.782 104.287 1075.42 112.631 1220.31 41.96C1306.45 -0.0463238 1363.77 -73.1791 1401.29 -144L1402.78 -144C1389.57 -118.887 1375.03 -95.6791 1359.28 -74.555C1320.34 -22.3689 1273.78 17.1646 1220.88 42.9657C1186.06 59.9501 1151.68 72.8689 1115.76 82.4592C1083.94 90.9581 1051.76 96.5964 1017.38 99.693C953.84 105.424 894.027 101.325 836.176 97.3609L836.061 97.353C745.247 91.1224 659.464 85.2395 572.428 118.38C452.012 164.552 416.156 235.433 384.516 297.987L384.478 298.062C364.763 337.037 346.141 373.853 309.185 398.455C245.831 440.654 166.014 448.294 95.5908 455.032C61.163 458.326 28.055 461.493 0 468.518Z" fill="url(#paint16_linear_2_2383)"/>
<path d="M0 481.74V480.572C30.6527 472.567 67.3214 469.733 105.584 466.779C175.712 461.366 255.193 455.23 318.273 415.512C356.265 391.592 375.743 355.724 396.368 317.74L396.376 317.727C429.209 257.27 466.428 188.739 587.841 145.963C675.502 115.355 760.829 122.549 851.148 130.168C969.062 140.101 1090.98 150.37 1237.73 82.0366C1344.35 32.3981 1408.34 -63.0202 1445.33 -144L1446.68 -144C1427.34 -101.413 1404.52 -63.3382 1378.63 -30.5001C1338.82 20.0181 1291.6 58.2181 1238.28 83.0369C1203.02 99.4591 1168.27 111.827 1132.06 120.842C1099.96 128.848 1067.57 133.958 1033.02 136.51C969.109 141.233 909.089 136.177 851.043 131.284L850.841 131.267C760.716 123.689 675.587 116.531 588.254 147.024C467.269 189.672 430.167 257.988 397.438 318.263L397.437 318.264C376.742 356.371 357.194 392.366 318.936 416.453C290.637 434.256 256.699 446.9 215.184 455.086C178.756 462.259 141.697 465.124 105.868 467.895L105.865 467.895L105.669 467.91L105.643 467.912C67.3184 470.872 30.5914 473.708 0 481.74Z" fill="url(#paint17_linear_2_2383)"/>
<path d="M0 494.922V493.736C33.218 484.581 73.555 482.204 115.769 479.716L115.845 479.712C185.777 475.6 265.043 470.934 328.036 433.485C367.333 410.123 387.719 375.13 409.304 338.079C426.598 308.394 444.484 277.697 473.539 249.092C506.6 216.53 549.152 192.17 603.629 174.62C691.592 146.638 776.297 155.095 865.98 164.05L866.096 164.061C984.294 175.876 1106.52 188.092 1255.12 122.112C1376.44 68.262 1444.48 -42.4499 1480.19 -125.847C1482.81 -131.966 1485.3 -138.026 1487.65 -144L1488.97 -144C1486.56 -137.896 1484.02 -131.702 1481.34 -125.445C1458.57 -72.2598 1430.52 -25.4839 1397.98 13.5817C1357.25 62.415 1309.37 99.2907 1255.63 123.121C1219.92 138.978 1184.81 150.787 1148.29 159.225C1115.93 166.7 1083.34 171.314 1048.6 173.308C984.361 177.009 924.17 170.997 865.961 165.178C776.385 156.226 691.794 147.775 604.029 175.681C482.49 214.836 444.176 280.601 410.374 338.626L410.367 338.639C388.705 375.814 368.243 410.931 328.689 434.447C300.411 451.261 266.59 462.95 225.292 470.186C188.985 476.547 151.913 478.732 116.061 480.845L116.057 480.845L115.823 480.858C73.5453 483.348 33.1491 485.727 0 494.922Z" fill="url(#paint18_linear_2_2383)"/>
<path d="M0 508.076V506.879C35.8778 496.393 79.9758 494.603 126.286 492.728L126.446 492.721C196.093 489.89 275.029 486.681 337.819 451.464C378.4 428.706 399.687 394.578 422.196 358.446L422.305 358.271C440.155 329.651 458.595 300.085 488.096 272.887C521.676 241.923 564.648 219.142 619.474 203.229C707.872 177.597 792.149 187.375 881.37 197.746C999.766 211.484 1122.19 225.689 1272.51 162.161C1394.79 110.511 1464.82 3.46208 1502.05 -77.2387C1512.99 -100.945 1521.75 -123.73 1528.66 -144L1529.97 -144C1523.03 -123.617 1514.22 -100.678 1503.21 -76.8041C1479.47 -25.3344 1450.58 19.893 1417.32 57.6431C1375.74 104.823 1327.19 140.345 1273.04 163.228C1236.92 178.499 1201.47 189.731 1164.69 197.565C1132.08 204.511 1099.28 208.587 1064.43 210.023C999.943 212.639 939.696 205.655 881.433 198.902L881.217 198.877C792.122 188.537 707.96 178.772 619.825 204.336C497.564 239.789 458.085 303.115 423.261 359.024L423.205 359.113C400.623 395.344 379.298 429.559 338.452 452.448C310.225 468.288 276.559 479.025 235.501 485.345C199.311 490.912 162.218 492.416 126.33 493.867C79.9539 495.746 35.791 497.536 0 508.076Z" fill="url(#paint19_linear_2_2383)"/>
<path d="M0 521.21V520.015C38.6027 508.025 86.4747 506.953 136.908 505.826H136.91C209.723 504.196 285.012 502.511 347.613 469.446C389.514 447.315 411.696 414.106 435.18 378.948L435.182 378.946L435.196 378.924C453.635 351.323 472.702 322.781 502.733 296.891C536.823 267.504 580.191 246.242 635.314 231.893C724.031 208.797 807.744 219.825 896.363 231.525L896.379 231.527C1015.03 247.172 1137.73 263.35 1289.92 202.235C1413.14 152.767 1485.19 49.401 1523.93 -28.6086C1546 -73.0567 1560.07 -114.54 1568.46 -144L1569.76 -144C1569.38 -142.68 1569 -141.336 1568.6 -139.968C1560.88 -113.383 1547.03 -72.4171 1525.05 -28.1584C1500.35 21.599 1470.6 65.2826 1436.65 101.677C1394.18 147.189 1344.98 181.374 1290.39 203.282C1253.82 217.959 1218.01 228.634 1180.93 235.88C1148.05 242.306 1115.04 245.861 1080 246.724C1015.16 248.341 954.679 240.365 896.195 232.652L896.093 232.638C807.618 220.969 724.07 209.949 635.623 232.987C512.733 264.974 472.073 325.845 436.2 379.549L436.199 379.55C412.632 414.836 390.37 448.162 348.196 470.439C320.066 485.296 286.566 495.147 245.785 500.558C210.107 505.29 173.418 506.129 137.886 506.942H137.876L136.919 506.964C86.421 508.092 38.4913 509.167 0 521.21Z" fill="url(#paint20_linear_2_2383)"/>
<path d="M0 534.343V533.114C41.4236 519.451 93.0775 519.228 147.652 518.995C220.124 518.685 295.072 518.363 357.378 487.415C400.606 465.944 423.699 433.681 448.145 399.527L448.171 399.491C467.181 372.937 486.841 345.477 517.341 320.931C551.931 293.097 595.694 273.335 651.132 260.522C740.156 239.945 823.291 252.229 911.31 265.236C1030.23 282.815 1153.2 300.985 1307.29 242.299C1431.5 195.026 1505.55 95.3116 1545.8 19.9858C1589.42 -61.6526 1603.84 -133.005 1603.98 -133.715L1605.19 -133.506C1605.19 -133.494 1605.16 -133.387 1605.12 -133.188C1604.58 -130.658 1600.91 -113.322 1592.62 -87.5155C1584.37 -61.8254 1569.73 -22.2342 1546.9 20.4979C1521.24 68.5414 1490.64 110.674 1455.97 145.739C1412.63 189.579 1362.77 222.424 1307.76 243.36C1270.72 257.468 1234.54 267.557 1197.17 274.208C1164.02 280.105 1130.79 283.123 1095.59 283.431C1030.45 284 969.819 275.045 911.198 266.386L911.133 266.376L911.13 266.376C823.242 253.39 740.225 241.123 651.44 261.644C527.894 290.201 487.875 346.106 449.179 400.163L449.177 400.167L449.154 400.198C424.626 434.466 401.449 466.846 357.974 488.433C329.961 502.35 296.664 511.307 256.176 515.832C220.412 519.832 183.472 519.99 147.743 520.143H147.742L147.608 520.144C92.969 520.377 41.2849 520.597 0 534.343Z" fill="url(#paint21_linear_2_2383)"/>
<path d="M0 547.443V546.217C0.527725 546.033 1.05556 545.851 1.58349 545.672C45.6955 530.72 100.503 531.47 158.528 532.265L158.545 532.265C230.64 533.257 305.194 534.279 367.158 505.39C411.685 484.642 435.687 453.352 461.077 420.253L461.152 420.155C480.73 394.638 500.976 368.249 531.948 345.031C567.032 318.728 611.19 300.449 666.98 289.164C756.288 271.082 838.846 284.598 926.247 298.907L926.265 298.91C1045.45 318.419 1168.69 338.594 1324.71 282.348C1449.85 237.279 1525.91 141.242 1567.68 68.598C1612.94 -10.1186 1628.79 -79.0415 1628.94 -79.727L1630.14 -79.4891C1630.14 -79.4831 1630.13 -79.4547 1630.12 -79.4043L1630.08 -79.2537C1629.57 -77.092 1625.55 -60.2711 1616.65 -35.0786C1603.89 0.873813 1587.87 35.7405 1568.76 69.1406C1542.11 115.47 1510.67 156.054 1475.3 189.79C1431.07 231.983 1380.56 263.47 1325.13 283.426C1287.63 296.954 1251.07 306.462 1213.39 312.513C1179.98 317.882 1146.53 320.362 1111.16 320.102C1045.67 319.621 984.85 309.666 926.038 300.032C838.75 285.732 756.3 272.244 667.221 290.283C542.99 315.438 501.87 369.037 462.114 420.86L462.112 420.864C436.616 454.107 412.528 485.506 367.704 506.404C305.491 535.416 230.806 534.394 158.579 533.405L158.534 533.404C100.613 532.609 45.9047 531.859 2.01738 546.746C1.34305 546.975 0.670585 547.207 0 547.443Z" fill="url(#paint22_linear_2_2383)"/>
<path d="M0 560.535L0 559.307C2.54594 558.378 5.09847 557.506 7.65677 556.69C53.7959 541.986 110.039 543.763 169.583 545.651C241.258 547.921 315.372 550.267 376.942 523.377C422.817 503.345 447.707 473.071 474.06 441.017L474.087 440.984C494.243 416.469 515.088 391.117 546.553 369.188C582.107 344.387 626.692 327.585 682.8 317.81C772.378 302.212 854.379 316.934 941.173 332.531L941.177 332.531C1060.61 353.992 1184.12 376.186 1342.09 322.433C1468.2 279.548 1546.26 187.187 1589.53 117.256C1621.34 65.8517 1639.53 18.7192 1648 -6.50195V-2.72933C1639.06 23.2465 1621.07 68.5714 1590.61 117.805C1563 162.408 1530.71 201.452 1494.64 233.845C1449.54 274.352 1398.35 304.516 1342.51 323.509C1304.53 336.434 1267.62 345.368 1229.62 350.809C1195.92 355.641 1162.26 357.597 1126.72 356.755C1060.93 355.215 999.954 344.259 940.987 333.663L940.934 333.653C854.252 318.076 772.371 303.365 683.019 318.935C558.066 340.709 515.864 392.04 475.051 441.681L475.049 441.684L475.04 441.694C448.585 473.868 423.596 504.259 377.452 524.413C315.654 551.419 241.395 549.07 169.607 546.798L169.537 546.796C110.105 544.913 53.9676 543.137 8.04085 557.775C5.32727 558.639 2.64684 559.561 0 560.535Z" fill="url(#paint23_linear_2_2383)"/>
<path d="M0 573.605L0 572.366C4.53887 570.639 9.11021 569.085 13.7095 567.707C61.9266 553.251 119.631 556.111 180.716 559.139L180.726 559.14C251.933 562.667 325.568 566.314 386.707 541.358C433.898 522.099 459.698 492.837 487.009 461.86L487.018 461.85C507.74 438.339 529.172 414.034 561.11 393.388C597.17 370.082 642.149 354.729 698.617 346.455C788.44 333.306 869.867 349.231 956.059 366.102C1075.76 389.541 1199.53 413.76 1359.47 362.506C1486.57 321.807 1566.63 233.103 1611.43 165.857C1626.32 143.502 1638.4 121.977 1648 102.858V105.519C1638.56 124.129 1626.81 144.913 1612.46 166.461C1583.89 209.351 1550.76 246.847 1513.98 277.923C1467.99 316.74 1416.14 345.583 1359.86 363.584C1321.41 375.903 1284.09 384.242 1245.82 389.085C1211.84 393.387 1177.96 394.779 1142.25 393.372C1076.12 390.766 1014.95 378.794 955.798 367.214C869.718 350.363 788.407 334.447 698.797 347.581C573.093 365.996 529.809 415.09 487.952 462.563L487.948 462.568C460.542 493.662 434.646 523.028 387.169 542.397C325.765 567.458 251.979 563.804 180.628 560.269L180.547 560.265C119.639 557.256 62.0758 554.412 14.0846 568.792C9.27731 570.234 4.58204 571.845 0 573.605Z" fill="url(#paint24_linear_2_2383)"/>
<path d="M0 586.672L0 585.415C6.50535 582.839 13.0996 580.607 19.7699 578.726C70.1361 564.535 129.306 568.518 191.965 572.74L192.001 572.742C262.705 577.501 335.812 582.422 396.478 559.346C444.999 540.897 471.719 512.708 499.991 482.874C543.042 437.445 587.559 390.47 714.448 375.108C804.387 364.547 885.103 381.623 970.551 399.724L970.579 399.73C1090.62 425.124 1214.76 451.383 1376.86 402.603C1504.9 364.095 1586.97 279.057 1633.28 214.502C1638.51 207.21 1643.41 200.008 1648 192.956V195.141C1643.7 201.697 1639.14 208.378 1634.29 215.136C1604.76 256.309 1570.78 292.257 1533.28 321.981C1486.42 359.143 1433.91 386.635 1377.23 403.685C1338.25 415.417 1300.52 423.174 1261.88 427.408C1227.6 431.168 1193.47 432.03 1157.58 430.054C1091.07 426.373 1029.66 413.397 970.283 400.834L970.276 400.833L970.274 400.833C884.937 382.778 804.319 365.723 714.596 376.256C588.161 391.56 543.8 438.369 500.895 483.648L500.891 483.652C472.523 513.588 445.721 541.872 396.942 560.42C336.015 583.578 262.763 578.65 191.897 573.871C129.354 569.658 70.2756 565.68 20.14 579.814C13.1776 581.778 6.46409 584.084 0 586.672Z" fill="url(#paint25_linear_2_2383)"/>
<path d="M0 599.732L0 598.456C8.44111 594.979 17.0687 592.07 25.8571 589.74C49.4466 583.485 77.2173 580.581 110.763 580.862C140.582 581.11 172.321 583.808 202.988 586.416L202.989 586.416H202.99L202.994 586.416L203.382 586.449C273.548 592.418 346.097 598.589 406.278 577.325C456.085 559.724 483.674 532.604 512.878 503.89C556.953 460.546 602.55 415.728 730.291 403.752C820.455 395.555 900.621 413.813 985.499 433.146C1105.79 460.544 1230.17 488.872 1394.27 442.653C1517.06 408.086 1599.14 332.695 1648 272.178V274.073C1619.5 309.236 1587.47 340.125 1552.64 366.021C1504.9 401.515 1451.73 427.665 1394.63 443.741C1355.17 454.856 1317.08 462.02 1278.13 465.63C1243.56 468.838 1209.23 469.152 1173.16 466.573C1106.34 461.82 1044.79 447.801 985.264 434.243L985.216 434.232C900.445 414.926 820.373 396.69 730.415 404.866C603.126 416.811 557.698 461.471 513.766 504.66C499.695 518.494 485.146 532.797 468.242 545.476C449.741 559.446 428.967 570.553 406.711 578.376C346.289 599.752 273.58 593.564 203.283 587.581L203.223 587.576C139.088 582.118 78.5107 576.963 26.2108 590.839C17.0198 593.277 8.28467 596.283 0 599.732Z" fill="url(#paint26_linear_2_2383)"/>
<path d="M0 612.754V611.5C10.323 607.084 20.9788 603.5 31.9179 600.771C56.5015 594.641 85.2602 592.08 119.834 592.932C150.631 593.69 183.179 597.037 214.657 600.273L214.659 600.273L214.664 600.274L214.747 600.283C284.367 607.443 356.364 614.829 416.051 595.321C467.118 578.62 495.575 552.58 525.702 525.013L525.707 525.008C570.816 483.718 617.484 441.01 746.112 432.41C787.279 429.738 828.553 432.047 876.005 439.684C917.884 446.416 957.983 456.2 1000.43 466.559L1000.44 466.561C1120.95 495.966 1245.57 526.374 1411.66 482.748C1519.07 454.545 1596.51 396.576 1648 343.901V345.656C1624.43 369.731 1598.97 391.316 1571.97 410.105C1523.33 443.927 1469.52 468.741 1411.99 483.845C1245.6 527.551 1120.83 497.113 1000.17 467.677L1000.08 467.656C915.887 447.115 836.362 427.714 746.198 433.565C618.019 442.113 571.533 484.65 526.566 525.802L526.562 525.806C512.076 539.062 497.096 552.769 479.682 564.942C460.477 578.417 439.153 589.024 416.471 596.384C356.517 616.001 284.406 608.572 214.666 601.388L214.63 601.384L214.615 601.382C151.771 594.922 86.794 588.242 32.2437 601.839C20.7624 604.701 10.0215 608.416 0 612.754Z" fill="url(#paint27_linear_2_2383)"/>
<path d="M0 625.808V624.509C12.1542 619.11 24.8795 614.832 37.9979 611.755C95.0509 598.386 161.737 606.42 226.226 614.19L226.249 614.192C295.284 622.508 366.654 631.102 425.827 613.266C478.138 597.498 508.821 571.391 538.493 546.146L538.496 546.143L538.51 546.131C561.519 526.552 585.309 506.308 619.137 490.644C637.366 482.206 656.93 475.759 678.951 470.937C703.673 465.521 730.817 462.274 761.933 461.017C803.186 459.393 844.428 462.577 891.724 471.039C933.389 478.497 973.138 488.842 1015.21 499.791L1015.39 499.836C1136.12 531.267 1260.96 563.765 1429.03 522.756C1523.72 499.662 1596 454.549 1648 409.982V411.657C1629.94 427.117 1611 441.302 1591.29 454.103C1542.13 486.115 1487.31 509.735 1429.35 523.871C1260.95 564.953 1135.95 532.413 1015.06 500.942C931.407 479.166 852.388 458.598 761.99 462.155C632.852 467.391 585.294 507.848 539.306 546.983L539.146 547.119C509.411 572.395 478.662 598.533 426.195 614.35C399.52 622.389 368.122 625.785 330.196 624.729C296.406 623.789 260.655 619.483 226.069 615.316C161.684 607.557 95.1059 599.537 38.2719 612.852C24.4181 616.104 11.6782 620.546 0 625.808Z" fill="url(#paint28_linear_2_2383)"/>
<path d="M0 638.898V637.573C13.9927 631.088 28.7752 626.117 44.0637 622.784C103.435 609.714 171.709 619.138 237.721 628.251L237.764 628.256C306.195 637.708 376.954 647.478 435.603 631.267C489.104 616.48 520.661 591.546 551.178 567.434L551.226 567.396C574.819 548.75 599.219 529.47 633.55 515.013C652.031 507.23 671.828 501.428 694.075 497.273C719.033 492.612 746.409 490.13 777.769 489.679C818.547 489.095 860.986 493.276 907.455 502.448C948.827 510.609 989.991 521.983 1029.81 532.987L1029.81 532.987L1030.38 533.143L1030.38 533.145C1151.32 566.604 1276.38 601.203 1446.45 562.852C1530.1 543.986 1596.94 508.78 1648 471.829V473.444C1635.86 482.215 1623.4 490.475 1610.63 498.197C1560.37 528.635 1504.96 550.876 1446.75 563.976C1276.35 602.4 1151.13 567.757 1030.04 534.255L1030.01 534.246C946.902 511.251 868.405 489.532 777.801 490.83C647.677 492.694 599.033 531.111 552.027 568.277C521.398 592.48 489.727 617.505 435.968 632.369C409.524 639.681 378.431 642.381 340.912 640.615C307.452 639.045 271.945 634.142 237.608 629.398L237.592 629.396C171.669 620.295 103.502 610.884 44.3397 623.901C28.0039 627.495 13.2596 632.683 0 638.898Z" fill="url(#paint29_linear_2_2383)"/>
<path d="M0 659.039V657.666C15.8676 650.13 32.7301 644.486 50.1942 640.899C111.256 628.28 178.964 638.384 244.443 648.156L244.465 648.16C310.399 657.998 378.591 668.174 437.545 654.036C492.569 640.682 525.961 616.066 558.252 592.26L558.267 592.25C582.669 574.252 607.908 555.645 642.424 541.732C661.019 534.239 680.706 528.687 702.612 524.758C727.206 520.348 753.947 518.087 784.323 517.834C825.82 517.556 867.131 522.081 914.333 532.071C955.97 540.884 995.56 552.52 1037.47 564.839L1037.49 564.844L1037.49 564.844C1156.48 599.81 1279.53 635.966 1447.15 601.82C1528.82 585.396 1595.76 552.442 1648 516.959V518.546C1636.67 526.234 1625.1 533.486 1613.33 540.281C1561.63 570.132 1505.82 591.211 1447.41 602.976C1279.47 637.17 1156.26 600.965 1037.11 565.951C953.887 541.491 875.274 518.391 784.337 519C658.217 520.029 607.789 557.21 559.03 593.171C526.637 617.056 493.143 641.752 437.863 655.169C411.276 661.555 380.627 663.559 344.145 661.34C311.63 659.361 277.43 654.257 244.35 649.32L244.348 649.32L244.262 649.307C178.897 639.551 111.307 629.464 50.467 642.039C31.6975 645.927 14.9177 651.868 0 659.039Z" fill="url(#paint30_linear_2_2383)"/>
<path d="M0 679.074L0 677.695C17.7302 669.107 36.6719 662.813 56.3057 659.02C119.003 646.878 185.991 657.703 250.77 668.172C314.394 678.453 380.181 689.082 439.461 676.809C496.244 665.057 530.011 641.762 565.769 617.093L565.78 617.086C590.92 599.744 616.916 581.814 651.543 568.453C690.461 553.433 736.031 546.085 790.847 545.989C832.529 546.033 873.96 551.024 921.242 561.699C962.964 571.119 1002.65 583.443 1044.66 596.5C1068.8 604 1093.12 611.555 1117.95 618.556C1213.48 645.493 1316.72 664.316 1447.82 640.826C1527.67 626.516 1594.68 595.609 1648 561.533V563.066C1637.46 569.796 1626.76 576.159 1615.92 582.14C1562.94 611.365 1506.45 631.49 1448.04 641.956C1282.56 671.609 1161.44 633.988 1044.28 597.594L1044.19 597.569C960.857 571.69 882.136 547.245 790.844 547.154C668.938 547.372 616.86 583.29 566.497 618.03C549.311 629.887 531.537 642.146 511.356 652.624C488.931 664.302 464.793 672.834 439.717 677.948C413.002 683.482 382.747 684.871 347.224 682.201C315.58 679.825 282.6 674.498 250.701 669.345L250.7 669.345L250.561 669.322C185.891 658.869 119.019 648.065 56.5528 660.161C35.344 664.286 16.5394 670.97 0 679.074Z" fill="url(#paint31_linear_2_2383)"/>
<path d="M0 699.01V697.647C19.5953 688.008 40.6273 681.089 62.435 677.139C126.857 665.489 193.126 677.035 257.212 688.2L257.221 688.202C318.497 698.884 381.865 709.93 441.384 699.585C499.865 689.42 535.565 666.309 573.362 641.838C625.386 608.154 679.181 573.327 797.387 574.144C889.403 574.779 968.473 600.765 1052.19 628.277C1167.14 666.058 1286 705.121 1448.5 679.797C1526.66 667.617 1593.69 638.717 1648 606.028V607.523C1638.29 613.361 1628.48 618.892 1618.58 624.106C1564.29 652.693 1507.12 671.81 1448.68 680.918C1285.88 706.289 1166.87 667.177 1051.78 629.353L1051.78 629.353L1051.76 629.347C968.147 601.867 889.169 575.912 797.357 575.278C679.545 574.462 625.913 609.183 574.045 642.761L574.033 642.769L573.838 642.895C555.713 654.63 536.981 666.758 515.919 676.917C492.548 688.247 467.504 696.26 441.612 700.692C414.792 705.355 384.958 706.109 350.405 702.994C319.59 700.221 287.794 694.678 257.041 689.317L257.039 689.316L256.999 689.309L256.993 689.308C193.02 678.159 126.868 666.63 62.6709 678.249C38.9903 682.56 18.1449 689.987 0 699.01Z" fill="url(#paint32_linear_2_2383)"/>
<path d="M0 718.899L0 717.511C21.4591 706.836 44.5843 699.321 68.5593 695.26C134.765 684.093 200.259 696.388 263.599 708.279L263.605 708.28C322.59 719.36 383.59 730.809 443.308 722.357C503.573 713.83 541.292 690.914 581.224 666.655L581.23 666.651L581.232 666.65C634.633 634.203 689.848 600.654 803.92 602.297C896.273 603.627 975.438 631.098 1059.25 660.182L1059.26 660.185L1059.27 660.19C1172.29 699.405 1289.16 739.956 1449.18 718.778C1525.76 708.642 1592.78 681.664 1648 650.329V651.819C1639.16 656.832 1630.25 661.595 1621.28 666.103C1565.69 694.06 1507.85 712.157 1449.37 719.895C1410.89 724.987 1373.98 726.713 1336.52 725.172C1303.27 723.804 1270.44 719.874 1236.15 713.16C1172.64 700.724 1114.79 680.652 1058.85 661.241L1058.85 661.241C975.141 632.193 896.068 604.755 803.921 603.428C690.225 601.788 635.163 635.241 581.916 667.592L581.914 667.594C562.679 679.282 542.787 691.364 520.673 701.277C496.29 712.262 470.276 719.745 443.508 723.472C416.608 727.279 387.186 727.424 353.581 723.858C323.598 720.691 292.984 714.947 263.383 709.388C200.156 697.509 134.774 685.241 68.7952 696.37C42.629 700.819 19.7324 708.985 0 718.899Z" fill="url(#paint33_linear_2_2383)"/>
<path d="M0 738.677L0 737.268C23.3203 725.577 48.536 717.501 74.6654 713.372C142.682 702.715 207.333 715.77 269.856 728.395L269.886 728.401C326.645 739.864 385.331 751.716 445.212 745.127C507.333 738.285 547.172 715.568 589.326 691.481C643.98 660.279 700.491 628.023 810.432 630.464C903.089 632.514 982.323 661.505 1066.21 692.2C1106.83 707.061 1147.96 722.112 1191.49 734.385C1267.05 755.694 1349.84 768.642 1449.83 757.769C1524.95 749.602 1591.95 724.471 1648 694.455V695.93C1640.01 700.205 1631.98 704.279 1623.92 708.148C1567.02 735.462 1508.49 752.553 1449.98 758.905C1412.09 763.024 1375.74 763.894 1338.88 761.575C1306.14 759.512 1273.83 754.965 1240.08 747.675C1177.62 734.181 1120.82 713.401 1065.89 693.305L1065.89 693.305L1065.78 693.266C981.997 662.607 902.862 633.652 810.419 631.607C700.864 629.187 644.505 661.351 590.016 692.447L589.968 692.475C569.645 704.078 548.627 716.077 525.479 725.698C499.226 736.613 473.773 743.153 445.365 746.281C385.29 752.895 326.498 741.021 269.64 729.538L269.638 729.537L269.613 729.532C207.2 716.93 142.667 703.9 74.8767 714.519C46.2322 719.046 21.2902 727.924 0 738.677Z" fill="url(#paint34_linear_2_2383)"/>
<path d="M0 758.335L0 756.935C25.1953 744.249 52.5155 735.643 80.8024 731.493C150.683 721.361 214.441 735.195 276.083 748.57C330.686 760.421 387.149 772.673 447.148 767.902C511.171 762.807 553.192 740.239 597.683 716.344L597.688 716.341C653.461 686.388 711.136 655.416 816.984 658.595C909.901 661.393 989.17 691.932 1073.09 724.27L1073.09 724.271C1182.36 766.377 1295.35 809.917 1450.53 796.729C1524.25 790.463 1591.18 767.121 1648 738.407V739.875C1640.89 743.464 1633.77 746.895 1626.63 750.166C1568.43 776.843 1509.22 792.889 1450.65 797.866C1414.26 801.034 1377.63 801.072 1341.23 797.978C1309 795.237 1277.2 790.083 1243.98 782.214C1232.98 779.611 1222.15 776.797 1211.48 773.772C1162.54 759.971 1116.97 742.411 1072.62 725.321C988.805 693.024 909.639 662.521 816.944 659.734C711.437 656.56 653.915 687.452 598.29 717.328L598.281 717.333L598.279 717.334L598.278 717.335C575.839 729.385 554.639 740.77 530.418 750.102C502.956 760.688 476.528 766.702 447.247 769.029C387.059 773.818 330.513 761.55 275.826 749.684L275.817 749.682C214.282 736.328 150.65 722.52 81.008 732.619C49.8638 737.182 22.8465 746.772 0 758.335Z" fill="url(#paint35_linear_2_2383)"/>
<path d="M0 777.865L0 776.493C0.315212 776.335 0.630666 776.177 0.946361 776.02C27.76 762.632 56.8529 753.699 86.9305 749.616C119.125 745.314 152.279 745.508 188.303 750.212C220.405 754.405 251.787 761.715 282.135 768.785C334.663 781.023 388.979 793.673 449.07 790.681C515.052 787.391 559.353 764.985 606.258 741.262L606.259 741.261C663.003 712.546 721.721 682.863 823.531 686.76C916.667 690.322 995.928 722.45 1079.84 756.464L1079.92 756.499C1128.57 776.213 1177.98 796.24 1231.65 811.376C1296.52 829.667 1367.62 840.826 1451.22 835.718C1523.63 831.296 1590.48 809.685 1648 782.244V783.692C1641.78 786.658 1635.55 789.505 1629.31 792.231C1569.8 818.261 1509.91 833.278 1451.31 836.841C1415.39 839.105 1379.33 838.308 1343.57 834.46C1311.83 831.065 1280.53 825.291 1247.84 816.86C1187.31 801.251 1132.42 779.002 1079.36 757.496C995.557 723.523 916.396 691.439 823.482 687.885C722.015 684.001 663.469 713.613 606.852 742.25L606.823 742.264C583.166 754.229 560.818 765.531 535.484 774.572C506.74 784.821 479.321 790.303 449.148 791.806C388.889 794.808 334.498 782.141 281.901 769.891L281.854 769.88C221.273 755.764 158.632 741.175 87.114 750.731C53.4845 755.278 24.3824 765.552 0 777.865Z" fill="url(#paint36_linear_2_2383)"/>
<path d="M0 797.298L0 795.931C1.86605 794.994 3.74305 794.076 5.63072 793.176C33.029 780.144 62.5863 771.543 93.051 767.736C126.106 763.685 159.557 764.193 195.324 769.288C227.231 773.836 258.121 781.554 287.995 789.018L288.018 789.024C338.558 801.653 390.825 814.714 451.012 813.462C518.989 812.04 565.656 789.792 615.06 766.234C672.677 738.756 732.264 710.346 830.075 714.917C923.385 719.274 1002.6 753.011 1086.45 788.727L1086.47 788.736L1086.5 788.746C1192.15 833.747 1301.41 880.281 1451.91 874.703C1523.07 872.067 1589.83 852.131 1648 825.94V827.368C1642.66 829.768 1637.33 832.081 1632 834.305C1571.18 859.693 1510.6 873.667 1451.95 875.84C1384.45 878.337 1318.92 870.41 1251.61 851.601C1192.06 834.963 1138.13 811.991 1085.98 789.778L1085.95 789.767L1085.94 789.76C1002.19 754.09 923.079 720.398 830.002 716.05C732.536 711.497 673.109 739.829 615.636 767.228L615.603 767.244C590.673 779.131 567.132 790.355 540.626 799.109C510.581 809.026 482.114 813.946 451.024 814.596C390.692 815.857 338.358 802.782 287.75 790.137L287.749 790.137L287.713 790.128L287.703 790.126C228.172 775.251 166.616 759.87 93.2208 768.867C57.1059 773.348 25.9022 784.288 0 797.298Z" fill="url(#paint37_linear_2_2383)"/>
<path d="M0 816.583L0 815.236C3.40583 813.544 6.84601 811.909 10.3189 810.333C38.3028 797.658 68.3302 789.39 99.1909 785.861C133.1 782.067 166.822 782.893 202.28 788.382C233.524 793.201 263.487 801.21 292.515 808.969L293.706 809.287C342.353 822.319 392.66 835.79 452.924 836.235C522.935 836.746 572.041 814.655 624.028 791.266C682.365 765.011 742.716 737.864 836.593 743.05C930.042 748.235 1009.17 783.61 1092.95 821.065L1092.96 821.071C1196.88 867.532 1304.33 915.576 1452.58 913.665C1522.57 912.765 1589.22 894.451 1648 869.48V870.908C1643.56 872.793 1639.12 874.618 1634.68 876.384C1572.56 901.126 1511.29 914.048 1452.59 914.804C1386.12 915.657 1321.58 906.361 1255.32 886.386C1197.02 868.81 1144.27 845.254 1093.27 822.474L1092.42 822.095C1008.76 784.687 929.731 749.357 836.523 744.188C742.965 738.998 682.777 766.075 624.574 792.26L624.552 792.27L624.549 792.271C598.331 804.069 573.565 815.212 545.865 823.66C514.455 833.236 484.919 837.589 452.906 837.356C392.489 836.912 342.1 823.418 293.375 810.368C232.296 794.009 174.604 778.559 99.3206 786.985C60.7286 791.352 27.4076 802.932 0 816.583Z" fill="url(#paint38_linear_2_2383)"/>
<path d="M0 835.743L0 834.397C4.93609 831.974 9.93985 829.667 15.0067 827.478C43.5621 815.16 74.0497 807.22 105.3 803.963C140.539 800.412 173.534 801.506 209.115 807.453C240.482 812.701 268.946 820.865 299.075 829.508L299.077 829.508L299.182 829.538C346.037 842.985 394.497 856.887 454.839 858.984C526.911 861.493 578.545 839.567 633.177 816.341C692.131 791.291 753.089 765.39 843.132 771.197C936.656 777.229 1015.66 814.267 1099.29 853.479L1099.31 853.485L1099.31 853.488C1201.52 901.409 1307.21 950.959 1453.26 952.639C1522.13 953.43 1588.66 936.698 1648 912.93V914.346C1644.45 915.766 1640.91 917.147 1637.37 918.49C1573.94 942.582 1511.99 954.455 1453.25 953.778C1387.77 953.029 1324.21 942.382 1258.94 921.244C1201.26 902.562 1149.18 878.146 1098.82 854.536L1098.75 854.501C1015.21 815.338 936.309 778.344 843.03 772.33C753.311 766.543 692.482 792.385 633.666 817.375L633.565 817.418C607.269 828.589 580.078 840.139 551.178 848.268C518.805 857.386 487.273 861.252 454.777 860.121C394.273 858.014 345.744 844.092 298.807 830.623L298.806 830.622C239.037 813.475 182.556 797.271 105.42 805.079C64.361 809.306 28.8978 821.508 0 835.743Z" fill="url(#paint39_linear_2_2383)"/>
<path d="M0 854.776L0 853.443C6.45845 850.319 13.0254 847.385 19.6914 844.646C49.3067 832.561 80.1692 824.972 111.421 822.095C190.629 814.886 245.894 831.851 304.397 849.835L304.406 849.838L304.407 849.838C349.581 863.715 396.291 878.063 456.75 881.784C530.91 886.353 585.104 864.59 642.482 841.547C701.905 817.676 763.376 792.999 849.658 799.372C943.21 806.282 1022.04 845.001 1105.49 885.992L1105.52 886.006L1105.64 886.067C1206.14 935.422 1310.08 986.462 1453.92 991.638C1521.73 994.078 1588.13 978.879 1648 956.288V957.701C1645.34 958.703 1642.68 959.685 1640.03 960.645C1575.29 984.082 1512.66 994.894 1453.87 992.776C1389.35 990.449 1326.75 978.494 1262.49 956.204C1205.73 936.516 1154.57 911.392 1105.09 887.086L1104.93 887.012C1021.59 846.057 942.858 807.394 849.548 800.503C763.563 794.155 702.246 818.776 642.944 842.601L642.83 842.647C615.251 853.72 586.736 865.168 556.571 872.986C522.764 881.74 490.08 884.995 456.65 882.934C396.034 879.201 349.244 864.829 303.998 850.928C245.615 832.993 190.472 816.056 111.526 823.231C68.0261 827.234 30.386 840.02 0 854.776Z" fill="url(#paint40_linear_2_2383)"/>
<path d="M0 873.679V872.345C7.97312 868.55 16.1008 865.034 24.3667 861.804C54.6219 850.061 85.9685 842.8 117.534 840.213C198.513 833.65 252.354 851.352 309.35 870.105C352.947 884.437 398.029 899.256 458.655 904.575C534.904 911.266 591.7 889.7 651.84 866.864L651.919 866.834C711.723 844.122 773.565 820.636 856.182 827.538C949.724 835.356 1028.34 875.779 1111.57 918.593L1111.59 918.601C1210.49 969.457 1312.76 1022.04 1454.6 1030.65C1521.39 1034.7 1587.65 1021 1648 999.572V1000.98C1646.24 1001.6 1644.47 1002.22 1642.71 1002.83C1576.66 1025.61 1513.34 1035.37 1454.52 1031.78C1409.16 1029.03 1364.76 1021.49 1320.06 1008.89C1302.11 1003.82 1284.08 997.94 1265.96 991.234C1210.03 970.522 1159.67 944.628 1110.98 919.588L1110.96 919.577C1027.85 876.842 949.346 836.476 856.068 828.668C773.759 821.791 712.062 845.218 652.398 867.874L652.374 867.883L652.349 867.892L652.345 867.894L652.343 867.894C623.437 878.872 593.549 890.222 562.056 897.71C526.769 906.106 492.91 908.72 458.541 905.705C397.774 900.376 352.624 885.533 308.96 871.178L308.942 871.172C252.072 852.478 198.349 834.83 117.636 841.356C71.6777 845.116 31.8408 858.46 0 873.679Z" fill="url(#paint41_linear_2_2383)"/>
<path d="M0 892.46V891.123C9.49077 886.688 19.1856 882.63 29.0589 878.962C59.9489 867.565 91.7845 860.628 123.667 858.333C206.338 852.441 258.653 870.838 314.034 890.314L314.053 890.32C356.177 905.134 399.74 920.453 460.586 927.34C538.963 936.213 601.255 913.83 661.494 892.186L661.497 892.185C691.459 881.415 722.446 870.284 755.262 862.964C792.12 854.742 827.274 852.362 862.728 855.679C956.182 864.427 1034.52 906.559 1117.46 951.163L1117.5 951.187C1214.82 1003.53 1315.45 1057.66 1455.29 1069.61C1521.1 1075.23 1587.2 1063 1648 1042.72V1044.13C1647.13 1044.41 1646.27 1044.7 1645.41 1044.98C1578.07 1067.11 1514.05 1075.78 1455.21 1070.75C1392.52 1065.39 1331.75 1050.84 1269.41 1026.29C1214.38 1004.6 1164.92 978.008 1117.06 952.277L1116.91 952.193C1034.07 907.637 955.827 865.553 862.619 856.831C783.856 849.456 721.88 871.726 661.946 893.263C631.732 904.129 600.455 915.357 567.626 922.51C530.82 930.529 495.761 932.483 460.454 928.485C399.533 921.606 355.944 906.278 313.804 891.46L313.637 891.401C258.378 871.967 206.181 853.611 123.771 859.485C75.3684 862.966 33.2931 876.843 0 892.46Z" fill="url(#paint42_linear_2_2383)"/>
<path d="M0 911.079V909.77C11.0055 904.73 22.2663 900.175 33.7459 896.122C65.2903 885.077 97.5838 878.455 129.787 876.453C168.328 874.076 201.879 876.416 235.336 883.812C265.159 890.405 291.142 900.167 318.647 910.505L318.655 910.508C359.361 925.806 401.451 941.625 462.504 950.118C543.022 961.153 608.176 939.034 671.184 917.641C701.283 907.422 732.406 896.856 764.816 890.03C801.184 882.371 835.354 880.344 869.265 883.834C962.445 893.632 1040.36 937.452 1122.85 983.845L1122.86 983.846L1122.87 983.854L1122.9 983.872L1122.9 983.873L1122.9 983.873C1218.76 1037.78 1317.87 1093.52 1455.97 1108.59C1520.83 1115.84 1586.78 1105.08 1648 1085.93V1087.33C1579.36 1108.77 1514.7 1116.3 1455.83 1109.72C1393.92 1102.98 1333.94 1087.18 1272.45 1061.47C1218.16 1038.77 1169.44 1011.37 1122.31 984.871L1122.31 984.87L1122.24 984.832C1039.86 938.5 962.049 894.737 869.129 884.965C793.822 877.217 731.692 898.309 671.602 918.711L671.578 918.72C640.03 929.43 607.405 940.506 573.229 947.299C534.867 954.922 498.589 956.216 462.327 951.246C401.133 942.717 358.967 926.889 318.195 911.564C264.599 891.421 213.978 872.399 129.866 877.59C79.0487 880.739 34.7227 895.116 0 911.079Z" fill="url(#paint43_linear_2_2383)"/>
<path d="M0 929.62V928.294C12.5261 922.678 25.3593 917.662 38.4505 913.268C70.6102 902.562 103.405 896.281 135.932 894.564C175.177 892.513 208.674 895.139 241.447 902.857C270.719 909.751 295.932 919.888 322.624 930.619C362.088 946.488 402.897 962.894 464.442 972.886C547.041 986.293 615.113 964.381 680.928 943.185C711.132 933.456 742.363 923.397 774.351 917.038C810.21 909.906 843.403 908.255 875.825 911.979C968.971 922.683 1046.65 968.284 1128.89 1016.56C1223.14 1071.9 1320.61 1129.12 1456.68 1147.57C1520.63 1156.24 1586.4 1146.85 1648 1128.8V1130.2C1579.07 1150.36 1514.66 1156.57 1456.5 1148.69C1395.53 1140.42 1336.46 1123.36 1275.92 1096.53C1222.46 1072.84 1174.56 1044.72 1128.24 1017.53C1046.12 969.317 968.557 923.784 875.673 913.11C803.725 904.839 741.516 924.876 681.348 944.256L681.322 944.265L681.302 944.271C648.427 954.858 614.431 965.807 578.881 972.24C538.93 979.467 501.43 980.048 464.248 974.029C402.562 964.013 361.685 947.58 322.157 931.685L322.151 931.683C268.166 909.979 221.558 891.241 136.013 895.721C82.7748 898.514 36.1431 913.363 0 929.62Z" fill="url(#paint44_linear_2_2383)"/>
<path d="M58.846 -144C46.077 -111.479 42.1973 -80.9794 38.3827 -50.9919L38.3772 -50.949C33.1024 -9.39889 28.0574 30.3408 0 72.4995V70.3485C27.0308 28.9419 31.9984 -10.1944 37.1843 -51.0774C40.9879 -81.0444 44.856 -111.517 57.5401 -144L58.846 -144Z" fill="url(#paint45_linear_2_2383)"/>
<defs>
<linearGradient id="paint0_linear_2_2383" x1="2.20372e-08" y1="360" x2="1648" y2="361.733" gradientUnits="userSpaceOnUse">
<stop stop-color="white"/>
<stop offset="0.260417" stop-color="#F2F2F2"/>
<stop offset="0.515625" stop-color="#FF552E"/>
<stop offset="0.770833" stop-color="#1D58A7"/>
<stop offset="1" stop-color="#13294B"/>
</linearGradient>
<linearGradient id="paint1_linear_2_2383" x1="2.20372e-08" y1="360" x2="1648" y2="361.733" gradientUnits="userSpaceOnUse">
<stop stop-color="white"/>
<stop offset="0.260417" stop-color="#F2F2F2"/>
<stop offset="0.515625" stop-color="#FF552E"/>
<stop offset="0.770833" stop-color="#1D58A7"/>
<stop offset="1" stop-color="#13294B"/>
</linearGradient>
<linearGradient id="paint2_linear_2_2383" x1="2.20372e-08" y1="360" x2="1648" y2="361.733" gradientUnits="userSpaceOnUse">
<stop stop-color="white"/>
<stop offset="0.260417" stop-color="#F2F2F2"/>
<stop offset="0.515625" stop-color="#FF552E"/>
<stop offset="0.770833" stop-color="#1D58A7"/>
<stop offset="1" stop-color="#13294B"/>
</linearGradient>
<linearGradient id="paint3_linear_2_2383" x1="2.20372e-08" y1="360" x2="1648" y2="361.733" gradientUnits="userSpaceOnUse">
<stop stop-color="white"/>
<stop offset="0.260417" stop-color="#F2F2F2"/>
<stop offset="0.515625" stop-color="#FF552E"/>
<stop offset="0.770833" stop-color="#1D58A7"/>
<stop offset="1" stop-color="#13294B"/>
</linearGradient>
<linearGradient id="paint4_linear_2_2383" x1="2.20372e-08" y1="360" x2="1648" y2="361.733" gradientUnits="userSpaceOnUse">
<stop stop-color="white"/>
<stop offset="0.260417" stop-color="#F2F2F2"/>
<stop offset="0.515625" stop-color="#FF552E"/>
<stop offset="0.770833" stop-color="#1D58A7"/>
<stop offset="1" stop-color="#13294B"/>
</linearGradient>
<linearGradient id="paint5_linear_2_2383" x1="2.20372e-08" y1="360" x2="1648" y2="361.733" gradientUnits="userSpaceOnUse">
<stop stop-color="white"/>
<stop offset="0.260417" stop-color="#F2F2F2"/>
<stop offset="0.515625" stop-color="#FF552E"/>
<stop offset="0.770833" stop-color="#1D58A7"/>
<stop offset="1" stop-color="#13294B"/>
</linearGradient>
<linearGradient id="paint6_linear_2_2383" x1="2.20372e-08" y1="360" x2="1648" y2="361.733" gradientUnits="userSpaceOnUse">
<stop stop-color="white"/>
<stop offset="0.260417" stop-color="#F2F2F2"/>
<stop offset="0.515625" stop-color="#FF552E"/>
<stop offset="0.770833" stop-color="#1D58A7"/>
<stop offset="1" stop-color="#13294B"/>
</linearGradient>
<linearGradient id="paint7_linear_2_2383" x1="2.20372e-08" y1="360" x2="1648" y2="361.733" gradientUnits="userSpaceOnUse">
<stop stop-color="white"/>
<stop offset="0.260417" stop-color="#F2F2F2"/>
<stop offset="0.515625" stop-color="#FF552E"/>
<stop offset="0.770833" stop-color="#1D58A7"/>
<stop offset="1" stop-color="#13294B"/>
</linearGradient>
<linearGradient id="paint8_linear_2_2383" x1="2.20372e-08" y1="360" x2="1648" y2="361.733" gradientUnits="userSpaceOnUse">
<stop stop-color="white"/>
<stop offset="0.260417" stop-color="#F2F2F2"/>
<stop offset="0.515625" stop-color="#FF552E"/>
<stop offset="0.770833" stop-color="#1D58A7"/>
<stop offset="1" stop-color="#13294B"/>
</linearGradient>
<linearGradient id="paint9_linear_2_2383" x1="2.20372e-08" y1="360" x2="1648" y2="361.733" gradientUnits="userSpaceOnUse">
<stop stop-color="white"/>
<stop offset="0.260417" stop-color="#F2F2F2"/>
<stop offset="0.515625" stop-color="#FF552E"/>
<stop offset="0.770833" stop-color="#1D58A7"/>
<stop offset="1" stop-color="#13294B"/>
</linearGradient>
<linearGradient id="paint10_linear_2_2383" x1="2.20372e-08" y1="360" x2="1648" y2="361.733" gradientUnits="userSpaceOnUse">
<stop stop-color="white"/>
<stop offset="0.260417" stop-color="#F2F2F2"/>
<stop offset="0.515625" stop-color="#FF552E"/>
<stop offset="0.770833" stop-color="#1D58A7"/>
<stop offset="1" stop-color="#13294B"/>
</linearGradient>
<linearGradient id="paint11_linear_2_2383" x1="2.20372e-08" y1="360" x2="1648" y2="361.733" gradientUnits="userSpaceOnUse">
<stop stop-color="white"/>
<stop offset="0.260417" stop-color="#F2F2F2"/>
<stop offset="0.515625" stop-color="#FF552E"/>
<stop offset="0.770833" stop-color="#1D58A7"/>
<stop offset="1" stop-color="#13294B"/>
</linearGradient>
<linearGradient id="paint12_linear_2_2383" x1="2.20372e-08" y1="360" x2="1648" y2="361.733" gradientUnits="userSpaceOnUse">
<stop stop-color="white"/>
<stop offset="0.260417" stop-color="#F2F2F2"/>
<stop offset="0.515625" stop-color="#FF552E"/>
<stop offset="0.770833" stop-color="#1D58A7"/>
<stop offset="1" stop-color="#13294B"/>
</linearGradient>
<linearGradient id="paint13_linear_2_2383" x1="2.20372e-08" y1="360" x2="1648" y2="361.733" gradientUnits="userSpaceOnUse">
<stop stop-color="white"/>
<stop offset="0.260417" stop-color="#F2F2F2"/>
<stop offset="0.515625" stop-color="#FF552E"/>
<stop offset="0.770833" stop-color="#1D58A7"/>
<stop offset="1" stop-color="#13294B"/>
</linearGradient>
<linearGradient id="paint14_linear_2_2383" x1="2.20372e-08" y1="360" x2="1648" y2="361.733" gradientUnits="userSpaceOnUse">
<stop stop-color="white"/>
<stop offset="0.260417" stop-color="#F2F2F2"/>
<stop offset="0.515625" stop-color="#FF552E"/>
<stop offset="0.770833" stop-color="#1D58A7"/>
<stop offset="1" stop-color="#13294B"/>
</linearGradient>
<linearGradient id="paint15_linear_2_2383" x1="2.20372e-08" y1="360" x2="1648" y2="361.733" gradientUnits="userSpaceOnUse">
<stop stop-color="white"/>
<stop offset="0.260417" stop-color="#F2F2F2"/>
<stop offset="0.515625" stop-color="#FF552E"/>
<stop offset="0.770833" stop-color="#1D58A7"/>
<stop offset="1" stop-color="#13294B"/>
</linearGradient>
<linearGradient id="paint16_linear_2_2383" x1="2.20372e-08" y1="360" x2="1648" y2="361.733" gradientUnits="userSpaceOnUse">
<stop stop-color="white"/>
<stop offset="0.260417" stop-color="#F2F2F2"/>
<stop offset="0.515625" stop-color="#FF552E"/>
<stop offset="0.770833" stop-color="#1D58A7"/>
<stop offset="1" stop-color="#13294B"/>
</linearGradient>
<linearGradient id="paint17_linear_2_2383" x1="2.20372e-08" y1="360" x2="1648" y2="361.733" gradientUnits="userSpaceOnUse">
<stop stop-color="white"/>
<stop offset="0.260417" stop-color="#F2F2F2"/>
<stop offset="0.515625" stop-color="#FF552E"/>
<stop offset="0.770833" stop-color="#1D58A7"/>
<stop offset="1" stop-color="#13294B"/>
</linearGradient>
<linearGradient id="paint18_linear_2_2383" x1="2.20372e-08" y1="360" x2="1648" y2="361.733" gradientUnits="userSpaceOnUse">
<stop stop-color="white"/>
<stop offset="0.260417" stop-color="#F2F2F2"/>
<stop offset="0.515625" stop-color="#FF552E"/>
<stop offset="0.770833" stop-color="#1D58A7"/>
<stop offset="1" stop-color="#13294B"/>
</linearGradient>
<linearGradient id="paint19_linear_2_2383" x1="2.20372e-08" y1="360" x2="1648" y2="361.733" gradientUnits="userSpaceOnUse">
<stop stop-color="white"/>
<stop offset="0.260417" stop-color="#F2F2F2"/>
<stop offset="0.515625" stop-color="#FF552E"/>
<stop offset="0.770833" stop-color="#1D58A7"/>
<stop offset="1" stop-color="#13294B"/>
</linearGradient>
<linearGradient id="paint20_linear_2_2383" x1="2.20372e-08" y1="360" x2="1648" y2="361.733" gradientUnits="userSpaceOnUse">
<stop stop-color="white"/>
<stop offset="0.260417" stop-color="#F2F2F2"/>
<stop offset="0.515625" stop-color="#FF552E"/>
<stop offset="0.770833" stop-color="#1D58A7"/>
<stop offset="1" stop-color="#13294B"/>
</linearGradient>
<linearGradient id="paint21_linear_2_2383" x1="2.20372e-08" y1="360" x2="1648" y2="361.733" gradientUnits="userSpaceOnUse">
<stop stop-color="white"/>
<stop offset="0.260417" stop-color="#F2F2F2"/>
<stop offset="0.515625" stop-color="#FF552E"/>
<stop offset="0.770833" stop-color="#1D58A7"/>
<stop offset="1" stop-color="#13294B"/>
</linearGradient>
<linearGradient id="paint22_linear_2_2383" x1="2.20372e-08" y1="360" x2="1648" y2="361.733" gradientUnits="userSpaceOnUse">
<stop stop-color="white"/>
<stop offset="0.260417" stop-color="#F2F2F2"/>
<stop offset="0.515625" stop-color="#FF552E"/>
<stop offset="0.770833" stop-color="#1D58A7"/>
<stop offset="1" stop-color="#13294B"/>
</linearGradient>
<linearGradient id="paint23_linear_2_2383" x1="2.20372e-08" y1="360" x2="1648" y2="361.733" gradientUnits="userSpaceOnUse">
<stop stop-color="white"/>
<stop offset="0.260417" stop-color="#F2F2F2"/>
<stop offset="0.515625" stop-color="#FF552E"/>
<stop offset="0.770833" stop-color="#1D58A7"/>
<stop offset="1" stop-color="#13294B"/>
</linearGradient>
<linearGradient id="paint24_linear_2_2383" x1="2.20372e-08" y1="360" x2="1648" y2="361.733" gradientUnits="userSpaceOnUse">
<stop stop-color="white"/>
<stop offset="0.260417" stop-color="#F2F2F2"/>
<stop offset="0.515625" stop-color="#FF552E"/>
<stop offset="0.770833" stop-color="#1D58A7"/>
<stop offset="1" stop-color="#13294B"/>
</linearGradient>
<linearGradient id="paint25_linear_2_2383" x1="2.20372e-08" y1="360" x2="1648" y2="361.733" gradientUnits="userSpaceOnUse">
<stop stop-color="white"/>
<stop offset="0.260417" stop-color="#F2F2F2"/>
<stop offset="0.515625" stop-color="#FF552E"/>
<stop offset="0.770833" stop-color="#1D58A7"/>
<stop offset="1" stop-color="#13294B"/>
</linearGradient>
<linearGradient id="paint26_linear_2_2383" x1="2.20372e-08" y1="360" x2="1648" y2="361.733" gradientUnits="userSpaceOnUse">
<stop stop-color="white"/>
<stop offset="0.260417" stop-color="#F2F2F2"/>
<stop offset="0.515625" stop-color="#FF552E"/>
<stop offset="0.770833" stop-color="#1D58A7"/>
<stop offset="1" stop-color="#13294B"/>
</linearGradient>
<linearGradient id="paint27_linear_2_2383" x1="2.20372e-08" y1="360" x2="1648" y2="361.733" gradientUnits="userSpaceOnUse">
<stop stop-color="white"/>
<stop offset="0.260417" stop-color="#F2F2F2"/>
<stop offset="0.515625" stop-color="#FF552E"/>
<stop offset="0.770833" stop-color="#1D58A7"/>
<stop offset="1" stop-color="#13294B"/>
</linearGradient>
<linearGradient id="paint28_linear_2_2383" x1="2.20372e-08" y1="360" x2="1648" y2="361.733" gradientUnits="userSpaceOnUse">
<stop stop-color="white"/>
<stop offset="0.260417" stop-color="#F2F2F2"/>
<stop offset="0.515625" stop-color="#FF552E"/>
<stop offset="0.770833" stop-color="#1D58A7"/>
<stop offset="1" stop-color="#13294B"/>
</linearGradient>
<linearGradient id="paint29_linear_2_2383" x1="2.20372e-08" y1="360" x2="1648" y2="361.733" gradientUnits="userSpaceOnUse">
<stop stop-color="white"/>
<stop offset="0.260417" stop-color="#F2F2F2"/>
<stop offset="0.515625" stop-color="#FF552E"/>
<stop offset="0.770833" stop-color="#1D58A7"/>
<stop offset="1" stop-color="#13294B"/>
</linearGradient>
<linearGradient id="paint30_linear_2_2383" x1="2.20372e-08" y1="360" x2="1648" y2="361.733" gradientUnits="userSpaceOnUse">
<stop stop-color="white"/>
<stop offset="0.260417" stop-color="#F2F2F2"/>
<stop offset="0.515625" stop-color="#FF552E"/>
<stop offset="0.770833" stop-color="#1D58A7"/>
<stop offset="1" stop-color="#13294B"/>
</linearGradient>
<linearGradient id="paint31_linear_2_2383" x1="2.20372e-08" y1="360" x2="1648" y2="361.733" gradientUnits="userSpaceOnUse">
<stop stop-color="white"/>
<stop offset="0.260417" stop-color="#F2F2F2"/>
<stop offset="0.515625" stop-color="#FF552E"/>
<stop offset="0.770833" stop-color="#1D58A7"/>
<stop offset="1" stop-color="#13294B"/>
</linearGradient>
<linearGradient id="paint32_linear_2_2383" x1="2.20372e-08" y1="360" x2="1648" y2="361.733" gradientUnits="userSpaceOnUse">
<stop stop-color="white"/>
<stop offset="0.260417" stop-color="#F2F2F2"/>
<stop offset="0.515625" stop-color="#FF552E"/>
<stop offset="0.770833" stop-color="#1D58A7"/>
<stop offset="1" stop-color="#13294B"/>
</linearGradient>
<linearGradient id="paint33_linear_2_2383" x1="2.20372e-08" y1="360" x2="1648" y2="361.733" gradientUnits="userSpaceOnUse">
<stop stop-color="white"/>
<stop offset="0.260417" stop-color="#F2F2F2"/>
<stop offset="0.515625" stop-color="#FF552E"/>
<stop offset="0.770833" stop-color="#1D58A7"/>
<stop offset="1" stop-color="#13294B"/>
</linearGradient>
<linearGradient id="paint34_linear_2_2383" x1="2.20372e-08" y1="360" x2="1648" y2="361.733" gradientUnits="userSpaceOnUse">
<stop stop-color="white"/>
<stop offset="0.260417" stop-color="#F2F2F2"/>
<stop offset="0.515625" stop-color="#FF552E"/>
<stop offset="0.770833" stop-color="#1D58A7"/>
<stop offset="1" stop-color="#13294B"/>
</linearGradient>
<linearGradient id="paint35_linear_2_2383" x1="2.20372e-08" y1="360" x2="1648" y2="361.733" gradientUnits="userSpaceOnUse">
<stop stop-color="white"/>
<stop offset="0.260417" stop-color="#F2F2F2"/>
<stop offset="0.515625" stop-color="#FF552E"/>
<stop offset="0.770833" stop-color="#1D58A7"/>
<stop offset="1" stop-color="#13294B"/>
</linearGradient>
<linearGradient id="paint36_linear_2_2383" x1="2.20372e-08" y1="360" x2="1648" y2="361.733" gradientUnits="userSpaceOnUse">
<stop stop-color="white"/>
<stop offset="0.260417" stop-color="#F2F2F2"/>
<stop offset="0.515625" stop-color="#FF552E"/>
<stop offset="0.770833" stop-color="#1D58A7"/>
<stop offset="1" stop-color="#13294B"/>
</linearGradient>
<linearGradient id="paint37_linear_2_2383" x1="2.20372e-08" y1="360" x2="1648" y2="361.733" gradientUnits="userSpaceOnUse">
<stop stop-color="white"/>
<stop offset="0.260417" stop-color="#F2F2F2"/>
<stop offset="0.515625" stop-color="#FF552E"/>
<stop offset="0.770833" stop-color="#1D58A7"/>
<stop offset="1" stop-color="#13294B"/>
</linearGradient>
<linearGradient id="paint38_linear_2_2383" x1="2.20372e-08" y1="360" x2="1648" y2="361.733" gradientUnits="userSpaceOnUse">
<stop stop-color="white"/>
<stop offset="0.260417" stop-color="#F2F2F2"/>
<stop offset="0.515625" stop-color="#FF552E"/>
<stop offset="0.770833" stop-color="#1D58A7"/>
<stop offset="1" stop-color="#13294B"/>
</linearGradient>
<linearGradient id="paint39_linear_2_2383" x1="2.20372e-08" y1="360" x2="1648" y2="361.733" gradientUnits="userSpaceOnUse">
<stop stop-color="white"/>
<stop offset="0.260417" stop-color="#F2F2F2"/>
<stop offset="0.515625" stop-color="#FF552E"/>
<stop offset="0.770833" stop-color="#1D58A7"/>
<stop offset="1" stop-color="#13294B"/>
</linearGradient>
<linearGradient id="paint40_linear_2_2383" x1="2.20372e-08" y1="360" x2="1648" y2="361.733" gradientUnits="userSpaceOnUse">
<stop stop-color="white"/>
<stop offset="0.260417" stop-color="#F2F2F2"/>
<stop offset="0.515625" stop-color="#FF552E"/>
<stop offset="0.770833" stop-color="#1D58A7"/>
<stop offset="1" stop-color="#13294B"/>
</linearGradient>
<linearGradient id="paint41_linear_2_2383" x1="2.20372e-08" y1="360" x2="1648" y2="361.733" gradientUnits="userSpaceOnUse">
<stop stop-color="white"/>
<stop offset="0.260417" stop-color="#F2F2F2"/>
<stop offset="0.515625" stop-color="#FF552E"/>
<stop offset="0.770833" stop-color="#1D58A7"/>
<stop offset="1" stop-color="#13294B"/>
</linearGradient>
<linearGradient id="paint42_linear_2_2383" x1="2.20372e-08" y1="360" x2="1648" y2="361.733" gradientUnits="userSpaceOnUse">
<stop stop-color="white"/>
<stop offset="0.260417" stop-color="#F2F2F2"/>
<stop offset="0.515625" stop-color="#FF552E"/>
<stop offset="0.770833" stop-color="#1D58A7"/>
<stop offset="1" stop-color="#13294B"/>
</linearGradient>
<linearGradient id="paint43_linear_2_2383" x1="2.20372e-08" y1="360" x2="1648" y2="361.733" gradientUnits="userSpaceOnUse">
<stop stop-color="white"/>
<stop offset="0.260417" stop-color="#F2F2F2"/>
<stop offset="0.515625" stop-color="#FF552E"/>
<stop offset="0.770833" stop-color="#1D58A7"/>
<stop offset="1" stop-color="#13294B"/>
</linearGradient>
<linearGradient id="paint44_linear_2_2383" x1="2.20372e-08" y1="360" x2="1648" y2="361.733" gradientUnits="userSpaceOnUse">
<stop stop-color="white"/>
<stop offset="0.260417" stop-color="#F2F2F2"/>
<stop offset="0.515625" stop-color="#FF552E"/>
<stop offset="0.770833" stop-color="#1D58A7"/>
<stop offset="1" stop-color="#13294B"/>
</linearGradient>
<linearGradient id="paint45_linear_2_2383" x1="2.20372e-08" y1="360" x2="1648" y2="361.733" gradientUnits="userSpaceOnUse">
<stop stop-color="white"/>
<stop offset="0.260417" stop-color="#F2F2F2"/>
<stop offset="0.515625" stop-color="#FF552E"/>
<stop offset="0.770833" stop-color="#1D58A7"/>
<stop offset="1" stop-color="#13294B"/>
</linearGradient>
</defs>
</svg>
