<svg width="1648" height="1200" viewBox="0 0 1648 1200" fill="none" xmlns="http://www.w3.org/2000/svg">
<path d="M0 143.138V144.327C11.6823 136.247 23.9044 128.063 36.5709 119.923C126.864 61.8956 258.83 -5.73146 374.726 1.64418C493.237 9.18546 573.027 56.4657 650.187 102.188C717.509 142.081 781.097 179.761 862.451 183.09C890.769 184.247 920.394 180.231 953.019 170.803C982.122 162.396 1010.98 150.522 1038.89 139.038C1099.71 114.02 1162.62 88.1533 1234.31 94.8306C1287.72 99.8089 1322 112.418 1355.16 124.615C1377.58 132.863 1398.76 140.654 1423.92 145.059C1452.08 149.992 1481.48 150.025 1516.52 145.183C1545.56 141.154 1575.37 132.761 1605.13 120.204C1619.67 114.029 1633.99 107.029 1648 99.2471V98.0606C1613.1 117.473 1567.39 137.057 1516.58 144.088C1440.21 154.651 1401.05 140.249 1355.7 123.568L1355.7 123.566C1322.49 111.349 1288.15 98.719 1234.61 93.7284C1202.34 90.7384 1169.02 94.0518 1132.76 103.872C1100.48 112.613 1069.07 125.536 1038.69 138.033L1038.69 138.034L1038.67 138.041L1038.65 138.051C983.044 160.925 925.556 184.576 862.717 182.002C781.592 178.683 718.097 141.059 650.872 101.223C612.954 78.7511 573.74 55.5186 529.088 36.9049C478.521 15.8291 428.123 3.94134 375.012 0.561058C369.128 0.186873 363.148 0 357.072 0C310.152 0 257.594 11.1464 200.528 33.2363C148.988 53.1889 93.675 82.0553 36.1229 119.044C23.6192 127.08 11.5476 135.158 0 143.138Z" fill="url(#paint0_linear_2_2481)"/>
<path d="M1648 114.411C1614.03 133.911 1569.65 153.515 1519.93 160.891C1444.74 172.025 1402.06 157.649 1356.87 142.424C1322.5 130.841 1286.94 118.882 1233.67 115.27C1202.09 113.211 1169.77 117.113 1134.87 127.194C1103.78 136.175 1073.56 149.119 1044.35 161.635L1044.32 161.645C988.673 185.487 931.132 210.135 865.254 208.306C783.993 205.848 720.071 169.927 652.396 131.898L652.341 131.866C613.631 110.116 573.606 87.6281 528.096 70.0212C476.551 50.0766 425.197 39.4608 371.087 37.5987C319.631 35.6745 261.409 47.608 198.04 73.0774C147.365 93.4443 93.2976 122.459 37.3451 159.32C24.3675 167.869 11.8843 176.453 0 184.905V186.104C12.0201 177.547 24.6572 168.852 37.8027 160.193C125.591 102.359 254.629 34.3361 370.827 38.688C491.538 42.865 572.96 88.6149 651.703 132.86L651.74 132.881C719.505 170.961 783.512 206.929 865.002 209.393C894.667 210.217 925.203 205.772 958.34 195.805C987.871 186.922 1016.69 174.574 1044.57 162.632C1102.92 137.633 1163.27 111.784 1233.38 116.357C1286.54 119.945 1322.02 131.901 1356.34 143.463L1356.35 143.465C1379.54 151.279 1401.45 158.657 1427.13 162.736C1455.94 167.31 1485.42 167.068 1519.87 161.967C1548.66 157.691 1578.06 149.011 1607.31 136.176C1621.13 130.075 1634.72 123.197 1648 115.585V114.411Z" fill="url(#paint1_linear_2_2481)"/>
<path d="M1648 130.771C1614.96 150.347 1571.87 169.953 1523.23 177.674C1449.48 189.332 1405.32 175.705 1358.58 161.278L1358.43 161.235C1322.79 150.234 1285.91 138.856 1232.69 136.795C1201.85 135.59 1170.53 140.031 1136.96 150.373C1107.02 159.598 1077.99 172.587 1049.93 185.153C994.289 210.064 936.748 235.822 867.761 234.603C786.123 233.165 721.625 198.874 653.341 162.568L653.211 162.499C613.763 141.534 572.987 119.864 526.712 103.277C474.283 84.5004 422.078 75.1303 367.117 74.6456C315.519 74.1946 257.75 87.1547 195.47 113.171C145.652 133.978 92.8254 163.128 38.492 199.823C25.058 208.893 12.1882 217.986 0 226.906V228.121C12.3283 219.09 25.3592 209.878 38.9703 200.689C124.238 143.122 250.344 74.7139 366.907 75.7383C489.522 76.816 572.474 120.917 652.696 163.57L652.732 163.589C721.1 199.933 785.678 234.263 867.532 235.707C898.585 236.254 930.033 231.4 963.671 220.861C993.619 211.479 1022.39 198.603 1050.21 186.147L1050.21 186.146C1106.14 161.11 1163.97 135.221 1232.44 137.894C1285.6 139.969 1322.45 151.341 1358.08 162.337L1358.1 162.342C1404.95 176.8 1449.2 190.457 1523.19 178.762C1551.73 174.231 1580.76 165.284 1609.48 152.163C1622.57 146.146 1635.44 139.402 1648 131.972V130.771Z" fill="url(#paint2_linear_2_2481)"/>
<path d="M1648 147.215C1615.89 166.857 1574.1 186.44 1526.57 194.475C1454.24 206.63 1408.65 193.789 1360.39 180.185L1360.38 180.181C1323.32 169.734 1285.01 158.931 1231.74 158.335C1201.62 157.996 1171.29 162.977 1139.03 173.566C1110.23 183.012 1082.41 196.016 1055.5 208.593L1055.48 208.604L1055.45 208.614C999.919 234.569 942.491 261.408 870.302 260.924C788.496 260.362 723.569 227.724 654.833 193.171L654.815 193.162C614.542 172.917 572.894 151.981 525.697 136.388C510.415 131.338 495.109 127.066 479.778 123.57C441.606 114.866 403.11 110.957 363.204 111.678C311.463 112.599 254.18 126.547 192.966 153.094C144.016 174.324 92.4521 203.618 39.7027 240.17C25.7783 249.818 12.5 259.474 0 268.906V270.129C12.6469 260.575 26.0965 250.787 40.2109 241.007C122.96 183.673 246.132 114.88 363.004 112.766C487.774 110.51 572.361 153.029 654.162 194.147L654.175 194.153C723.008 228.772 788.031 261.456 870.07 262.008C942.529 262.494 1000.09 235.588 1055.76 209.568L1055.83 209.534C1111.81 183.372 1164.68 158.665 1231.51 159.419C1284.65 160.017 1322.91 170.8 1359.91 181.231C1408.27 194.882 1453.96 207.764 1526.53 195.556C1554.82 190.77 1583.46 181.55 1611.65 168.147C1624.02 162.234 1636.16 155.645 1648 148.418V147.215Z" fill="url(#paint3_linear_2_2481)"/>
<path d="M1648 163.716C1616.8 183.395 1576.3 202.938 1529.88 211.275C1459.05 223.918 1412.12 211.858 1362.43 199.088C1323.92 189.189 1284.1 178.956 1230.78 179.867C1201.37 180.368 1172.01 185.872 1141.02 196.692C1113.37 206.354 1086.75 219.348 1061.01 231.917L1060.9 231.97C1005.55 259.012 948.325 286.96 872.816 287.25C790.874 287.562 725.546 256.563 656.395 223.722L656.268 223.662C615.207 204.173 572.762 184.028 524.711 169.47C470.316 152.989 416.194 146.22 359.252 148.756C307.372 151.069 250.578 165.971 190.448 193.044C142.363 214.696 92.0458 244.135 40.8971 280.547C26.475 290.814 12.7935 301.069 0 311.037V312.272C12.9421 302.177 26.8 291.783 41.4196 281.377C121.658 224.258 241.905 155.073 359.08 149.842C486.027 144.177 572.266 185.101 655.658 224.673L655.785 224.733C725.028 257.601 790.433 288.647 872.587 288.335C948.357 288.046 1005.73 260.034 1061.19 232.94C1114.75 206.784 1165.33 182.081 1230.56 180.969C1283.74 180.059 1323.49 190.275 1361.94 200.156L1361.95 200.158C1411.74 212.966 1458.77 225.042 1529.85 212.349C1557.89 207.31 1586.14 197.815 1613.8 184.132C1625.45 178.341 1636.87 171.924 1648 164.92V163.716Z" fill="url(#paint4_linear_2_2481)"/>
<path d="M1648 180.273C1617.73 199.97 1578.51 219.449 1533.19 228.101C1463.89 241.213 1415.68 229.95 1364.67 218.031L1364.67 218.031C1324.62 208.668 1283.2 198.991 1229.79 201.441C1201.11 202.758 1172.7 208.758 1142.93 219.82C1116.36 229.685 1090.91 242.68 1066.3 255.248L1066.2 255.296C1011.15 283.41 954.212 312.484 875.327 313.583C793.31 314.728 727.635 285.33 658.109 254.208L658.046 254.179C616.128 235.418 572.779 216.015 523.803 202.482C468.381 187.171 413.256 181.717 355.28 185.826C303.273 189.507 246.962 205.368 187.915 232.968C140.696 255.039 91.6267 284.622 42.0772 320.899C27.1484 331.828 13.068 342.72 0 353.25V354.506C13.2108 343.847 27.4647 332.809 42.5903 321.733C120.331 264.817 237.657 195.23 355.138 186.911C484.45 177.756 572.414 217.131 657.488 255.213L657.504 255.22C727.119 286.381 792.874 315.815 875.104 314.669C954.275 313.566 1011.33 284.426 1066.52 256.245C1117.66 230.116 1165.99 205.447 1229.61 202.528C1282.87 200.08 1324.23 209.743 1364.21 219.091L1364.31 219.112L1364.31 219.112C1390.02 225.119 1414.31 230.793 1441.52 233.478C1472.38 236.518 1501.51 235.129 1533.17 229.156C1561.26 223.755 1589.21 213.953 1615.96 200.126C1626.88 194.477 1637.58 188.255 1648 181.495V180.273Z" fill="url(#paint5_linear_2_2481)"/>
<path d="M1648 196.898C1618.64 216.591 1580.68 235.971 1536.5 244.874C1468.77 258.437 1419.4 247.979 1367.14 236.908C1325.45 228.076 1282.33 218.943 1228.81 222.969C1200.45 225.105 1173.75 231.423 1144.79 242.849C1119.25 252.929 1095.99 265.358 1071.38 278.517L1071.37 278.518L1071.35 278.529C1016.7 307.736 960.19 337.938 877.831 339.887C795.779 341.831 729.804 314.026 659.956 284.584L659.248 284.286C616.665 266.361 572.63 247.825 522.972 235.39C466.531 221.259 410.385 217.163 351.337 222.871C299.201 227.912 243.376 244.722 185.413 272.844C139.053 295.332 91.2377 325.062 43.2845 361.21C27.8202 372.865 13.3315 384.452 0 395.582V396.851C13.4757 385.585 28.1449 373.844 43.8182 362.03C119.05 305.326 233.45 235.338 351.218 223.953C482.899 211.219 572.606 249.031 659.359 285.598L659.37 285.602C729.311 315.081 795.373 342.922 877.636 340.976C960.279 338.999 1016.94 308.719 1071.72 279.435C1120.53 253.347 1166.64 228.706 1228.66 224.038C1282.05 220.024 1325.1 229.141 1366.72 237.961L1367.74 238.176C1392.58 243.423 1418.22 248.84 1445.37 251.125C1476.17 253.738 1505.98 252.041 1536.49 245.933C1564.26 240.303 1591.85 230.223 1618.13 216.099C1628.32 210.615 1638.29 204.612 1648 198.122V196.898Z" fill="url(#paint6_linear_2_2481)"/>
<path d="M1648 213.59C1619.55 233.249 1582.83 252.514 1539.81 261.668C1473.68 275.635 1420.88 265.529 1369.82 255.756L1369.81 255.754L1369.78 255.748C1326.37 247.441 1281.48 238.849 1227.84 244.492C1200.19 247.4 1174.38 254.179 1146.59 265.83C1122.07 276.113 1099.89 288.528 1076.4 301.677L1076.37 301.695C1022.23 332.004 966.247 363.343 880.348 366.187C798.318 368.903 732.08 342.662 661.954 314.88L661.94 314.875L661.921 314.867L661.919 314.866C618.254 297.565 573.098 279.674 522.22 268.224C464.72 255.279 407.531 252.56 347.387 259.907C295.129 266.293 239.79 284.053 182.911 312.694C137.421 335.597 90.8494 365.475 44.4892 401.493C28.4683 413.94 13.5722 426.278 0 438.043V439.332C13.7236 427.419 28.8144 414.908 45.064 402.284C117.774 345.784 229.24 275.411 347.287 260.986C481.388 244.595 572.872 280.838 661.339 315.887L661.36 315.895L661.377 315.902C731.593 343.719 797.917 369.994 880.152 367.271C966.354 364.419 1022.49 332.993 1076.77 302.599C1123.31 276.54 1167.27 251.93 1227.72 245.57C1281.23 239.948 1326.06 248.529 1369.41 256.827L1369.43 256.831C1395.06 261.735 1421.55 266.806 1449.32 268.785C1480.44 271.001 1510.05 269.021 1539.83 262.732C1567.28 256.865 1594.49 246.503 1620.3 232.082C1629.75 226.788 1639 221.028 1648 214.831V213.59Z" fill="url(#paint7_linear_2_2481)"/>
<path d="M1648 230.371C1620.46 249.977 1584.97 269.094 1543.12 278.479C1478.59 292.84 1424.74 283.567 1372.66 274.593L1372.62 274.586C1327.4 266.801 1280.64 258.749 1226.86 266.044C1199.93 269.697 1174.98 276.932 1148.3 288.803C1124.78 299.274 1103.66 311.676 1081.29 324.805L1081.26 324.821C1027.74 356.244 972.385 388.737 882.862 392.513C800.883 395.971 734.412 371.265 664.041 345.103C619.49 328.542 573.4 311.409 521.535 301.01C493.53 295.392 466.44 292.203 438.693 291.308C407.428 290.279 375.542 292.176 343.43 296.976C291.053 304.682 236.206 323.383 180.41 352.539C135.788 375.858 90.4624 405.884 45.7003 441.778C29.0936 455.093 13.788 468.248 0 480.686V481.996C13.931 469.408 29.4285 456.073 46.2668 442.57C116.49 386.264 225.038 315.482 343.374 298.038C418.103 287.02 479.854 292.406 535.25 305.038C581.088 315.49 622.58 330.912 663.423 346.092L663.499 346.12C733.958 372.314 800.513 397.055 882.688 393.587C972.514 389.799 1028.03 357.226 1081.67 325.718L1081.68 325.717C1126.02 299.685 1167.9 275.098 1226.79 267.109C1280.43 259.836 1327.12 267.877 1372.28 275.656C1398.37 280.15 1425.35 284.797 1453.33 286.423C1484.73 288.248 1514.1 285.991 1543.15 279.526C1570.3 273.426 1597.13 262.781 1622.46 248.065C1631.11 243.059 1639.63 237.569 1648 231.625V230.371Z" fill="url(#paint8_linear_2_2481)"/>
<path d="M1648 247.205C1621.36 266.728 1587.11 285.677 1546.43 295.267C1483.51 310.007 1428.68 301.55 1375.67 293.372L1375.66 293.371C1328.54 286.104 1279.82 278.592 1225.9 287.582C1199.66 291.952 1175.53 299.622 1149.95 311.72C1127.39 322.384 1107.27 334.78 1085.98 347.9L1085.98 347.902L1085.96 347.909C1033.17 380.439 978.581 414.075 885.392 418.823C803.519 422.996 736.86 399.795 666.286 375.228C628.946 362.228 590.57 348.872 548.773 339.341C539.669 337.247 530.391 335.367 520.937 333.7C492.389 328.657 464.792 326.093 436.533 325.858C404.613 325.593 372.128 328.326 339.487 334.021C286.978 343.07 232.615 362.701 177.906 392.376C134.16 416.108 90.083 446.284 46.9142 482.055C29.6878 496.33 13.9723 510.379 0 523.533V524.867C14.1141 511.557 30.0288 497.312 47.5015 482.833C115.22 426.72 220.842 355.539 339.462 335.094C478.597 311.117 573.738 344.234 665.749 376.262L665.75 376.263C736.41 400.861 803.156 424.089 885.224 419.91C978.715 415.142 1033.45 381.418 1086.38 348.804L1086.39 348.801C1128.61 322.783 1168.49 298.21 1225.86 288.647C1279.61 279.688 1328.26 287.191 1375.3 294.45C1428.41 302.641 1483.34 311.112 1546.48 296.323C1573.32 289.99 1599.78 279.063 1624.63 264.053C1632.55 259.282 1640.35 254.087 1648 248.492V247.205Z" fill="url(#paint9_linear_2_2481)"/>
<path d="M1648 264.135C1622.26 283.537 1589.24 302.271 1549.77 312.042C1488.42 327.139 1432.71 319.49 1378.83 312.092L1378.81 312.089L1378.81 312.089C1329.72 305.347 1278.97 298.375 1224.93 309.093C1199.37 314.162 1176.05 322.26 1151.5 334.582C1129.86 345.443 1109.83 358.41 1090.46 370.95L1090.41 370.979C1038.49 404.587 984.78 439.348 887.914 445.112C806.179 449.972 739.367 428.242 668.631 405.233L668.542 405.204C622.164 390.123 574.208 374.528 520.385 366.284C491.308 361.83 463.181 359.883 434.394 360.33C401.973 360.837 369.643 364.341 335.567 371.052C282.942 381.406 229.062 401.981 175.435 432.167C132.546 456.312 89.7041 486.628 48.1439 522.286C30.2492 537.629 14.1199 552.664 0 566.577V567.947C14.2582 553.87 30.5928 538.619 48.7483 523.048C113.961 467.121 216.654 395.539 335.563 372.122C425.489 354.412 497.398 360.639 561.932 375.354C599.102 383.83 633.836 395.126 668.127 406.278C738.95 429.315 805.845 451.072 887.77 446.201C984.975 440.429 1038.83 405.568 1090.91 371.849C1131.09 345.82 1169.05 321.267 1224.93 310.18C1278.79 299.5 1329.46 306.458 1378.46 313.189L1378.48 313.192C1432.46 320.604 1488.27 328.268 1549.82 313.117C1576.35 306.551 1602.44 295.339 1626.8 280.035C1633.99 275.53 1641.06 270.659 1648 265.443V264.135Z" fill="url(#paint10_linear_2_2481)"/>
<path d="M1648 281.152C1623.15 300.414 1591.31 318.93 1553.05 328.867C1493.26 344.317 1436.7 337.455 1382.02 330.805C1356.41 327.695 1329.93 324.481 1303.71 323.675C1274.33 322.756 1248.22 325.06 1223.93 330.664C1199.76 336.183 1175.82 345.22 1152.93 357.47C1132.17 368.533 1113.13 381.497 1094.71 394.037L1094.71 394.038C1043.74 428.748 991.035 464.642 890.407 471.453C808.85 476.975 741.917 456.684 671.056 435.202C623.705 420.846 574.742 406.003 519.862 398.844C490.237 394.979 461.581 393.656 432.255 394.803C399.221 396.094 366.291 400.454 331.58 408.134C278.827 419.805 225.437 441.287 172.894 471.988C130.865 496.55 89.292 527.001 49.3123 562.542C30.7256 579.068 14.2049 595.182 0 609.888V611.29C14.3476 596.406 31.094 580.048 49.9771 563.263C112.678 507.527 212.44 435.553 331.62 409.183C475.972 377.245 574.897 407.233 670.561 436.232L670.575 436.237L670.581 436.239C741.527 457.747 808.538 478.063 890.276 472.529C991.237 465.693 1044.09 429.697 1095.21 394.885L1095.21 394.884L1095.22 394.88C1133.44 368.851 1169.55 344.264 1223.98 331.711C1277.91 319.27 1330.67 325.675 1381.69 331.876L1381.7 331.877C1436.48 338.53 1493.13 345.409 1553.13 329.905C1579.37 323.109 1605.09 311.614 1628.96 296.015C1635.42 291.797 1641.77 287.273 1648 282.459V281.152Z" fill="url(#paint11_linear_2_2481)"/>
<path d="M1648 298.276C1624.04 317.354 1593.4 335.594 1556.38 345.662C1498.11 361.448 1440.79 355.346 1385.35 349.445L1385.35 349.445L1385.31 349.441C1358.66 346.603 1331.11 343.669 1304.11 343.298C1273.83 342.878 1247.29 345.792 1222.97 352.205C1199.49 358.33 1176.35 367.8 1154.32 380.304C1134.47 391.52 1116.46 404.436 1099.03 416.935L1099.02 416.94L1099.01 416.947L1098.82 417.083L1098.81 417.092C1048.92 452.868 997.333 489.862 892.96 497.76C811.62 503.918 744.6 485.031 673.647 465.033L673.633 465.03C575.967 437.506 474.974 409.044 327.67 445.179C274.787 458.151 221.878 480.554 170.421 511.758C129.261 536.72 88.9295 567.342 50.5469 602.77C31.1715 620.647 14.2416 637.978 0 653.529V654.959C14.3686 639.226 31.5207 621.63 51.2008 603.466C111.397 547.911 208.23 475.537 327.697 446.232C474.733 410.166 575.599 438.59 673.145 466.083C744.183 486.104 811.282 505.013 892.802 498.842C997.525 490.916 1049.27 453.809 1099.31 417.92C1135.66 391.847 1170 367.223 1223.04 353.242C1277.02 339.014 1331.93 344.861 1385.02 350.515L1385.03 350.516C1440.56 356.424 1497.98 362.532 1556.46 346.701C1582.4 339.672 1607.75 327.889 1631.12 311.995C1636.85 308.11 1642.48 303.97 1648 299.588V298.276Z" fill="url(#paint12_linear_2_2481)"/>
<path d="M1648 315.452C1624.92 334.313 1595.47 352.252 1559.71 362.427C1502.91 378.538 1444.87 373.18 1388.74 367.993L1388.62 367.982C1360.93 365.427 1332.3 362.785 1304.52 362.854C1273.33 362.928 1246.34 366.478 1222.01 373.711C1199.18 380.425 1176.78 390.323 1155.54 403.089C1136.43 414.547 1119.25 427.523 1102.63 440.073C1053.94 476.844 1003.6 514.863 895.472 524.047C814.531 530.683 747.562 513.214 676.668 494.721L676.598 494.703C576.927 468.693 473.891 441.806 323.713 482.213C270.702 496.475 218.279 519.788 167.903 551.503C127.617 576.885 88.5178 607.652 51.7341 642.971C31.5033 662.394 14.1864 681.094 0 697.529V699.018C14.3047 682.397 31.8563 663.4 52.4264 643.653C110.114 588.275 204.016 515.496 323.781 483.272C442.754 451.263 532.117 461.575 613.699 480.178C634.903 485.013 655.599 490.411 676.132 495.772C711.87 505.105 745.628 513.913 781.531 519.806C822.219 526.484 858.378 528.184 895.334 525.157C943.953 521.029 985.214 510.679 1021.47 493.519C1053.72 478.253 1078.85 459.275 1103.16 440.919L1103.17 440.911C1137.74 414.799 1170.39 390.143 1222.1 374.777C1276.09 358.731 1333.19 364.004 1388.42 369.104C1444.65 374.296 1502.79 379.666 1559.79 363.494C1585.44 356.231 1610.41 344.162 1633.29 327.978C1638.28 324.453 1643.18 320.725 1648 316.803V315.452Z" fill="url(#paint13_linear_2_2481)"/>
<path d="M1648 332.732C1625.79 351.348 1597.5 368.968 1563 379.226C1507.59 395.673 1448.83 391.051 1392 386.578L1391.92 386.572C1363.16 384.31 1333.43 381.97 1304.83 382.481C1272.73 383.055 1245.32 387.219 1221.01 395.255C1170.43 412.094 1137.87 438.065 1106.37 463.182C1058.96 500.998 1009.93 540.097 897.975 550.363C817.268 557.639 750.239 541.442 679.278 524.291C577.688 499.741 472.639 474.355 319.749 519.265C266.591 534.763 214.65 558.935 165.35 591.151C125.905 616.915 88.082 647.845 52.8951 683.078C31.7029 704.295 14.0194 724.563 0 741.92V743.487C14.1145 725.95 32.034 705.353 53.596 683.765C108.775 628.518 199.765 555.315 319.845 520.346C472.446 475.506 577.356 500.856 678.815 525.373L678.828 525.376C714.565 534.014 748.322 542.173 784.22 547.495C824.916 553.527 861.023 554.792 897.852 551.472C924.817 548.995 948.792 544.874 971.111 538.866C990.993 533.513 1009.09 526.78 1026.45 518.279C1058.67 502.496 1083.21 482.929 1106.94 464.003L1106.95 463.991C1138.35 438.957 1170.82 413.07 1221.16 396.31C1275.08 378.513 1334.36 383.176 1391.69 387.685L1391.71 387.687C1448.63 392.166 1507.5 396.797 1563.11 380.291C1588.47 372.795 1613.08 360.436 1635.45 343.961C1639.7 340.832 1643.89 337.55 1648 334.119V332.732Z" fill="url(#paint14_linear_2_2481)"/>
<path d="M1648 347.952C1626.59 366.413 1599.33 383.829 1565.89 394.2C1514.81 410.049 1458.77 406.267 1404.25 402.588C1401.16 402.38 1398.08 402.172 1395 401.968C1348.03 399.094 1335.75 399.5 1308.24 400.409L1305.5 400.5L1304.95 400.545C1274.77 403.019 1255.78 404.575 1220.04 416.814C1170.65 434.92 1139.66 461.069 1109.69 486.359C1063.7 525.192 1016.1 565.337 900.502 576.692C820.009 584.599 752.924 569.708 681.898 553.943L681.869 553.937C578.382 530.968 471.367 507.217 315.81 556.334C262.673 573.087 210.953 598.336 162.853 631.005C124.282 657.186 87.6968 688.258 54.1048 723.366C31.7615 746.718 13.7146 768.799 0 787.068V788.713C13.7865 770.269 32.0815 747.803 54.8478 724.013C107.518 668.977 195.566 595.395 315.945 557.382C471.206 508.358 578.082 532.079 681.438 555.018L681.445 555.02L681.926 555.127C715.959 562.667 751.141 570.462 786.881 575.182C827.022 580.49 864.169 581.344 900.396 577.785C928.257 575.047 952.821 570.668 975.492 564.395C995.702 558.803 1013.93 551.823 1031.22 543.054C1063.34 526.768 1087.21 506.622 1110.3 487.138L1110.35 487.099C1140.2 461.904 1171.08 435.85 1220.24 417.837C1274.13 398.09 1335.15 399.11 1394.73 403.066C1397.81 403.27 1400.89 403.478 1403.98 403.686C1458.59 407.37 1514.73 411.157 1566.01 395.243C1591.08 387.513 1615.32 374.864 1637.18 358.104C1640.84 355.296 1644.45 352.368 1648 349.323V347.952Z" fill="url(#paint15_linear_2_2481)"/>
<path d="M1648 362.279C1627.17 379.758 1601.33 396.064 1570.43 406.106C1518.49 422.963 1460.38 420.233 1404.19 417.589C1374 416.17 1342.8 414.704 1312.95 416.297C1279.44 418.086 1251.2 423.629 1226.62 433.245C1178.26 452.161 1147.96 479.302 1118.66 505.547L1118.5 505.689C1073.18 546.321 1026.31 588.327 911.195 602.819C830.622 612.86 762.941 599.104 691.289 584.538C587.744 563.488 480.674 541.724 326.58 593.223C273.548 610.944 222.192 637.461 174.888 671.546C136.789 698.944 100.774 731.427 67.8414 768.098C36.4722 803.025 13.873 835.207 0 856.878V858.707C13.7487 837.096 36.592 804.351 68.5835 768.728C120.23 711.232 206.939 634.291 326.737 594.26C480.527 542.854 587.46 564.592 690.871 585.615L691.02 585.645C727.058 592.968 761.105 599.886 797.186 603.917C838.143 608.487 874.344 608.481 911.113 603.898C938.851 600.41 963.297 595.322 985.848 588.346C1005.93 582.135 1024.03 574.559 1041.17 565.186C1072.99 547.787 1096.43 526.769 1119.11 506.44L1119.12 506.428L1119.12 506.426L1119.12 506.425C1148.37 480.213 1178.6 453.107 1226.82 434.249C1281.36 412.916 1343.65 415.84 1403.9 418.672L1403.92 418.673C1460.2 421.319 1518.4 424.054 1570.54 407.13C1595.27 399.098 1619.11 386.328 1640.59 369.605C1643.08 367.67 1645.55 365.68 1648 363.635V362.279Z" fill="url(#paint16_linear_2_2481)"/>
<path d="M1648 374.358C1627.77 390.999 1603.21 406.393 1574.5 416.144C1524.55 433.1 1467.7 431.528 1412.73 430.007L1412.68 430.005C1351.68 428.303 1288.59 426.543 1233.15 449.628C1212.19 458.302 1192.05 469.967 1173.45 484.206C1156.6 497.072 1141.73 511.22 1127.35 524.902L1127.34 524.905L1127.34 524.909C1082.69 567.386 1036.53 611.292 921.88 628.866C841.249 641.074 772.983 628.464 700.707 615.114L700.671 615.108L700.636 615.101C597.056 595.971 489.946 576.189 337.332 630.037C284.57 648.648 233.974 676.227 186.92 711.998C149.292 740.613 113.846 774.51 81.5701 812.742C31.5197 872.028 4.60602 923.661 0 932.826V934.483L0.254425 934.562C0.519956 934.005 27.5045 878.297 82.3418 813.337C132.951 753.389 218.3 673.103 337.5 631.057C489.836 577.308 596.814 597.071 700.266 616.183L700.271 616.184C736.71 622.918 771.131 629.277 807.486 632.6C848.677 636.374 885.008 635.533 921.823 629.959C1036.88 612.302 1083.22 568.22 1128.01 525.601L1128.01 525.597C1157.93 497.141 1186.18 470.263 1233.4 450.608C1288.59 427.646 1351.58 429.375 1412.48 431.063L1412.56 431.065C1440.1 431.828 1468.57 432.616 1495.79 431.07C1526.35 429.335 1552.15 424.78 1574.66 417.136C1598.73 408.961 1621.91 396.21 1643.58 379.224C1645.06 378.062 1646.53 376.882 1648 375.681V374.358Z" fill="url(#paint17_linear_2_2481)"/>
<path d="M1648 386.382C1628.43 402.189 1605.19 416.71 1578.57 426.168C1530.58 443.225 1477.46 442.78 1421.23 442.307L1421.18 442.307C1359.53 441.789 1295.78 441.254 1239.72 466.048C1219.08 475.131 1199.37 487.232 1181.34 501.89C1164.88 515.201 1150.32 529.885 1136.24 544.088C1092.27 588.428 1046.8 634.276 932.545 655.017C851.827 669.422 782.941 657.964 710.012 645.831L709.971 645.824H709.97C658.758 637.304 605.803 628.494 547.112 628.889C515.427 629.091 484.944 631.918 453.919 637.516C418.961 643.82 384.353 653.444 348.075 666.928C295.573 686.432 245.395 715.235 198.94 752.531C161.783 782.367 126.905 817.671 95.2884 857.466C41.4686 925.226 15.383 983.301 15.1268 983.879L16.1079 984.141C16.3642 983.563 42.3759 925.615 96.1091 857.994C145.698 795.613 229.676 711.992 348.263 667.936C499.138 611.866 606.149 629.667 709.635 646.886C782.656 659.035 851.623 670.509 932.526 656.069C1047.19 635.264 1092.82 589.252 1136.93 544.756C1166.16 515.277 1193.77 487.435 1239.98 467.015C1295.81 442.346 1359.43 442.878 1420.96 443.392L1421.3 443.395C1448.19 443.618 1476.02 443.85 1502.44 441.89C1532.15 439.686 1557.11 434.879 1578.76 427.188C1602.19 418.865 1624.99 405.974 1646.55 388.891C1647.03 388.507 1647.52 388.12 1648 387.732V386.382Z" fill="url(#paint18_linear_2_2481)"/>
<path d="M1648 398.427C1629.17 413.395 1607.26 427.064 1582.67 436.214C1536.58 453.357 1484.65 453.922 1429.68 454.517C1367.4 455.187 1303.01 455.891 1246.3 482.417C1200.89 503.662 1173.84 532.554 1145.21 563.135L1145.21 563.138C1101.91 609.391 1057.14 657.207 943.253 681.082C862.47 697.713 792.961 687.417 719.384 676.518L719.378 676.517C668.184 668.933 615.239 661.105 556.69 662.499C525.094 663.26 494.726 666.595 463.889 672.697C429.138 679.573 394.778 689.734 358.857 703.768C306.614 724.17 256.867 754.201 210.998 793.019C174.298 824.07 139.997 860.785 109.032 902.145C56.3162 972.559 31.2382 1032.85 30.9912 1033.45L31.9871 1033.68C32.2341 1033.08 57.249 972.938 109.856 902.674C158.406 837.825 241.047 750.849 359.054 704.772C508.46 646.41 615.486 662.261 718.987 677.59L719.011 677.593C792.681 688.529 862.273 698.838 943.25 682.164C1057.55 658.2 1102.48 610.214 1145.92 563.808C1174.45 533.332 1201.42 504.536 1246.59 483.406C1303.06 456.976 1367.31 456.276 1429.46 455.599L1429.49 455.599C1484.56 455.003 1536.57 454.437 1582.88 437.223C1605.13 428.944 1627.03 416.345 1648 399.766V398.427Z" fill="url(#paint19_linear_2_2481)"/>
<path d="M1648 410.468C1629.99 424.595 1609.42 437.434 1586.76 446.258C1542.54 463.478 1491.83 465.01 1438.17 466.631L1438.09 466.633C1375.23 468.522 1310.23 470.478 1252.87 498.851C1208.53 520.781 1182.16 550.636 1154.25 582.247L1154.24 582.252C1111.62 630.516 1067.54 680.427 953.935 707.21C872.95 726.307 802.696 717.148 728.321 707.448C677.209 700.783 624.361 693.893 566.023 696.282C534.518 697.572 504.32 701.391 473.69 707.987C439.187 715.416 405.127 726.099 369.602 740.655C317.608 761.932 268.284 793.2 223.001 833.53C186.778 865.814 153.046 903.94 122.742 946.863C72.2785 1018.32 48.143 1079.69 46.8694 1082.93C46.8408 1083 46.8238 1083.04 46.8182 1083.06L47.8272 1083.25C48.0649 1082.63 72.0909 1020.29 123.585 947.361C171.111 880.063 252.401 789.745 369.823 741.652C517.598 681.095 624.541 695.032 727.96 708.526C802.433 718.236 872.789 727.396 953.964 708.268C1005 696.236 1046.66 678.311 1081.34 653.475C1112.06 631.474 1133.88 606.764 1154.99 582.862L1155 582.852C1182.81 551.359 1209.08 521.61 1253.16 499.805C1310.27 471.552 1375.14 469.601 1437.88 467.715L1437.89 467.715C1491.7 466.099 1542.54 464.572 1586.97 447.263C1607.58 439.235 1628.09 427.31 1648 411.785V410.468Z" fill="url(#paint20_linear_2_2481)"/>
<path d="M1648 422.492C1630.85 435.782 1611.63 447.815 1590.84 456.299C1548.42 473.612 1498.85 476.055 1446.37 478.639L1446.31 478.642C1382.91 481.766 1317.34 484.998 1259.4 515.251C1216.15 537.83 1190.46 568.594 1163.27 601.163L1163.26 601.174L1163.26 601.176C1121.31 651.426 1077.93 703.387 964.602 733.311C883.563 754.709 812.663 746.737 737.607 738.294L737.562 738.289C686.503 732.547 633.706 726.608 575.547 729.988C544.13 731.803 514.056 736.143 483.611 743.224C449.282 751.2 415.517 762.42 380.342 777.518C328.619 799.706 279.73 832.183 235.036 874.056C199.286 907.542 166.128 947.079 136.47 991.561C85.9888 1067.3 62.8944 1132.01 62.6679 1132.66L63.69 1132.82C63.9184 1132.18 86.9702 1067.6 137.359 992.004C183.85 922.263 263.783 828.612 380.583 778.511C526.898 715.721 633.846 727.749 737.262 739.38L737.265 739.38C812.418 747.833 883.424 755.806 964.665 734.366C1015.55 720.93 1057.04 701.657 1091.44 675.435C1121.89 652.247 1143.31 626.584 1164.03 601.769L1164.06 601.736C1191.15 569.288 1216.73 538.643 1259.73 516.2C1317.45 486.074 1382.9 482.85 1446.19 479.732C1498.77 477.144 1548.44 474.695 1591.06 457.302C1610.08 449.541 1629.19 438.287 1648 423.794V422.492Z" fill="url(#paint21_linear_2_2481)"/>
<path d="M1648 434.529C1631.78 446.981 1613.91 458.224 1594.91 466.351C1554.26 483.752 1505.84 487.066 1454.57 490.574L1454.53 490.577C1390.6 494.954 1324.49 499.48 1265.96 531.673C1223.78 554.863 1198.78 586.52 1172.32 620.036L1172.31 620.04L1172.31 620.041C1131.05 672.289 1088.36 726.329 975.286 759.416C894.202 783.144 822.656 776.378 746.914 769.196C695.882 764.357 643.106 759.362 585.091 763.725C553.756 766.083 523.809 770.906 493.555 778.477C459.44 787.01 425.917 798.751 391.098 814.387C339.634 837.461 291.184 871.148 247.068 914.561C211.79 949.273 179.205 990.213 150.199 1036.27C129.379 1069.46 111.126 1103.83 95.6392 1138.98C84.8176 1163.62 79.3074 1179.92 78.5996 1182.02L78.597 1182.02L78.5415 1182.19C78.5303 1182.22 78.5237 1182.24 78.5217 1182.24L79.5539 1182.38C79.773 1181.72 101.824 1114.95 151.094 1036.7C196.563 964.491 275.145 867.491 391.341 815.382C536.222 750.363 643.165 760.488 746.583 770.28L746.599 770.282C822.44 777.465 894.078 784.249 975.37 760.464C1026.15 745.615 1067.43 724.968 1101.59 697.351C1131.75 672.972 1152.77 646.365 1173.09 620.637L1173.12 620.592L1173.16 620.541C1199.52 587.17 1224.43 555.623 1266.32 532.598C1324.62 500.54 1390.61 496.024 1454.43 491.659L1454.44 491.658C1505.8 488.142 1554.32 484.82 1595.17 467.342C1612.63 459.863 1630.35 449.286 1648 435.82V434.529Z" fill="url(#paint22_linear_2_2481)"/>
<path d="M1648 446.57C1632.77 458.167 1616.28 468.62 1599.02 476.369C1560.08 493.864 1512.8 498.004 1462.72 502.39L1462.6 502.4C1430.9 505.177 1398.12 508.047 1365.95 514.488C1329.52 521.776 1298.95 532.752 1272.5 548.061C1231.44 571.806 1207.13 604.33 1181.41 638.75L1181.38 638.781L1181.38 638.785L1181.38 638.786C1140.79 693.083 1098.82 749.236 985.956 785.511C904.846 811.579 832.656 806.017 756.229 800.13L756.226 800.129L756.171 800.125C705.194 796.201 652.472 792.142 594.642 797.48C563.391 800.365 533.577 805.685 503.498 813.737C469.582 822.82 436.333 835.085 401.849 851.24C350.645 875.216 302.616 910.147 259.097 955.062C224.29 990.987 192.266 1033.34 163.936 1080.95C138.729 1123.3 121.161 1162.06 110.863 1187.12C108.979 1191.7 107.263 1196.01 105.712 1200H106.832C117.697 1172.13 136.619 1128.8 164.851 1081.36C209.284 1006.71 286.518 906.352 402.141 852.215C545.593 785.015 652.528 793.254 755.937 801.227C832.477 807.125 904.77 812.695 986.099 786.556C1036.74 770.28 1077.84 748.249 1111.75 719.211C1141.64 693.605 1162.26 666.024 1182.2 639.352L1182.2 639.351L1182.22 639.314C1207.86 605.009 1232.09 572.603 1272.91 548.985C1331.75 514.943 1398.25 509.118 1462.55 503.487C1512.73 499.091 1560.13 494.938 1599.27 477.373C1615.22 470.218 1631.56 460.322 1648 447.868V446.57Z" fill="url(#paint23_linear_2_2481)"/>
<path d="M1648 458.663C1633.81 469.405 1618.69 479.08 1603.09 486.428C1565.81 503.99 1519.6 508.925 1470.67 514.147L1469.82 514.238C1438.21 517.628 1405.58 521.129 1373.39 528.26C1336.6 536.412 1305.75 548.255 1279.08 564.465C1239.1 588.772 1215.49 622.129 1190.5 657.447L1190.5 657.449C1152.46 711.202 1109.34 772.128 996.656 811.62C915.553 840.059 842.746 835.723 765.647 831.131L765.559 831.126C714.593 828.091 661.886 824.955 604.201 831.268C573.036 834.669 543.349 840.483 513.452 849.019C479.728 858.647 446.733 871.443 412.599 888.105C361.656 912.974 314.057 949.133 271.123 995.574C236.788 1032.71 205.345 1076.48 177.665 1125.65C162.45 1152.68 150.133 1178.28 140.599 1200H141.718C151.447 1177.82 163.667 1152.53 178.604 1126C222.007 1048.9 297.899 945.219 412.9 889.066C554.943 819.695 661.865 826.057 765.265 832.21L765.279 832.211C842.502 836.821 915.454 841.152 996.802 812.639C1047.35 794.923 1088.27 771.495 1121.91 741.015C1151.54 714.164 1171.76 685.596 1191.32 657.97L1191.33 657.947L1191.33 657.945C1216.24 622.755 1239.76 589.516 1279.48 565.368C1338.83 529.289 1405.79 522.141 1470.54 515.229L1470.55 515.229C1519.58 509.996 1565.89 505.051 1603.37 487.395C1617.84 480.578 1632.8 471.37 1648 459.922V458.663Z" fill="url(#paint24_linear_2_2481)"/>
<path d="M1648 470.783C1634.91 480.655 1621.17 489.549 1607.18 496.467C1571.51 514.129 1526.34 519.815 1478.54 525.832C1446.55 529.855 1413.48 534.018 1380.74 541.981C1343.6 551.019 1312.5 563.716 1285.63 580.871C1246.76 605.662 1223.88 639.796 1199.65 675.941L1199.59 676.03C1162.22 731.804 1119.87 794.981 1007.34 837.725C926.221 868.545 852.724 865.448 774.92 862.168L774.733 862.16C723.853 860.023 671.239 857.812 613.756 865.05C582.679 868.984 553.121 875.278 523.403 884.289C489.875 894.454 457.145 907.754 423.336 924.948C372.667 950.713 325.498 988.095 283.152 1036.06C249.281 1074.44 218.409 1119.61 191.386 1170.34C185.996 1180.46 180.986 1190.39 176.348 1200H177.482C182.075 1190.49 187.034 1180.68 192.366 1170.67C234.741 1091.12 309.259 984.085 423.686 925.924C564.35 854.394 671.262 858.898 774.654 863.256C852.566 866.556 926.162 869.657 1007.52 838.753C1057.99 819.571 1098.73 794.725 1132.1 762.783C1161.42 734.726 1181.2 705.229 1200.35 676.677L1200.47 676.502C1224.62 640.457 1247.46 606.408 1286.08 581.761C1345.85 543.62 1416.21 534.754 1478.3 526.931L1478.44 526.913C1526.36 520.883 1571.62 515.182 1607.49 497.433C1620.52 490.984 1634.09 482.475 1648 472.039V470.783Z" fill="url(#paint25_linear_2_2481)"/>
<path d="M1648 482.94C1636.05 491.937 1623.69 500.054 1611.26 506.52C1577.17 524.258 1533.04 530.662 1486.34 537.439L1486.13 537.469C1454.1 542.12 1420.97 546.929 1388.04 555.657C1350.58 565.585 1319.23 579.2 1292.2 597.284C1254.4 622.577 1232.18 657.505 1208.66 694.48L1208.65 694.494C1171.94 752.207 1130.34 817.619 1018.02 863.834C936.959 896.855 862.93 895.041 784.538 893.117C733.597 891.865 680.921 890.575 623.526 898.828C592.493 903.284 563.057 910.074 533.494 919.572C500.134 930.291 467.63 944.115 434.124 961.836C383.705 988.474 336.969 1027.09 295.189 1076.57C265.029 1112.32 237.393 1153.78 212.898 1200H214.042C256.544 1120.03 327.584 1019.27 434.463 962.759C573.887 889.022 680.849 891.649 784.289 894.189L784.392 894.192C862.878 896.11 937.006 897.922 1018.25 864.814C1068.6 844.1 1109.16 817.783 1142.25 784.358C1171.33 754.994 1190.76 724.462 1209.54 694.936C1232.98 658.084 1255.11 623.279 1292.67 598.151C1352.87 557.871 1423.7 547.594 1486.19 538.531L1486.26 538.521C1533.08 531.725 1577.31 525.305 1611.6 507.465C1623.22 501.417 1635.4 493.628 1648 484.195V482.94Z" fill="url(#paint26_linear_2_2481)"/>
<path d="M1648 495.16C1637.25 503.265 1626.26 510.596 1615.34 516.575C1582.75 534.411 1539.58 541.503 1493.87 549.011L1493.85 549.015L1493.67 549.043L1493.67 549.044C1461.57 554.319 1428.38 559.774 1395.25 569.283C1357.48 580.131 1325.92 594.664 1298.76 613.692C1262.04 639.433 1240.53 675.13 1217.76 712.922C1181.74 772.698 1140.91 840.448 1028.68 889.946C947.704 925.398 873.048 924.854 794.011 924.277L793.833 924.276C742.93 923.894 690.294 923.501 633.072 932.702C602.145 937.674 572.829 944.923 543.437 954.906C510.281 966.153 478.034 980.482 444.856 998.708C394.698 1026.26 348.393 1066.09 307.225 1117.1C287.026 1142.13 268.03 1169.86 250.427 1200H251.647C294.275 1127.37 357.255 1047.94 445.229 999.62C583.287 923.779 690.204 924.575 793.61 925.347C872.816 925.947 947.643 926.511 1028.93 890.925C1141.55 841.274 1182.51 773.31 1218.64 713.355L1218.65 713.341C1241.34 675.672 1262.78 640.101 1299.24 614.538C1359.79 572.093 1430.98 560.4 1493.79 550.084C1539.61 542.559 1582.88 535.446 1615.69 517.494C1625.95 511.877 1636.75 504.819 1648 496.391V495.16Z" fill="url(#paint27_linear_2_2481)"/>
<path d="M1648 507.435C1638.48 514.628 1628.88 521.159 1619.42 526.613C1588.28 544.571 1546.03 552.323 1501.29 560.529C1438.06 572.127 1366.4 585.276 1305.32 630.102C1269.7 656.239 1248.91 692.648 1226.91 731.193L1226.86 731.268C1191.55 793.132 1151.53 863.232 1039.39 916.042C958.37 953.992 882.986 954.709 803.181 955.466L803.081 955.467C752.242 955.954 699.679 956.457 642.666 966.591C611.829 972.069 582.639 979.804 553.432 990.237C520.47 1002.01 488.482 1016.84 455.635 1035.56C405.733 1064.02 359.862 1105.07 319.28 1157.6C308.933 1171 298.92 1185.15 289.269 1200H290.604C330.842 1138.35 385.067 1076.93 456.025 1036.48C592.707 958.55 699.598 957.535 802.969 956.553H802.977C882.903 955.8 958.407 955.083 1039.68 917.014C1152.21 864.032 1192.35 793.71 1227.78 731.664L1227.78 731.652L1227.8 731.616C1249.74 693.191 1270.46 656.897 1305.84 630.931C1366.65 586.295 1438.16 573.177 1501.24 561.602L1501.31 561.589C1546.15 553.365 1588.49 545.598 1619.81 527.529C1629.14 522.147 1638.61 515.724 1648 508.655V507.435Z" fill="url(#paint28_linear_2_2481)"/>
<path d="M1648 519.796C1639.76 526.057 1631.54 531.775 1623.5 536.662C1593.79 554.72 1552.39 563.129 1508.59 572.01L1508.5 572.028C1445.06 584.892 1373.14 599.476 1311.89 646.516C1296.1 658.638 1282.49 673.414 1269.06 693.011C1257.11 710.44 1246.84 729.431 1235.96 749.542L1235.95 749.57C1201.35 813.537 1162.13 886.039 1050.08 942.147C969.081 982.606 893.031 984.603 812.515 986.708C761.685 988.042 709.125 989.424 652.248 1000.49C621.503 1006.48 592.444 1014.68 563.414 1025.57C530.648 1037.89 498.914 1053.2 466.398 1072.42C416.765 1101.76 371.316 1144.04 331.322 1198.1C330.855 1198.73 330.388 1199.36 329.922 1200H331.358C367.106 1151.44 411.775 1105.86 466.791 1073.34C602.13 993.336 708.987 990.526 812.323 987.809L812.338 987.808C892.982 985.688 969.152 983.685 1050.39 943.107C1162.87 886.771 1202.19 814.059 1236.87 749.889L1236.87 749.888C1258.07 710.697 1278.09 673.674 1312.41 647.317C1373.45 600.46 1445.24 585.906 1508.58 573.07C1552.51 564.168 1594 555.757 1623.92 537.561C1631.83 532.755 1639.91 527.153 1648 521.023V519.796Z" fill="url(#paint29_linear_2_2481)"/>
<path d="M1648 532.257C1641.08 537.561 1634.24 542.438 1627.59 546.709C1599.3 564.88 1560.69 573.458 1515.99 583.39L1515.72 583.449L1515.72 583.45C1452.03 597.582 1379.84 613.602 1318.45 662.926C1303.14 675.212 1289.97 690.213 1277 710.127C1265.47 727.848 1255.54 747.231 1245.04 767.731L1245.02 767.776L1245.02 767.778C1211.15 833.875 1172.77 908.786 1060.76 968.252C979.813 1011.24 903.091 1014.53 821.873 1018.01L821.841 1018.01C771.055 1020.19 718.545 1022.45 661.848 1034.44C631.185 1040.94 602.258 1049.6 573.381 1060.95C540.812 1073.76 509.327 1089.57 477.121 1109.29C439.832 1132.12 405.025 1162.54 373.246 1200H374.74C403.894 1165.67 437.968 1134.43 477.552 1110.2C611.566 1028.13 718.383 1023.54 821.679 1019.1L821.695 1019.1C903.052 1015.6 979.895 1012.3 1061.09 969.19C1111.24 942.553 1151.14 910.4 1183.08 870.854C1211.04 836.245 1228.79 801.586 1245.96 768.067L1245.96 768.065L1245.97 768.05L1245.99 768.008C1266.42 728.121 1285.74 690.412 1319 663.701C1380.15 614.588 1452.18 598.601 1515.73 584.498L1515.79 584.484C1560.7 574.51 1599.48 565.896 1628.02 547.582C1634.53 543.401 1641.23 538.641 1648 533.47V532.257Z" fill="url(#paint30_linear_2_2481)"/>
<path d="M1648 550.718C1645.9 552.285 1643.8 553.8 1641.72 555.257C1611.75 576.222 1569.78 586.385 1525.34 597.145L1525.33 597.148C1464.06 611.977 1394.64 628.788 1335.27 677.517C1319.36 690.579 1305.87 706.228 1292.8 726.766C1281.18 745.018 1271.4 764.763 1261.05 785.668L1261.05 785.672L1261.03 785.706C1228.71 850.98 1192.07 924.959 1082.46 985.946C1001.61 1030.94 924.998 1035.66 843.885 1040.66L843.863 1040.67L843.86 1040.67C794.328 1043.72 743.094 1046.87 688.175 1059.35C658.487 1066.09 630.537 1074.88 602.724 1086.23C571.348 1099.02 541.072 1114.65 510.224 1134C482.17 1151.69 455.657 1173.78 430.925 1200H432.407C455.506 1175.53 481.498 1153.28 510.664 1134.88C639.065 1054.36 743.106 1047.95 843.684 1041.76L843.757 1041.76H843.759C924.996 1036.74 1001.73 1031.99 1082.83 986.873C1192.83 925.673 1229.57 851.478 1261.99 786.019L1261.99 786.017L1261.99 786.015C1282.19 745.225 1301.27 706.701 1335.84 678.305C1394.96 629.771 1464.23 612.997 1525.35 598.197C1569.91 587.409 1612 577.219 1642.2 556.105C1644.13 554.76 1646.06 553.367 1648 551.93V550.718Z" fill="url(#paint31_linear_2_2481)"/>
<path d="M1648 569.329C1617.32 589.468 1577.47 599.916 1535.47 610.93L1535.32 610.968C1505.21 618.864 1474.06 627.034 1442.91 639.333C1407.49 653.325 1377.78 670.594 1352.12 692.132C1315.97 722.459 1297.1 761.931 1277.12 803.72C1246.32 868.161 1211.4 941.193 1104.18 1003.64C1023.52 1050.63 947.082 1056.72 866.149 1063.17L866.099 1063.17C817.78 1067.02 767.801 1071 714.61 1083.96C685.865 1090.96 658.867 1099.9 632.09 1111.25C601.873 1124.07 572.848 1139.58 543.314 1158.68C524.946 1170.55 507.303 1184.35 490.457 1200H491.963C507.914 1185.22 525.151 1171.59 543.762 1159.55C666.603 1080.15 767.972 1072.06 866.009 1064.24L866.016 1064.24C947.084 1057.8 1023.67 1051.68 1104.58 1004.56C1212.18 941.872 1247.19 868.647 1278.09 804.022C1298 762.373 1316.81 723.036 1352.71 692.911C1409.91 644.925 1476.56 627.448 1535.37 612.028L1535.39 612.023L1535.65 611.955C1577.51 600.964 1617.23 590.535 1648 570.496V569.329Z" fill="url(#paint32_linear_2_2481)"/>
<path d="M1648 587.339C1618.38 604.39 1582.91 614.405 1545.82 624.875L1545.72 624.902C1516.62 633.112 1486.53 641.604 1456.55 654.055C1422.51 668.193 1393.86 685.427 1368.97 706.742C1331.48 738.841 1312.92 779.106 1293.28 821.733L1293.27 821.758C1263.95 885.375 1230.73 957.464 1125.91 1021.33C1045.41 1070.38 969.133 1077.93 888.385 1085.9C841.278 1090.55 792.561 1095.37 741.088 1108.78C713.29 1116.02 687.24 1125.06 661.499 1136.42C632.459 1149.24 604.627 1164.58 576.395 1183.36C568.591 1188.56 560.93 1194.1 553.417 1200H554.998C562.047 1194.5 569.328 1189.23 576.847 1184.23C694.241 1106.16 792.881 1096.41 888.269 1086.98L888.303 1086.98H888.304C969.181 1078.98 1045.58 1071.43 1126.33 1022.23C1173.31 993.607 1210.04 960.895 1238.62 922.22C1263.74 888.238 1279.24 854.601 1294.23 822.07L1294.25 822.036C1313.83 779.543 1332.32 739.406 1369.57 707.504C1425.01 660.034 1489.18 641.922 1545.81 625.946C1582.87 615.489 1618.3 605.491 1648 588.479V587.339Z" fill="url(#paint33_linear_2_2481)"/>
<path d="M1648 605.122C1620.38 619.612 1589.07 629.071 1556.53 638.903L1556.45 638.926C1528.33 647.421 1499.25 656.21 1470.36 668.792C1437.62 683.054 1409.96 700.245 1385.8 721.344C1346.95 755.289 1328.75 796.345 1309.48 839.808L1309.48 839.812L1309.48 839.817C1281.64 902.605 1250.09 973.788 1147.63 1039.02C1067.35 1090.14 991.341 1099.17 910.831 1108.73L910.7 1108.74C864.823 1114.18 817.383 1119.81 767.62 1133.66C740.77 1141.14 715.675 1150.29 690.93 1161.64C667.22 1172.51 644.402 1185.12 621.537 1200H623.358C729.593 1131.32 821.49 1120.41 910.486 1109.84L910.681 1109.82C991.336 1100.24 1067.51 1091.2 1148.07 1039.91C1194 1010.66 1229.71 977.766 1257.21 939.366C1281.42 905.58 1296.18 872.287 1310.45 840.087L1310.46 840.071L1310.46 840.067C1329.67 796.748 1347.81 755.829 1386.42 722.101C1440.19 675.123 1499.33 657.246 1556.56 639.964L1556.57 639.962C1589.06 630.143 1620.34 620.693 1648 606.24V605.122Z" fill="url(#paint34_linear_2_2481)"/>
<path d="M1648 622.913C1623.04 635.124 1595.83 643.902 1567.7 652.973L1567.5 653.036C1540.32 661.79 1512.22 670.844 1484.37 683.541C1452.84 697.91 1426.11 715.057 1402.64 735.951C1362.41 771.779 1344.61 813.604 1325.77 857.883C1299.38 919.87 1269.48 990.128 1169.33 1056.71C1089.23 1109.99 1013.4 1120.53 933.12 1131.7L933.098 1131.7L933.092 1131.7C857.838 1142.16 780.449 1152.93 694.79 1200H696.864C781.652 1153.82 858.392 1143.15 933.026 1132.77L933.115 1132.76C973.666 1127.12 1011.97 1121.79 1051.12 1111.07C1095.48 1098.93 1133.19 1081.93 1169.81 1057.58C1214.72 1027.71 1249.41 994.659 1275.87 956.527C1299.17 922.932 1313.19 889.985 1326.75 858.126L1326.76 858.12L1326.76 858.106C1345.54 813.981 1363.28 772.303 1403.27 736.692C1455.47 690.202 1512.46 671.839 1567.58 654.081L1567.63 654.064C1595.77 645 1623 636.226 1648 624.026V622.913Z" fill="url(#paint35_linear_2_2481)"/>
<path d="M1648 640.855C1626.06 651.054 1602.77 659.026 1578.84 667.217C1525.56 685.445 1470.46 704.309 1419.49 750.559C1377.87 788.322 1360.5 830.886 1342.13 875.955C1317.18 937.152 1288.9 1006.51 1191.06 1074.4C1111.19 1129.83 1035.64 1141.94 955.64 1154.77L955.566 1154.78C897.886 1164.02 838.913 1173.46 776.312 1200H778.88C840.497 1174.26 898.636 1164.94 955.524 1155.83L955.953 1155.76C996.179 1149.31 1034.19 1143.22 1073.13 1131.65C1094.14 1125.42 1113.38 1118.18 1131.96 1109.53C1152.55 1099.98 1172.51 1088.49 1191.55 1075.25C1235.44 1044.8 1269.16 1011.57 1294.56 973.696C1316.99 940.287 1330.28 907.69 1343.13 876.172L1343.14 876.155C1361.45 831.245 1378.75 788.823 1420.12 751.287C1470.87 705.246 1525.84 686.429 1579 668.23C1602.86 660.069 1626.09 652.122 1648 641.965V640.855Z" fill="url(#paint36_linear_2_2481)"/>
<path d="M1648 659.009C1629.46 667.313 1610.17 674.307 1590.45 681.458L1590.43 681.466C1539.04 700.103 1485.89 719.378 1436.33 765.167C1393.3 804.906 1376.43 848.196 1358.58 894.027C1333.88 957.405 1308.35 1022.94 1212.78 1092.1C1133.15 1149.73 1057.88 1163.43 978.197 1177.94L978.19 1177.94C944.604 1184.05 910.566 1190.25 875.712 1200H879.61C913.095 1190.86 945.841 1184.9 978.168 1179.01L978.339 1178.98C1018.42 1171.68 1056.29 1164.78 1095.2 1152.3C1116.16 1145.57 1135.35 1137.88 1153.87 1128.78C1174.45 1118.68 1194.36 1106.67 1213.28 1092.94C1256.16 1061.89 1288.9 1028.51 1313.32 990.877C1334.87 957.664 1347.43 925.411 1359.58 894.233L1359.59 894.204C1377.39 848.537 1394.19 805.405 1436.97 765.892C1486.33 720.294 1539.35 701.068 1590.62 682.476L1590.63 682.473C1610.29 675.349 1629.51 668.379 1648 660.114V659.009Z" fill="url(#paint37_linear_2_2481)"/>
<path d="M1648 677.464C1633.16 683.959 1617.93 689.793 1602.44 695.727L1602.43 695.732L1602.43 695.733L1602.42 695.735L1602.35 695.764L1602.34 695.767C1552.74 714.768 1501.46 734.414 1453.2 779.778C1408.76 821.547 1392.43 865.533 1375.14 912.102C1351.9 974.682 1327.85 1039.4 1234.51 1109.8C1157.14 1168.15 1083.99 1184.19 1006.89 1200H1012.03C1046.69 1192.86 1082.25 1185.1 1117.31 1172.99C1138.2 1165.77 1157.33 1157.61 1175.8 1148.03C1196.37 1137.38 1216.21 1124.84 1235.02 1110.61C1276.93 1079.01 1308.68 1045.46 1332.14 1008.05C1352.84 974.998 1364.69 943.111 1376.14 912.268L1376.14 912.257C1393.38 865.85 1409.66 822.01 1453.84 780.483C1501.9 735.31 1553.05 715.709 1602.53 696.756L1602.66 696.706C1618.07 690.799 1633.23 684.992 1648 678.535V677.464Z" fill="url(#paint38_linear_2_2481)"/>
<path d="M1648 696.192C1636.98 700.977 1625.79 705.496 1614.46 710.073L1614.4 710.097L1614.39 710.1L1614.35 710.116C1566.5 729.446 1517.01 749.438 1470.01 794.378C1424.18 838.183 1408.42 882.822 1391.75 930.069L1391.72 930.144L1391.72 930.152C1369.91 991.965 1347.35 1055.88 1256.2 1127.49C1209.33 1164.3 1164.05 1185.28 1118.5 1200H1121.56C1127.54 1198.03 1133.51 1195.95 1139.46 1193.74C1160.27 1186.01 1179.35 1177.37 1197.75 1167.31C1218.3 1156.09 1238.07 1143.02 1256.76 1128.29C1297.7 1096.12 1328.52 1062.41 1350.98 1025.24C1370.85 992.356 1381.99 960.817 1392.74 930.31C1409.37 883.194 1425.07 838.691 1470.68 795.074C1517.48 750.328 1566.86 730.388 1614.61 711.105L1614.62 711.103C1626 706.508 1637.1 702.026 1648 697.296V696.192Z" fill="url(#paint39_linear_2_2481)"/>
<path d="M1648 715.357C1640.96 718.437 1633.85 721.455 1626.69 724.496L1626.59 724.542C1580.39 744.171 1532.63 764.466 1486.83 808.962C1439.59 854.896 1424.46 900.179 1408.44 948.113L1408.42 948.161C1388.01 1009.24 1366.91 1072.37 1277.92 1145.16C1249.12 1168.71 1220.48 1186.27 1192.06 1200H1194.57C1203.15 1195.79 1211.5 1191.35 1219.72 1186.62C1240.25 1174.81 1259.94 1161.19 1278.51 1145.95C1318.47 1113.27 1348.37 1079.4 1369.9 1042.41C1388.95 1009.69 1399.37 978.493 1409.46 948.323C1425.43 900.532 1440.51 855.403 1487.52 809.686C1533.15 765.325 1580.82 745.073 1626.93 725.488L1626.93 725.486C1634.06 722.461 1641.07 719.482 1648 716.455V715.357Z" fill="url(#paint40_linear_2_2481)"/>
<path d="M1648 734.986C1647.14 735.371 1646.28 735.757 1645.42 736.143L1644.01 736.771C1642.44 737.473 1640.86 738.175 1639.29 738.879L1639.18 738.925L1639.18 738.929C1594.54 758.84 1548.39 779.433 1503.69 823.59C1455.02 871.683 1440.54 917.587 1425.22 966.185C1406.2 1026.53 1386.52 1088.92 1299.64 1162.87C1282.82 1177.19 1266.06 1189.42 1249.37 1200H1251.23C1268.26 1189.1 1284.54 1177.02 1300.25 1163.64C1339.27 1130.42 1368.26 1096.39 1388.87 1059.59C1407.12 1027.01 1416.85 996.151 1426.26 966.313C1441.53 917.878 1455.96 872.118 1504.38 824.278C1548.87 780.306 1594.92 759.767 1639.44 739.907L1639.44 739.905C1642.28 738.637 1645.14 737.365 1648 736.082V734.986Z" fill="url(#paint41_linear_2_2481)"/>
<path d="M1648 755.195C1606.08 774.822 1562.85 795.718 1520.54 838.194C1470.46 888.472 1456.69 934.949 1442.11 984.15L1442.11 984.163L1442.11 984.166C1424.44 1043.81 1406.17 1105.48 1321.36 1180.56C1313.54 1187.48 1305.73 1193.95 1297.93 1200H1299.52C1307.14 1194.05 1314.61 1187.83 1321.96 1181.32C1360.07 1147.58 1388.18 1113.38 1407.89 1076.74C1425.35 1044.31 1434.39 1013.78 1443.14 984.264L1443.14 984.262C1457.67 935.22 1471.39 888.9 1521.22 838.874C1563.25 796.671 1606.28 775.828 1648 756.287V755.195Z" fill="url(#paint42_linear_2_2481)"/>
<path d="M1648 776.116C1611.58 794.301 1574.3 815.168 1537.38 852.803C1485.89 905.295 1472.87 952.315 1459.08 1002.1L1459.08 1002.11C1442.75 1061.08 1425.86 1122.06 1343.08 1198.26C1342.44 1198.84 1341.81 1199.42 1341.17 1200H1342.62C1342.99 1199.66 1343.36 1199.33 1343.73 1198.99C1380.92 1164.75 1408.16 1130.38 1426.99 1093.91C1443.68 1061.6 1452.05 1031.39 1460.13 1002.19C1473.87 952.576 1486.84 905.714 1538.08 853.479C1574.72 816.119 1611.79 795.33 1648 777.235V776.116Z" fill="url(#paint43_linear_2_2481)"/>
<path d="M1648 798.084C1617.13 814.858 1585.67 834.945 1554.22 867.414C1501.45 922.191 1489.21 969.685 1476.24 1019.97L1476.24 1019.98C1462.24 1074.23 1447.81 1130.2 1380.79 1200H1382.13C1410 1170.82 1431.05 1141.56 1446.16 1111.04C1462.09 1078.91 1469.78 1049.08 1477.22 1020.23L1477.27 1020.06C1490.19 969.945 1502.4 922.613 1554.9 868.102C1586.1 835.889 1617.34 815.895 1648 799.208V798.084Z" fill="url(#paint44_linear_2_2481)"/>
<path d="M1648 820.906C1622.68 836.214 1596.96 854.821 1571.08 882.018C1516.82 939.037 1505.4 987.046 1493.31 1037.87L1493.31 1037.88L1493.3 1037.91C1481.59 1087.06 1469.55 1137.64 1417.5 1200H1418.76C1470.62 1137.67 1482.65 1087.08 1494.35 1037.91C1506.39 987.274 1517.77 939.427 1571.78 882.674C1597.4 855.745 1622.89 837.259 1648 822.046V820.906Z" fill="url(#paint45_linear_2_2481)"/>
<defs>
<linearGradient id="paint0_linear_2_2481" x1="1648" y1="750.047" x2="-1.43244e-06" y2="750.047" gradientUnits="userSpaceOnUse">
<stop stop-color="#13294B"/>
<stop offset="0.395833" stop-color="#1D58A7"/>
<stop offset="0.723958" stop-color="#FF552E"/>
<stop offset="1" stop-color="#13294B"/>
</linearGradient>
<linearGradient id="paint1_linear_2_2481" x1="1648" y1="750.047" x2="-1.43244e-06" y2="750.047" gradientUnits="userSpaceOnUse">
<stop stop-color="#13294B"/>
<stop offset="0.395833" stop-color="#1D58A7"/>
<stop offset="0.723958" stop-color="#FF552E"/>
<stop offset="1" stop-color="#13294B"/>
</linearGradient>
<linearGradient id="paint2_linear_2_2481" x1="1648" y1="750.047" x2="-1.43244e-06" y2="750.047" gradientUnits="userSpaceOnUse">
<stop stop-color="#13294B"/>
<stop offset="0.395833" stop-color="#1D58A7"/>
<stop offset="0.723958" stop-color="#FF552E"/>
<stop offset="1" stop-color="#13294B"/>
</linearGradient>
<linearGradient id="paint3_linear_2_2481" x1="1648" y1="750.047" x2="-1.43244e-06" y2="750.047" gradientUnits="userSpaceOnUse">
<stop stop-color="#13294B"/>
<stop offset="0.395833" stop-color="#1D58A7"/>
<stop offset="0.723958" stop-color="#FF552E"/>
<stop offset="1" stop-color="#13294B"/>
</linearGradient>
<linearGradient id="paint4_linear_2_2481" x1="1648" y1="750.047" x2="-1.43244e-06" y2="750.047" gradientUnits="userSpaceOnUse">
<stop stop-color="#13294B"/>
<stop offset="0.395833" stop-color="#1D58A7"/>
<stop offset="0.723958" stop-color="#FF552E"/>
<stop offset="1" stop-color="#13294B"/>
</linearGradient>
<linearGradient id="paint5_linear_2_2481" x1="1648" y1="750.047" x2="-1.43244e-06" y2="750.047" gradientUnits="userSpaceOnUse">
<stop stop-color="#13294B"/>
<stop offset="0.395833" stop-color="#1D58A7"/>
<stop offset="0.723958" stop-color="#FF552E"/>
<stop offset="1" stop-color="#13294B"/>
</linearGradient>
<linearGradient id="paint6_linear_2_2481" x1="1648" y1="750.047" x2="-1.43244e-06" y2="750.047" gradientUnits="userSpaceOnUse">
<stop stop-color="#13294B"/>
<stop offset="0.395833" stop-color="#1D58A7"/>
<stop offset="0.723958" stop-color="#FF552E"/>
<stop offset="1" stop-color="#13294B"/>
</linearGradient>
<linearGradient id="paint7_linear_2_2481" x1="1648" y1="750.047" x2="-1.43244e-06" y2="750.047" gradientUnits="userSpaceOnUse">
<stop stop-color="#13294B"/>
<stop offset="0.395833" stop-color="#1D58A7"/>
<stop offset="0.723958" stop-color="#FF552E"/>
<stop offset="1" stop-color="#13294B"/>
</linearGradient>
<linearGradient id="paint8_linear_2_2481" x1="1648" y1="750.047" x2="-1.43244e-06" y2="750.047" gradientUnits="userSpaceOnUse">
<stop stop-color="#13294B"/>
<stop offset="0.395833" stop-color="#1D58A7"/>
<stop offset="0.723958" stop-color="#FF552E"/>
<stop offset="1" stop-color="#13294B"/>
</linearGradient>
<linearGradient id="paint9_linear_2_2481" x1="1648" y1="750.047" x2="-1.43244e-06" y2="750.047" gradientUnits="userSpaceOnUse">
<stop stop-color="#13294B"/>
<stop offset="0.395833" stop-color="#1D58A7"/>
<stop offset="0.723958" stop-color="#FF552E"/>
<stop offset="1" stop-color="#13294B"/>
</linearGradient>
<linearGradient id="paint10_linear_2_2481" x1="1648" y1="750.047" x2="-1.43244e-06" y2="750.047" gradientUnits="userSpaceOnUse">
<stop stop-color="#13294B"/>
<stop offset="0.395833" stop-color="#1D58A7"/>
<stop offset="0.723958" stop-color="#FF552E"/>
<stop offset="1" stop-color="#13294B"/>
</linearGradient>
<linearGradient id="paint11_linear_2_2481" x1="1648" y1="750.047" x2="-1.43244e-06" y2="750.047" gradientUnits="userSpaceOnUse">
<stop stop-color="#13294B"/>
<stop offset="0.395833" stop-color="#1D58A7"/>
<stop offset="0.723958" stop-color="#FF552E"/>
<stop offset="1" stop-color="#13294B"/>
</linearGradient>
<linearGradient id="paint12_linear_2_2481" x1="1648" y1="750.047" x2="-1.43244e-06" y2="750.047" gradientUnits="userSpaceOnUse">
<stop stop-color="#13294B"/>
<stop offset="0.395833" stop-color="#1D58A7"/>
<stop offset="0.723958" stop-color="#FF552E"/>
<stop offset="1" stop-color="#13294B"/>
</linearGradient>
<linearGradient id="paint13_linear_2_2481" x1="1648" y1="750.047" x2="-1.43244e-06" y2="750.047" gradientUnits="userSpaceOnUse">
<stop stop-color="#13294B"/>
<stop offset="0.395833" stop-color="#1D58A7"/>
<stop offset="0.723958" stop-color="#FF552E"/>
<stop offset="1" stop-color="#13294B"/>
</linearGradient>
<linearGradient id="paint14_linear_2_2481" x1="1648" y1="750.047" x2="-1.43244e-06" y2="750.047" gradientUnits="userSpaceOnUse">
<stop stop-color="#13294B"/>
<stop offset="0.395833" stop-color="#1D58A7"/>
<stop offset="0.723958" stop-color="#FF552E"/>
<stop offset="1" stop-color="#13294B"/>
</linearGradient>
<linearGradient id="paint15_linear_2_2481" x1="1648" y1="750.047" x2="-1.43244e-06" y2="750.047" gradientUnits="userSpaceOnUse">
<stop stop-color="#13294B"/>
<stop offset="0.395833" stop-color="#1D58A7"/>
<stop offset="0.723958" stop-color="#FF552E"/>
<stop offset="1" stop-color="#13294B"/>
</linearGradient>
<linearGradient id="paint16_linear_2_2481" x1="1648" y1="750.047" x2="-1.43244e-06" y2="750.047" gradientUnits="userSpaceOnUse">
<stop stop-color="#13294B"/>
<stop offset="0.395833" stop-color="#1D58A7"/>
<stop offset="0.723958" stop-color="#FF552E"/>
<stop offset="1" stop-color="#13294B"/>
</linearGradient>
<linearGradient id="paint17_linear_2_2481" x1="1648" y1="750.047" x2="-1.43244e-06" y2="750.047" gradientUnits="userSpaceOnUse">
<stop stop-color="#13294B"/>
<stop offset="0.395833" stop-color="#1D58A7"/>
<stop offset="0.723958" stop-color="#FF552E"/>
<stop offset="1" stop-color="#13294B"/>
</linearGradient>
<linearGradient id="paint18_linear_2_2481" x1="1648" y1="750.047" x2="-1.43244e-06" y2="750.047" gradientUnits="userSpaceOnUse">
<stop stop-color="#13294B"/>
<stop offset="0.395833" stop-color="#1D58A7"/>
<stop offset="0.723958" stop-color="#FF552E"/>
<stop offset="1" stop-color="#13294B"/>
</linearGradient>
<linearGradient id="paint19_linear_2_2481" x1="1648" y1="750.047" x2="-1.43244e-06" y2="750.047" gradientUnits="userSpaceOnUse">
<stop stop-color="#13294B"/>
<stop offset="0.395833" stop-color="#1D58A7"/>
<stop offset="0.723958" stop-color="#FF552E"/>
<stop offset="1" stop-color="#13294B"/>
</linearGradient>
<linearGradient id="paint20_linear_2_2481" x1="1648" y1="750.047" x2="-1.43244e-06" y2="750.047" gradientUnits="userSpaceOnUse">
<stop stop-color="#13294B"/>
<stop offset="0.395833" stop-color="#1D58A7"/>
<stop offset="0.723958" stop-color="#FF552E"/>
<stop offset="1" stop-color="#13294B"/>
</linearGradient>
<linearGradient id="paint21_linear_2_2481" x1="1648" y1="750.047" x2="-1.43244e-06" y2="750.047" gradientUnits="userSpaceOnUse">
<stop stop-color="#13294B"/>
<stop offset="0.395833" stop-color="#1D58A7"/>
<stop offset="0.723958" stop-color="#FF552E"/>
<stop offset="1" stop-color="#13294B"/>
</linearGradient>
<linearGradient id="paint22_linear_2_2481" x1="1648" y1="750.047" x2="-1.43244e-06" y2="750.047" gradientUnits="userSpaceOnUse">
<stop stop-color="#13294B"/>
<stop offset="0.395833" stop-color="#1D58A7"/>
<stop offset="0.723958" stop-color="#FF552E"/>
<stop offset="1" stop-color="#13294B"/>
</linearGradient>
<linearGradient id="paint23_linear_2_2481" x1="1648" y1="750.047" x2="-1.43244e-06" y2="750.047" gradientUnits="userSpaceOnUse">
<stop stop-color="#13294B"/>
<stop offset="0.395833" stop-color="#1D58A7"/>
<stop offset="0.723958" stop-color="#FF552E"/>
<stop offset="1" stop-color="#13294B"/>
</linearGradient>
<linearGradient id="paint24_linear_2_2481" x1="1648" y1="750.047" x2="-1.43244e-06" y2="750.047" gradientUnits="userSpaceOnUse">
<stop stop-color="#13294B"/>
<stop offset="0.395833" stop-color="#1D58A7"/>
<stop offset="0.723958" stop-color="#FF552E"/>
<stop offset="1" stop-color="#13294B"/>
</linearGradient>
<linearGradient id="paint25_linear_2_2481" x1="1648" y1="750.047" x2="-1.43244e-06" y2="750.047" gradientUnits="userSpaceOnUse">
<stop stop-color="#13294B"/>
<stop offset="0.395833" stop-color="#1D58A7"/>
<stop offset="0.723958" stop-color="#FF552E"/>
<stop offset="1" stop-color="#13294B"/>
</linearGradient>
<linearGradient id="paint26_linear_2_2481" x1="1648" y1="750.047" x2="-1.43244e-06" y2="750.047" gradientUnits="userSpaceOnUse">
<stop stop-color="#13294B"/>
<stop offset="0.395833" stop-color="#1D58A7"/>
<stop offset="0.723958" stop-color="#FF552E"/>
<stop offset="1" stop-color="#13294B"/>
</linearGradient>
<linearGradient id="paint27_linear_2_2481" x1="1648" y1="750.047" x2="-1.43244e-06" y2="750.047" gradientUnits="userSpaceOnUse">
<stop stop-color="#13294B"/>
<stop offset="0.395833" stop-color="#1D58A7"/>
<stop offset="0.723958" stop-color="#FF552E"/>
<stop offset="1" stop-color="#13294B"/>
</linearGradient>
<linearGradient id="paint28_linear_2_2481" x1="1648" y1="750.047" x2="-1.43244e-06" y2="750.047" gradientUnits="userSpaceOnUse">
<stop stop-color="#13294B"/>
<stop offset="0.395833" stop-color="#1D58A7"/>
<stop offset="0.723958" stop-color="#FF552E"/>
<stop offset="1" stop-color="#13294B"/>
</linearGradient>
<linearGradient id="paint29_linear_2_2481" x1="1648" y1="750.047" x2="-1.43244e-06" y2="750.047" gradientUnits="userSpaceOnUse">
<stop stop-color="#13294B"/>
<stop offset="0.395833" stop-color="#1D58A7"/>
<stop offset="0.723958" stop-color="#FF552E"/>
<stop offset="1" stop-color="#13294B"/>
</linearGradient>
<linearGradient id="paint30_linear_2_2481" x1="1648" y1="750.047" x2="-1.43244e-06" y2="750.047" gradientUnits="userSpaceOnUse">
<stop stop-color="#13294B"/>
<stop offset="0.395833" stop-color="#1D58A7"/>
<stop offset="0.723958" stop-color="#FF552E"/>
<stop offset="1" stop-color="#13294B"/>
</linearGradient>
<linearGradient id="paint31_linear_2_2481" x1="1648" y1="750.047" x2="-1.43244e-06" y2="750.047" gradientUnits="userSpaceOnUse">
<stop stop-color="#13294B"/>
<stop offset="0.395833" stop-color="#1D58A7"/>
<stop offset="0.723958" stop-color="#FF552E"/>
<stop offset="1" stop-color="#13294B"/>
</linearGradient>
<linearGradient id="paint32_linear_2_2481" x1="1648" y1="750.047" x2="-1.43244e-06" y2="750.047" gradientUnits="userSpaceOnUse">
<stop stop-color="#13294B"/>
<stop offset="0.395833" stop-color="#1D58A7"/>
<stop offset="0.723958" stop-color="#FF552E"/>
<stop offset="1" stop-color="#13294B"/>
</linearGradient>
<linearGradient id="paint33_linear_2_2481" x1="1648" y1="750.047" x2="-1.43244e-06" y2="750.047" gradientUnits="userSpaceOnUse">
<stop stop-color="#13294B"/>
<stop offset="0.395833" stop-color="#1D58A7"/>
<stop offset="0.723958" stop-color="#FF552E"/>
<stop offset="1" stop-color="#13294B"/>
</linearGradient>
<linearGradient id="paint34_linear_2_2481" x1="1648" y1="750.047" x2="-1.43244e-06" y2="750.047" gradientUnits="userSpaceOnUse">
<stop stop-color="#13294B"/>
<stop offset="0.395833" stop-color="#1D58A7"/>
<stop offset="0.723958" stop-color="#FF552E"/>
<stop offset="1" stop-color="#13294B"/>
</linearGradient>
<linearGradient id="paint35_linear_2_2481" x1="1648" y1="750.047" x2="-1.43244e-06" y2="750.047" gradientUnits="userSpaceOnUse">
<stop stop-color="#13294B"/>
<stop offset="0.395833" stop-color="#1D58A7"/>
<stop offset="0.723958" stop-color="#FF552E"/>
<stop offset="1" stop-color="#13294B"/>
</linearGradient>
<linearGradient id="paint36_linear_2_2481" x1="1648" y1="750.047" x2="-1.43244e-06" y2="750.047" gradientUnits="userSpaceOnUse">
<stop stop-color="#13294B"/>
<stop offset="0.395833" stop-color="#1D58A7"/>
<stop offset="0.723958" stop-color="#FF552E"/>
<stop offset="1" stop-color="#13294B"/>
</linearGradient>
<linearGradient id="paint37_linear_2_2481" x1="1648" y1="750.047" x2="-1.43244e-06" y2="750.047" gradientUnits="userSpaceOnUse">
<stop stop-color="#13294B"/>
<stop offset="0.395833" stop-color="#1D58A7"/>
<stop offset="0.723958" stop-color="#FF552E"/>
<stop offset="1" stop-color="#13294B"/>
</linearGradient>
<linearGradient id="paint38_linear_2_2481" x1="1648" y1="750.047" x2="-1.43244e-06" y2="750.047" gradientUnits="userSpaceOnUse">
<stop stop-color="#13294B"/>
<stop offset="0.395833" stop-color="#1D58A7"/>
<stop offset="0.723958" stop-color="#FF552E"/>
<stop offset="1" stop-color="#13294B"/>
</linearGradient>
<linearGradient id="paint39_linear_2_2481" x1="1648" y1="750.047" x2="-1.43244e-06" y2="750.047" gradientUnits="userSpaceOnUse">
<stop stop-color="#13294B"/>
<stop offset="0.395833" stop-color="#1D58A7"/>
<stop offset="0.723958" stop-color="#FF552E"/>
<stop offset="1" stop-color="#13294B"/>
</linearGradient>
<linearGradient id="paint40_linear_2_2481" x1="1648" y1="750.047" x2="-1.43244e-06" y2="750.047" gradientUnits="userSpaceOnUse">
<stop stop-color="#13294B"/>
<stop offset="0.395833" stop-color="#1D58A7"/>
<stop offset="0.723958" stop-color="#FF552E"/>
<stop offset="1" stop-color="#13294B"/>
</linearGradient>
<linearGradient id="paint41_linear_2_2481" x1="1648" y1="750.047" x2="-1.43244e-06" y2="750.047" gradientUnits="userSpaceOnUse">
<stop stop-color="#13294B"/>
<stop offset="0.395833" stop-color="#1D58A7"/>
<stop offset="0.723958" stop-color="#FF552E"/>
<stop offset="1" stop-color="#13294B"/>
</linearGradient>
<linearGradient id="paint42_linear_2_2481" x1="1648" y1="750.047" x2="-1.43244e-06" y2="750.047" gradientUnits="userSpaceOnUse">
<stop stop-color="#13294B"/>
<stop offset="0.395833" stop-color="#1D58A7"/>
<stop offset="0.723958" stop-color="#FF552E"/>
<stop offset="1" stop-color="#13294B"/>
</linearGradient>
<linearGradient id="paint43_linear_2_2481" x1="1648" y1="750.047" x2="-1.43244e-06" y2="750.047" gradientUnits="userSpaceOnUse">
<stop stop-color="#13294B"/>
<stop offset="0.395833" stop-color="#1D58A7"/>
<stop offset="0.723958" stop-color="#FF552E"/>
<stop offset="1" stop-color="#13294B"/>
</linearGradient>
<linearGradient id="paint44_linear_2_2481" x1="1648" y1="750.047" x2="-1.43244e-06" y2="750.047" gradientUnits="userSpaceOnUse">
<stop stop-color="#13294B"/>
<stop offset="0.395833" stop-color="#1D58A7"/>
<stop offset="0.723958" stop-color="#FF552E"/>
<stop offset="1" stop-color="#13294B"/>
</linearGradient>
<linearGradient id="paint45_linear_2_2481" x1="1648" y1="750.047" x2="-1.43244e-06" y2="750.047" gradientUnits="userSpaceOnUse">
<stop stop-color="#13294B"/>
<stop offset="0.395833" stop-color="#1D58A7"/>
<stop offset="0.723958" stop-color="#FF552E"/>
<stop offset="1" stop-color="#13294B"/>
</linearGradient>
</defs>
</svg>
