<svg width="246" height="64" viewBox="0 0 246 64" fill="none" xmlns="http://www.w3.org/2000/svg">
<path d="M80.8218 11.9834C83.8136 11.9834 85.7073 10.2597 85.7073 6.74586V0.198894H83.2566V6.8453C83.2566 8.68508 82.3495 9.62983 80.8537 9.62983C79.3578 9.62983 78.4507 8.65193 78.4507 6.76243V0.198894H76V6.82873C76 10.2431 77.8301 11.9834 80.8218 11.9834Z" fill="#13294B"/>
<path d="M91.6846 11.8011H94.1035V4.42541L99.4982 11.8011H101.583V0.198894H99.164V7.34254L93.9444 0.198894H91.6846V11.8011Z" fill="#13294B"/>
<path d="M107.85 11.8011H110.3V0.198894H107.85V11.8011Z" fill="#13294B"/>
<path d="M120.114 11.884H122.278L126.782 0.198894H124.14L121.228 8.37017L118.316 0.198894H115.61L120.114 11.884Z" fill="#13294B"/>
<path d="M131.982 11.8011H140.463V9.53039H134.416V7.09392H139.668V4.8232H134.416V2.46961H140.384V0.198894H131.982V11.8011Z" fill="#13294B"/>
<path d="M146.124 11.8011H148.574V8.0884H150.5L152.887 11.8011H155.751L153.03 7.65746C154.446 7.1105 155.417 5.9337 155.417 4.06077V4.02763C155.417 2.9337 155.083 2.0221 154.462 1.37569C153.73 0.61326 152.632 0.198894 151.216 0.198894H146.124V11.8011ZM148.574 5.83425V2.50276H151.009C152.203 2.50276 152.935 3.0663 152.935 4.16022V4.19337C152.935 5.17127 152.25 5.83425 151.057 5.83425H148.574Z" fill="#13294B"/>
<path d="M165.067 11.9669C167.47 11.9669 169.157 10.674 169.157 8.37017V8.33702C169.157 6.31492 167.884 5.46961 165.624 4.85635C163.699 4.34254 163.221 4.09392 163.221 3.33149V3.29834C163.221 2.73481 163.715 2.28729 164.653 2.28729C165.592 2.28729 166.563 2.71823 167.55 3.43094L168.823 1.50829C167.693 0.563536 166.308 0.0331487 164.685 0.0331487C162.41 0.0331487 160.786 1.42541 160.786 3.53039V3.56354C160.786 5.8674 162.235 6.51381 164.478 7.1105C166.34 7.60774 166.722 7.93923 166.722 8.58564V8.61878C166.722 9.29834 166.117 9.71271 165.115 9.71271C163.842 9.71271 162.792 9.16575 161.789 8.30387L160.341 10.1105C161.678 11.3536 163.38 11.9669 165.067 11.9669Z" fill="#13294B"/>
<path d="M174.876 11.8011H177.327V0.198894H174.876V11.8011Z" fill="#13294B"/>
<path d="M186.186 11.8011H188.637V2.55249H192.026V0.198894H182.796V2.55249H186.186V11.8011Z" fill="#13294B"/>
<path d="M200.527 11.8011H202.978V7.1768L207.259 0.198894H204.474L201.768 4.85635L199.111 0.198894H196.246L200.527 7.22652V11.8011Z" fill="#13294B"/>
<path d="M225.927 12C229.365 12 231.863 9.29834 231.863 6V5.96685C231.863 2.66851 229.396 0 225.959 0C222.522 0 220.023 2.70166 220.023 6V6.03315C220.023 9.33149 222.49 12 225.927 12ZM225.959 9.64641C223.986 9.64641 222.585 7.98895 222.585 6V5.96685C222.585 3.9779 223.954 2.35359 225.927 2.35359C227.9 2.35359 229.301 4.01105 229.301 6V6.03315C229.301 8.0221 227.932 9.64641 225.959 9.64641Z" fill="#13294B"/>
<path d="M237.518 11.8011H239.969V7.30939H245.284V4.98895H239.969V2.51934H246V0.198894H237.518V11.8011Z" fill="#13294B"/>
<path d="M79.0148 63.9889C80.8854 63.9889 82.0695 62.8398 82.0695 60.4972V56.1326H80.5372V60.5635C80.5372 61.7901 79.97 62.4199 79.0347 62.4199C78.0994 62.4199 77.5323 61.768 77.5323 60.5083V56.1326H76V60.5525C76 62.8287 77.1442 63.9889 79.0148 63.9889Z" fill="#13294B"/>
<path d="M87.5107 63.8674H89.043V61.3923H90.2469L91.7394 63.8674H93.5304L91.8289 61.105C92.7145 60.7403 93.3214 59.9558 93.3214 58.7072V58.6851C93.3214 57.9558 93.1125 57.3481 92.7244 56.9171C92.2667 56.4088 91.5802 56.1326 90.6947 56.1326H87.5107V63.8674ZM89.043 59.8895V57.6685H90.5653C91.3115 57.6685 91.7692 58.0442 91.7692 58.7735V58.7956C91.7692 59.4475 91.3414 59.8895 90.5952 59.8895H89.043Z" fill="#13294B"/>
<path d="M98.5815 63.8674H101.895C103.467 63.8674 104.502 63.1602 104.502 61.7459V61.7238C104.502 60.6851 104.004 60.1657 103.198 59.8232C103.696 59.5138 104.114 59.0276 104.114 58.1547V58.1326C104.114 57.6022 103.954 57.1713 103.636 56.8177C103.238 56.3757 102.611 56.1326 101.815 56.1326H98.5815V63.8674ZM102.591 58.442C102.591 59.0166 102.164 59.2597 101.487 59.2597H100.074V57.6243H101.586C102.233 57.6243 102.591 57.9116 102.591 58.4199V58.442ZM102.979 61.5138V61.5359C102.979 62.1105 102.571 62.3757 101.895 62.3757H100.074V60.674H101.845C102.631 60.674 102.979 60.9945 102.979 61.5138Z" fill="#13294B"/>
<path d="M109.046 63.8674H110.608L111.245 62.1326H114.19L114.827 63.8674H116.429L113.444 56.0773H112.031L109.046 63.8674ZM111.792 60.6298L112.717 58.1215L113.643 60.6298H111.792Z" fill="#13294B"/>
<path d="M121.384 63.8674H122.896V58.9503L126.269 63.8674H127.573V56.1326H126.06V60.895L122.797 56.1326H121.384V63.8674Z" fill="#13294B"/>
<path d="M132.528 63.8674H134.09L134.727 62.1326H137.672L138.309 63.8674H139.911L136.926 56.0773H135.513L132.528 63.8674ZM135.274 60.6298L136.2 58.1215L137.125 60.6298H135.274Z" fill="#13294B"/>
<path d="M144.13 61.2486H147.195V59.6354H144.13V61.2486Z" fill="#13294B"/>
<path d="M155.674 64C157.017 64 157.813 63.4696 158.529 62.6188L157.554 61.5249C157.007 62.0773 156.52 62.4309 155.724 62.4309C154.53 62.4309 153.704 61.326 153.704 60V59.9779C153.704 58.6519 154.55 57.5691 155.724 57.5691C156.42 57.5691 156.967 57.9006 157.505 58.442L158.48 57.1934C157.833 56.4862 157.047 56 155.734 56C153.594 56 152.102 57.8011 152.102 60V60.0221C152.102 62.2431 153.624 64 155.674 64Z" fill="#13294B"/>
<path d="M163.637 63.8674H165.169V60.7624H167.995V63.8674H169.527V56.1326H167.995V59.1934H165.169V56.1326H163.637V63.8674Z" fill="#13294B"/>
<path d="M174.48 63.8674H176.042L176.679 62.1326H179.624L180.261 63.8674H181.863L178.878 56.0773H177.465L174.48 63.8674ZM177.226 60.6298L178.151 58.1215L179.077 60.6298H177.226Z" fill="#13294B"/>
<path d="M186.818 63.8674H188.32V58.8508L190.261 62.1215H190.3L192.261 58.8177V63.8674H193.783V56.1326H192.131L190.3 59.4033L188.47 56.1326H186.818V63.8674Z" fill="#13294B"/>
<path d="M199.337 63.8674H200.869V61.547H202.033C203.595 61.547 204.849 60.6188 204.849 58.8287V58.8066C204.849 57.2265 203.844 56.1326 202.182 56.1326H199.337V63.8674ZM200.869 60.0331V57.6685H202.053C202.819 57.6685 203.297 58.0773 203.297 58.8398V58.8619C203.297 59.5249 202.849 60.0331 202.083 60.0331H200.869Z" fill="#13294B"/>
<path d="M208.567 63.8674H210.129L210.766 62.1326H213.711L214.348 63.8674H215.95L212.965 56.0773H211.552L208.567 63.8674ZM211.313 60.6298L212.238 58.1215L213.164 60.6298H211.313Z" fill="#13294B"/>
<path d="M220.975 63.8674H222.507V56.1326H220.975V63.8674Z" fill="#13294B"/>
<path d="M231.481 64C232.755 64 233.74 63.4475 234.456 62.7735V59.4144H231.432V60.884H232.974V61.9889C232.586 62.2983 232.088 62.453 231.531 62.453C230.297 62.453 229.422 61.4144 229.422 60V59.9779C229.422 58.663 230.307 57.5691 231.422 57.5691C232.228 57.5691 232.705 57.8564 233.242 58.3536L234.208 57.0608C233.481 56.3757 232.725 56 231.471 56C229.362 56 227.82 57.8011 227.82 60V60.0221C227.82 62.3094 229.312 64 231.481 64Z" fill="#13294B"/>
<path d="M239.811 63.8674H241.324V58.9503L244.697 63.8674H246V56.1326H244.488V60.895L241.224 56.1326H239.811V63.8674Z" fill="#13294B"/>
<path d="M76 47.5359H81.8479V20.4641H76V47.5359Z" fill="#13294B"/>
<path d="M88.9904 47.5359H108.091V42.1215H94.8383V20.4641H88.9904V47.5359Z" fill="#13294B"/>
<path d="M113.001 47.5359H132.101V42.1215H118.849V20.4641H113.001V47.5359Z" fill="#13294B"/>
<path d="M137.277 47.5359H143.125V20.4641H137.277V47.5359Z" fill="#13294B"/>
<path d="M150.267 47.5359H156.039V30.326L168.912 47.5359H173.887V20.4641H168.115V37.1326L155.66 20.4641H150.267V47.5359Z" fill="#13294B"/>
<path d="M193.678 48C201.88 48 207.842 41.6961 207.842 34V33.9227C207.842 26.2265 201.956 20 193.754 20C185.552 20 179.59 26.3039 179.59 34V34.0773C179.59 41.7735 185.476 48 193.678 48ZM193.754 42.5083C189.045 42.5083 185.704 38.6409 185.704 34V33.9227C185.704 29.2818 188.97 25.4917 193.678 25.4917C198.387 25.4917 201.729 29.3591 201.729 34V34.0773C201.729 38.7182 198.463 42.5083 193.754 42.5083Z" fill="#13294B"/>
<path d="M213.795 47.5359H219.643V20.4641H213.795V47.5359Z" fill="#13294B"/>
<path d="M236.241 47.9227C241.975 47.9227 246 44.9061 246 39.5304V39.453C246 34.7348 242.962 32.7624 237.57 31.3315C232.975 30.1326 231.836 29.5525 231.836 27.7735V27.6961C231.836 26.3812 233.013 25.337 235.254 25.337C237.494 25.337 239.81 26.3425 242.165 28.0055L245.203 23.5193C242.506 21.3149 239.203 20.0773 235.33 20.0773C229.899 20.0773 226.026 23.326 226.026 28.2376V28.3149C226.026 33.6906 229.482 35.1989 234.836 36.5912C239.279 37.7514 240.19 38.5249 240.19 40.0331V40.1105C240.19 41.6961 238.747 42.663 236.355 42.663C233.317 42.663 230.811 41.3867 228.418 39.3757L224.963 43.5912C228.153 46.4917 232.216 47.9227 236.241 47.9227Z" fill="#13294B"/>
<path fill-rule="evenodd" clip-rule="evenodd" d="M44 0H0L0 19H10V45H0V64H44V45H34V19H44V0Z" fill="#13294B"/>
<path fill-rule="evenodd" clip-rule="evenodd" d="M40.9998 16V3H2.99985V16H10.9998C12.1044 16 12.9998 16.8954 12.9998 18V46C12.9998 47.1045 12.1044 48 10.9998 48H2.99985V61H40.9998V48L32.9999 48C31.8953 48 30.9998 47.1046 30.9998 46V18C30.9998 16.8954 31.8953 16 32.9999 16L40.9998 16Z" fill="#FF552E"/>
</svg>
