<svg width="300" height="8" viewBox="0 0 300 8" fill="none" xmlns="http://www.w3.org/2000/svg">
<path d="M2.18635 5.91978C2.47786 6.27386 2.87028 6.4509 3.36361 6.4509C3.85694 6.4509 4.24562 6.27386 4.52966 5.91978C4.82117 5.55832 4.96693 5.06777 4.96693 4.44813V0.17704H6.716V4.50346C6.716 5.62471 6.40207 6.48778 5.77419 7.09267C5.14632 7.69018 4.34279 7.98893 3.36361 7.98893C2.38442 7.98893 1.57716 7.68649 0.94181 7.0816C0.313937 6.47672 0 5.61734 0 4.50346V0.17704H1.74908V4.44813C1.74908 5.06777 1.89483 5.55832 2.18635 5.91978Z" fill="#13294B"/>
<path d="M14.8156 0.17704H16.5647V7.91148H14.8156L11.082 3.06501V7.91148H9.33295V0.17704H10.9699L14.8156 5.15629V0.17704Z" fill="#13294B"/>
<path d="M19.2983 0.17704H21.0474V7.91148H19.2983V0.17704Z" fill="#13294B"/>
<path d="M26.6708 5.10097L28.6666 0.17704H30.5614L27.4108 7.91148H25.9308L22.7803 0.17704H24.6751L26.6708 5.10097Z" fill="#13294B"/>
<path d="M37.9491 0.17704V1.71508H34.0473V3.30844H37.5566V4.78008H34.0473V6.38451H38.0724V7.91148H32.2982V0.17704H37.9491Z" fill="#13294B"/>
<path d="M46.7923 2.74412C46.7923 3.9834 46.2952 4.78377 45.3011 5.14523L47.2856 7.91148H45.1329L43.395 5.44398H42.1841V7.91148H40.4351V0.17704H43.4062C44.6246 0.17704 45.4917 0.379898 46.0074 0.785615C46.5307 1.19133 46.7923 1.84417 46.7923 2.74412ZM43.4623 3.95021C44.0603 3.95021 44.4677 3.85431 44.6844 3.66252C44.9012 3.47072 45.0096 3.16828 45.0096 2.75519C45.0096 2.33472 44.8974 2.04703 44.6732 1.89212C44.449 1.73721 44.0565 1.65975 43.4959 1.65975H42.1841V3.95021H43.4623Z" fill="#13294B"/>
<path d="M51.9049 1.51591C51.6134 1.51591 51.3816 1.58598 51.2097 1.72614C51.0453 1.85892 50.9631 2.03965 50.9631 2.26833C50.9631 2.48963 51.064 2.66667 51.2658 2.79945C51.4751 2.93223 51.9497 3.09083 52.6897 3.27524C53.4372 3.45228 54.0165 3.72153 54.4276 4.08299C54.8387 4.44444 55.0442 4.97188 55.0442 5.66528C55.0442 6.35869 54.7789 6.92301 54.2482 7.35823C53.7249 7.78608 53.0335 8 52.174 8C50.9332 8 49.8157 7.54634 48.8216 6.639L49.8643 5.37759C50.7089 6.10788 51.49 6.47303 52.2076 6.47303C52.529 6.47303 52.7794 6.40664 52.9588 6.27386C53.1457 6.1337 53.2391 5.94929 53.2391 5.72061C53.2391 5.48456 53.1419 5.30014 52.9476 5.16736C52.7532 5.0272 52.3683 4.88705 51.7927 4.74689C50.8808 4.53296 50.2118 4.25634 49.7858 3.91701C49.3672 3.57031 49.1579 3.03181 49.1579 2.30152C49.1579 1.56385 49.4233 0.99585 49.954 0.59751C50.4921 0.19917 51.1611 0 51.9609 0C52.4842 0 53.0074 0.0885197 53.5306 0.26556C54.0538 0.4426 54.5098 0.693407 54.8985 1.01798L54.0127 2.27939C53.3325 1.7704 52.6299 1.51591 51.9049 1.51591Z" fill="#13294B"/>
<path d="M57.3329 0.17704H59.0819V7.91148H57.3329V0.17704Z" fill="#13294B"/>
<path d="M65.1314 1.67082V7.91148H63.3824V1.67082H61.1624V0.17704H67.3514V1.67082H65.1314Z" fill="#13294B"/>
<path d="M72.8097 7.91148H71.0607V4.85754L68.3473 0.17704H70.2422L71.9352 3.05394L73.6282 0.17704H75.523L72.8097 4.85754V7.91148Z" fill="#13294B"/>
<path d="M86.9222 4.00553C86.9222 3.31213 86.698 2.72199 86.2495 2.23513C85.801 1.74827 85.2479 1.50484 84.5901 1.50484C83.9398 1.50484 83.3904 1.74827 82.942 2.23513C82.4935 2.72199 82.2692 3.31213 82.2692 4.00553C82.2692 4.69156 82.4935 5.27801 82.942 5.76487C83.3904 6.24435 83.9398 6.48409 84.5901 6.48409C85.2479 6.48409 85.801 6.24435 86.2495 5.76487C86.698 5.27801 86.9222 4.69156 86.9222 4.00553ZM87.5165 6.84924C86.7242 7.60904 85.7487 7.98893 84.5901 7.98893C83.4316 7.98893 82.4561 7.60904 81.6638 6.84924C80.8715 6.08207 80.4753 5.13047 80.4753 3.99447C80.4753 2.85846 80.8715 1.91056 81.6638 1.15076C82.4561 0.383587 83.4316 0 84.5901 0C85.7487 0 86.7242 0.383587 87.5165 1.15076C88.3088 1.91056 88.7049 2.85846 88.7049 3.99447C88.7049 5.13047 88.3088 6.08207 87.5165 6.84924Z" fill="#13294B"/>
<path d="M96.3695 0.17704V1.69295H92.7368V3.36376H96.1901V4.87967H92.7368V7.91148H90.9877V0.17704H96.3695Z" fill="#13294B"/>
<path d="M102.411 0.17704H104.16V7.91148H102.411V0.17704Z" fill="#13294B"/>
<path d="M106.891 7.91148V0.17704H108.64V6.37344H111.981V7.91148H106.891Z" fill="#13294B"/>
<path d="M114.064 7.91148V0.17704H115.813V6.37344H119.154V7.91148H114.064Z" fill="#13294B"/>
<path d="M121.237 0.17704H122.986V7.91148H121.237V0.17704Z" fill="#13294B"/>
<path d="M131.2 0.17704H132.949V7.91148H131.2L127.466 3.06501V7.91148H125.717V0.17704H127.354L131.2 5.15629V0.17704Z" fill="#13294B"/>
<path d="M141.681 4.00553C141.681 3.31213 141.457 2.72199 141.008 2.23513C140.56 1.74827 140.007 1.50484 139.349 1.50484C138.699 1.50484 138.149 1.74827 137.701 2.23513C137.252 2.72199 137.028 3.31213 137.028 4.00553C137.028 4.69156 137.252 5.27801 137.701 5.76487C138.149 6.24435 138.699 6.48409 139.349 6.48409C140.007 6.48409 140.56 6.24435 141.008 5.76487C141.457 5.27801 141.681 4.69156 141.681 4.00553ZM142.275 6.84924C141.483 7.60904 140.507 7.98893 139.349 7.98893C138.19 7.98893 137.215 7.60904 136.423 6.84924C135.63 6.08207 135.234 5.13047 135.234 3.99447C135.234 2.85846 135.63 1.91056 136.423 1.15076C137.215 0.383587 138.19 0 139.349 0C140.507 0 141.483 0.383587 142.275 1.15076C143.068 1.91056 143.464 2.85846 143.464 3.99447C143.464 5.13047 143.068 6.08207 142.275 6.84924Z" fill="#13294B"/>
<path d="M145.746 0.17704H147.496V7.91148H145.746V0.17704Z" fill="#13294B"/>
<path d="M152.749 1.51591C152.457 1.51591 152.226 1.58598 152.054 1.72614C151.889 1.85892 151.807 2.03965 151.807 2.26833C151.807 2.48963 151.908 2.66667 152.11 2.79945C152.319 2.93223 152.794 3.09083 153.534 3.27524C154.281 3.45228 154.861 3.72153 155.272 4.08299C155.683 4.44444 155.888 4.97188 155.888 5.66528C155.888 6.35869 155.623 6.92301 155.092 7.35823C154.569 7.78608 153.878 8 153.018 8C151.777 8 150.66 7.54634 149.666 6.639L150.708 5.37759C151.553 6.10788 152.334 6.47303 153.052 6.47303C153.373 6.47303 153.624 6.40664 153.803 6.27386C153.99 6.1337 154.083 5.94929 154.083 5.72061C154.083 5.48456 153.986 5.30014 153.792 5.16736C153.597 5.0272 153.212 4.88705 152.637 4.74689C151.725 4.53296 151.056 4.25634 150.63 3.91701C150.211 3.57031 150.002 3.03181 150.002 2.30152C150.002 1.56385 150.267 0.99585 150.798 0.59751C151.336 0.19917 152.005 0 152.805 0C153.328 0 153.851 0.0885197 154.375 0.26556C154.898 0.4426 155.354 0.693407 155.743 1.01798L154.857 2.27939C154.177 1.7704 153.474 1.51591 152.749 1.51591Z" fill="#13294B"/>
<path d="M164.008 5.91978C164.3 6.27386 164.692 6.4509 165.186 6.4509C165.679 6.4509 166.068 6.27386 166.352 5.91978C166.643 5.55832 166.789 5.06777 166.789 4.44813V0.17704H168.538V4.50346C168.538 5.62471 168.224 6.48778 167.596 7.09267C166.968 7.69018 166.165 7.98893 165.186 7.98893C164.206 7.98893 163.399 7.68649 162.764 7.0816C162.136 6.47672 161.822 5.61734 161.822 4.50346V0.17704H163.571V4.44813C163.571 5.06777 163.717 5.55832 164.008 5.91978Z" fill="#13294B"/>
<path d="M177.512 2.74412C177.512 3.9834 177.015 4.78377 176.021 5.14523L178.006 7.91148H175.853L174.115 5.44398H172.904V7.91148H171.155V0.17704H174.126C175.345 0.17704 176.212 0.379898 176.727 0.785615C177.251 1.19133 177.512 1.84417 177.512 2.74412ZM174.182 3.95021C174.78 3.95021 175.188 3.85431 175.404 3.66252C175.621 3.47072 175.729 3.16828 175.729 2.75519C175.729 2.33472 175.617 2.04703 175.393 1.89212C175.169 1.73721 174.776 1.65975 174.216 1.65975H172.904V3.95021H174.182Z" fill="#13294B"/>
<path d="M183.533 7.91148H180.102V0.17704H183.152C183.682 0.17704 184.138 0.239742 184.52 0.365145C184.908 0.490549 185.2 0.660212 185.394 0.874136C185.745 1.27248 185.921 1.72245 185.921 2.22407C185.921 2.82895 185.723 3.27893 185.327 3.574C185.192 3.67727 185.099 3.74366 185.047 3.77317C184.994 3.7953 184.901 3.83587 184.766 3.89488C185.252 3.99816 185.637 4.21577 185.921 4.54772C186.213 4.87229 186.358 5.27801 186.358 5.76487C186.358 6.30337 186.172 6.77916 185.798 7.19225C185.364 7.67174 184.609 7.91148 183.533 7.91148ZM181.851 3.30844H182.681C183.167 3.30844 183.525 3.2568 183.757 3.15353C183.996 3.05025 184.116 2.82895 184.116 2.48963C184.116 2.14292 184.008 1.91425 183.791 1.8036C183.574 1.69295 183.208 1.63762 182.692 1.63762H181.851V3.30844ZM181.851 6.4509H183.051C183.552 6.4509 183.925 6.39189 184.172 6.27386C184.426 6.14846 184.553 5.90871 184.553 5.55463C184.553 5.19318 184.419 4.95712 184.15 4.84647C183.888 4.72845 183.466 4.66943 182.883 4.66943H181.851V6.4509Z" fill="#13294B"/>
<path d="M194.129 7.91148L193.4 6.24066H190.115L189.386 7.91148H187.525L190.911 0.17704H192.604L195.99 7.91148H194.129ZM191.763 2.47856L190.777 4.72476H192.739L191.763 2.47856Z" fill="#13294B"/>
<path d="M203.183 0.17704H204.932V7.91148H203.183L199.45 3.06501V7.91148H197.701V0.17704H199.338L203.183 5.15629V0.17704Z" fill="#13294B"/>
<path d="M213.25 7.91148L212.521 6.24066H209.236L208.507 7.91148H206.646L210.032 0.17704H211.725L215.111 7.91148H213.25ZM210.884 2.47856L209.897 4.72476H211.859L210.884 2.47856Z" fill="#13294B"/>
<path d="M216.477 5.32227V3.85062H220.468V5.32227H216.477Z" fill="#13294B"/>
<path d="M226.586 6.38451C227.446 6.38451 228.148 6.04887 228.694 5.37759L229.815 6.51729C228.926 7.50576 227.876 8 226.665 8C225.461 8 224.467 7.62379 223.682 6.87137C222.905 6.11895 222.516 5.17105 222.516 4.02766C222.516 2.8769 222.912 1.91793 223.705 1.15076C224.504 0.383587 225.48 0 226.631 0C227.917 0 228.993 0.483172 229.86 1.44952L228.773 2.66667C228.219 1.98801 227.532 1.64869 226.71 1.64869C226.052 1.64869 225.487 1.86261 225.017 2.29046C224.553 2.71093 224.321 3.28262 224.321 4.00553C224.321 4.72107 224.542 5.29645 224.983 5.73167C225.424 6.1669 225.958 6.38451 226.586 6.38451Z" fill="#13294B"/>
<path d="M236.866 0.17704H238.615V7.91148H236.866V4.8686H233.749V7.91148H232V0.17704H233.749V3.40802H236.866V0.17704Z" fill="#13294B"/>
<path d="M246.925 7.91148L246.196 6.24066H242.911L242.182 7.91148H240.321L243.707 0.17704H245.4L248.786 7.91148H246.925ZM244.559 2.47856L243.572 4.72476H245.534L244.559 2.47856Z" fill="#13294B"/>
<path d="M257.515 3.04288L255.396 7.26971H254.353L252.245 3.04288V7.91148H250.496V0.17704H252.862L254.88 4.426L256.91 0.17704H259.264V7.91148H257.515V3.04288Z" fill="#13294B"/>
<path d="M264.764 0.17704C265.967 0.17704 266.842 0.409405 267.388 0.874136C267.941 1.33149 268.217 2.03965 268.217 2.99862C268.217 3.95021 267.933 4.6473 267.365 5.0899C266.805 5.5325 265.945 5.7538 264.786 5.7538H263.744V7.91148H261.995V0.17704H264.764ZM264.921 4.26003C265.504 4.26003 265.9 4.14569 266.109 3.91701C266.319 3.68096 266.423 3.34163 266.423 2.89903C266.423 2.44906 266.285 2.13186 266.009 1.94744C265.739 1.75565 265.317 1.65975 264.742 1.65975H263.744V4.26003H264.921Z" fill="#13294B"/>
<path d="M275.507 7.91148L274.778 6.24066H271.493L270.764 7.91148H268.903L272.289 0.17704H273.982L277.368 7.91148H275.507ZM273.141 2.47856L272.155 4.72476H274.117L273.141 2.47856Z" fill="#13294B"/>
<path d="M279.079 0.17704H280.828V7.91148H279.079V0.17704Z" fill="#13294B"/>
<path d="M288.649 3.97234H290.409V6.71646C289.632 7.57215 288.555 8 287.18 8C286.029 8 285.061 7.62379 284.276 6.87137C283.499 6.11895 283.11 5.17105 283.11 4.02766C283.11 2.8769 283.506 1.91793 284.298 1.15076C285.098 0.383587 286.059 0 287.18 0C288.309 0 289.288 0.365145 290.117 1.09544L289.209 2.39004C288.858 2.0876 288.533 1.88105 288.234 1.7704C287.942 1.65237 287.625 1.59336 287.281 1.59336C286.615 1.59336 286.055 1.81835 285.599 2.26833C285.143 2.71093 284.915 3.29737 284.915 4.02766C284.915 4.75795 285.132 5.3444 285.565 5.787C286.006 6.22222 286.53 6.43983 287.135 6.43983C287.74 6.43983 288.245 6.3255 288.649 6.09682V3.97234Z" fill="#13294B"/>
<path d="M298.251 0.17704H300V7.91148H298.251L294.517 3.06501V7.91148H292.768V0.17704H294.405L298.251 5.15629V0.17704Z" fill="#13294B"/>
</svg>
