<svg width="1648" height="597" viewBox="0 0 1648 597" fill="none" xmlns="http://www.w3.org/2000/svg">
<path d="M1648 354.876V353.181C1603.13 396.72 1539.09 442.26 1450.31 473.11C1285.67 530.341 1152.25 520.5 1023.22 510.984L1023.22 510.984C977.773 507.63 934.843 504.464 890.553 504.072C840.368 503.62 797.394 506.849 755.31 514.229C648.047 533.215 600.674 564.363 565.076 597H566.705C602.105 564.71 649.381 533.966 755.579 515.184C847.753 499.021 932.891 505.298 1023.03 511.944L1023.12 511.951C1152.3 521.474 1285.88 531.321 1450.83 473.986C1507.86 454.169 1559.54 426.699 1604.46 392.345C1619.77 380.639 1634.3 368.126 1648 354.876Z" fill="url(#paint0_linear_2_2353)"/>
<path d="M1648 414.213V412.655C1604.32 446.831 1547.37 480.28 1474.51 504.383C1307.4 559.674 1173.43 548.113 1043.86 536.932L1043.68 536.916H1043.67C998.524 533.022 955.868 529.344 911.685 528.317C861.532 527.156 818.454 529.65 776.117 536.165C744.189 541.106 716.672 547.212 691.995 554.831C670.014 561.615 650.824 569.45 633.322 578.782C622.406 584.604 612.742 590.718 603.935 597H605.834C640.506 572.59 688.876 550.656 776.354 537.109C869.129 522.835 953.926 530.151 1043.7 537.897C1173.43 549.093 1307.58 560.668 1475.02 505.274C1532.64 486.212 1585.55 459.614 1631.3 426.709C1636.96 422.644 1642.53 418.478 1648 414.213Z" fill="url(#paint1_linear_2_2353)"/>
<path d="M1648 467.83V466.389C1607.56 492.459 1558.22 517.027 1498.76 535.723C1329.17 589.043 1194.65 575.753 1064.55 562.901L1064.55 562.9L1063.94 562.841L1063.94 562.841C1021.11 558.62 976.829 554.257 932.839 552.607C883.428 550.749 838.959 552.559 796.949 558.145C764.643 562.442 736.766 567.94 711.728 574.955C689.706 581.126 670.398 588.34 652.729 597H655.322C688.164 581.215 732.073 567.758 797.162 559.103C890.502 546.692 974.941 555.035 1064.34 563.868L1064.38 563.871C1194.63 576.741 1329.33 590.047 1499.25 536.625C1553.16 519.695 1603.36 496.473 1648 467.83Z" fill="url(#paint2_linear_2_2353)"/>
<path d="M1648 508.045V506.657C1608.24 530.249 1561 551.982 1505.58 568.211C1455.72 582.926 1408.95 591.954 1364.48 597H1372.95C1415.02 591.79 1459.15 582.974 1506.03 569.145C1556.79 554.264 1604.45 533.757 1648 508.045Z" fill="url(#paint3_linear_2_2353)"/>
<path d="M1648 547.384V546.056C1612.47 565.536 1571.71 583.29 1525.47 597H1528.95C1570.71 584.407 1610.59 567.785 1648 547.384Z" fill="url(#paint4_linear_2_2353)"/>
<path d="M1648 586.272V585.007C1639.89 589.114 1631.54 593.12 1622.94 597H1625.59C1633.13 593.572 1640.6 589.995 1648 586.272Z" fill="url(#paint5_linear_2_2353)"/>
<path d="M728.355 597C750.976 590.961 777.255 585.806 808.315 581.835C902.106 569.958 986.882 579.441 1076.63 589.484C1100.05 592.104 1123.62 594.74 1147.51 597H1158.34C1130.8 594.546 1103.73 591.518 1076.85 588.511L1076.83 588.509L1076.82 588.508C1031.63 583.451 988.935 578.673 944.572 576.511C894.276 574.06 850.918 575.442 808.118 580.862C776.797 584.87 749.542 590.103 724.84 596.864C724.675 596.909 724.509 596.954 724.344 597H728.355Z" fill="url(#paint6_linear_2_2353)"/>
<path d="M531.395 597H532.932C569.846 557.532 612.162 517.681 734.796 493.166C826.394 475.086 911.914 480.32 1002.45 485.862L1002.51 485.865C1066.08 489.757 1131.83 493.782 1201.55 489.404C1239.19 487.05 1274.59 482.496 1309.78 475.493C1349.43 467.606 1387.63 456.855 1426.63 442.631C1483.07 422.055 1533.88 393.548 1577.62 357.909C1602.08 337.977 1624.38 315.797 1644.24 291.683C1643.98 291.38 1643.71 291.077 1643.44 290.774C1600.29 343.093 1531.43 403.366 1426.1 441.766C1263.9 500.916 1131.05 492.785 1002.58 484.919C911.922 479.368 826.301 474.127 734.494 492.25C610.847 516.959 568.553 557.211 531.395 597Z" fill="url(#paint7_linear_2_2353)"/>
<path d="M500.595 597H502.117C504.8 593.928 507.466 590.833 510.148 587.719L510.151 587.715C547.368 544.5 585.848 499.825 713.99 471.227C804.976 451.206 890.878 455.385 981.807 459.81L981.814 459.81C1045.08 462.889 1110.51 466.06 1179.75 460.823C1217.11 457.989 1252.22 453.001 1287.03 445.572C1326.25 437.203 1364 426.001 1402.4 411.322C1458.26 389.983 1508.17 360.438 1550.74 323.515C1573.31 303.946 1593.86 282.286 1612.15 258.811C1611.86 258.535 1611.56 258.26 1611.26 257.984C1569.69 311.237 1503.55 371.617 1401.86 410.463C1242.12 471.505 1109.86 465.072 981.947 458.85L981.918 458.849C890.867 454.399 804.862 450.214 713.658 470.286C585.055 498.989 546.441 543.823 509.097 587.181C506.258 590.477 503.437 593.752 500.595 597Z" fill="url(#paint8_linear_2_2353)"/>
<path d="M471.125 597H472.633C479.894 588.777 486.636 580.314 493.488 571.711L493.492 571.707C529.282 526.789 566.293 480.339 693.195 449.231C783.657 427.051 870.095 430.19 961.602 433.516C1024.49 435.801 1089.51 438.163 1158.19 432.075C1195.28 428.787 1230.04 423.389 1264.45 415.545C1303.21 406.711 1340.43 395.076 1378.2 379.971C1433.49 357.887 1482.52 327.295 1523.92 289.097C1543.67 270.87 1561.71 250.897 1577.9 229.386C1577.69 229.226 1577.49 229.066 1577.29 228.906L1576.93 228.614C1536.77 281.855 1473.85 340.657 1377.63 379.119C1220.52 441.958 1088.94 437.185 961.698 432.554C870.071 429.225 783.513 426.093 692.833 448.312C635.827 462.288 591.79 480.745 558.205 504.736C528.46 525.986 510.133 548.984 492.416 571.227L492.408 571.237C485.421 580.006 478.549 588.63 471.125 597Z" fill="url(#paint9_linear_2_2353)"/>
<path d="M442.091 597H443.652C456.179 583.959 466.401 570.103 476.897 555.875L476.904 555.866L476.906 555.864C511.28 509.265 546.825 461.079 672.425 427.257C762.24 403.072 849.078 405.134 941.008 407.32L941.063 407.321C1003.6 408.807 1068.27 410.344 1136.43 403.407C1173.25 399.669 1207.7 393.826 1241.74 385.573C1280.12 376.275 1316.83 364.192 1354.02 348.641C1408.7 325.783 1456.83 294.169 1497.06 254.669C1513.41 238.624 1528.48 221.268 1542.17 202.734C1541.95 202.58 1541.73 202.427 1541.51 202.274L1541.13 202.01C1502.38 254.335 1442.98 310.36 1353.42 347.792C1198.74 412.474 1067.75 409.361 941.083 406.351L941.079 406.351C849.03 404.163 762.067 402.108 672.023 426.344C615.624 441.53 572.22 461.148 539.391 486.326C510.334 508.59 492.778 532.389 475.802 555.401L475.78 555.432C465.162 569.826 454.826 583.838 442.091 597Z" fill="url(#paint10_linear_2_2353)"/>
<path d="M412.363 597H414.014C433.362 579.564 446.582 560.183 460.292 540.079L460.294 540.076C493.236 491.785 527.307 441.838 651.634 405.281C740.782 379.066 828.015 380.034 920.371 381.076C982.597 381.778 1046.95 382.496 1114.63 374.713C1151.19 370.508 1185.34 364.253 1219 355.588C1256.95 345.82 1293.21 333.301 1329.81 317.305C1383.91 293.694 1431.15 261.058 1470.21 220.258C1482.78 207.135 1494.52 193.166 1505.38 178.416C1505.01 178.187 1504.64 177.959 1504.28 177.73C1467 228.237 1411.37 280.595 1329.21 316.456C1176.92 382.978 1046.53 381.52 920.429 380.11L920.411 380.11C827.937 379.074 740.588 378.096 651.21 404.375C595.376 420.784 552.644 441.583 520.535 467.957C492.189 491.238 475.413 515.829 459.191 539.607L459.128 539.698C445.31 559.957 431.987 579.489 412.363 597Z" fill="url(#paint11_linear_2_2353)"/>
<path d="M380.907 597H382.756C411.331 575.809 427.129 550.717 443.683 524.424L443.701 524.395L443.703 524.391C475.201 474.365 507.775 422.629 630.863 383.313C719.319 355.06 806.946 354.936 899.716 354.805H899.72L899.788 354.805C961.665 354.716 1025.66 354.623 1092.82 346.004C1129.12 341.346 1162.95 334.669 1196.26 325.596C1233.81 315.363 1269.58 302.407 1305.62 285.983C1359.13 261.606 1405.48 227.916 1443.37 185.851C1451.92 176.358 1460.05 166.436 1467.73 156.109C1467.35 155.89 1466.96 155.671 1466.57 155.453C1430.9 203.254 1379.27 251.307 1304.97 285.155C1155.05 353.476 1025.25 353.659 899.724 353.83C806.816 353.96 719.064 354.084 630.37 382.414C575.137 400.055 533.045 422.045 501.686 449.637C474.034 473.969 458.031 499.382 442.557 523.956L442.536 523.989C425.852 550.491 409.942 575.761 380.907 597Z" fill="url(#paint12_linear_2_2353)"/>
<path d="M346.266 597H348.332C349.037 596.589 349.738 596.177 350.434 595.761C390.492 571.867 408.264 541.226 427.079 508.783L427.079 508.781C455.718 459.403 488.178 403.436 610.052 361.335C697.765 331.02 785.746 329.788 878.916 328.483L879.023 328.481C940.611 327.618 1004.3 326.724 1070.99 317.267C1107.03 312.166 1140.56 305.068 1173.49 295.586C1210.65 284.893 1245.95 271.492 1281.42 254.651C1334.34 229.515 1379.8 194.787 1416.52 151.434C1420.9 146.261 1425.16 140.964 1429.3 135.547C1428.89 135.34 1428.49 135.134 1428.08 134.928C1394.25 179.17 1346.89 222.424 1280.76 253.836C1133.19 323.949 1003.99 325.763 879.038 327.518L879.02 327.518C785.698 328.815 697.545 330.062 609.562 360.459C554.894 379.344 513.444 402.539 482.844 431.367C455.888 456.764 440.665 483.007 425.945 508.384L425.933 508.404L425.932 508.406C407.184 540.732 389.476 571.266 349.677 595.004C348.547 595.678 347.41 596.343 346.266 597Z" fill="url(#paint13_linear_2_2353)"/>
<path d="M307.375 597H309.852C319.79 592.331 329.005 587.32 337.56 581.94C376.152 557.7 392.818 526.433 410.467 493.323L410.51 493.241C437.721 442.152 468.578 384.279 589.261 339.359C676.256 306.971 764.676 304.614 858.278 302.119L858.505 302.113C919.713 300.476 983.007 298.782 1049.17 288.534C1084.94 282.976 1118.16 275.469 1150.74 265.587C1187.49 254.439 1222.33 240.62 1257.24 223.338C1309.56 197.44 1354.13 161.678 1389.68 117.04C1389.81 116.874 1389.95 116.708 1390.08 116.542C1389.82 116.422 1389.55 116.301 1389.29 116.181L1388.79 115.948C1357.1 155.843 1314.29 193.931 1256.52 222.513C1111.26 294.409 982.643 297.839 858.258 301.155C764.522 303.639 675.982 306 588.725 338.478C534.609 358.633 493.806 383.049 463.979 413.131C437.774 439.554 423.359 466.576 409.406 492.731L409.321 492.891C391.732 525.909 375.092 557.099 336.753 581.196C327.453 587.042 317.62 592.28 307.375 597Z" fill="url(#paint14_linear_2_2353)"/>
<path d="M264.016 597H266.964C289.035 588.635 308.116 579.07 324.665 568.112C361.825 543.51 377.46 511.596 394.01 477.812L394.016 477.801C419.84 425.07 449.114 365.305 568.471 317.38C654.719 283.081 743.375 279.571 837.257 275.856C898.265 273.444 961.348 270.946 1027.09 259.821C1062.65 253.812 1095.57 245.88 1127.82 235.586C1164.2 223.968 1198.6 209.707 1232.99 191.988C1278.48 168.576 1317.71 137.306 1349.91 98.9067C1349.48 98.7259 1349.05 98.5451 1348.61 98.3646C1319.46 133.193 1281.56 165.834 1232.3 191.208C1089.2 264.939 961.101 270.007 837.222 274.906L837.101 274.911C743.108 278.637 654.333 282.156 567.892 316.543C514.393 338.024 474.27 363.706 445.229 395.059C419.705 422.604 406.038 450.5 392.826 477.477C376.335 511.148 360.759 542.949 323.841 567.39C305.664 579.424 285.418 589.065 264.016 597Z" fill="url(#paint15_linear_2_2353)"/>
<path d="M215.782 597H219.27C256.861 585.441 287.19 571.427 311.783 554.29C347.515 529.372 362.069 496.838 377.476 462.396C401.841 407.918 429.464 346.171 547.703 295.396C633.101 258.988 722.111 254.33 816.344 249.399L816.555 249.388C877.249 246.221 940.006 242.945 1005.25 231.008C1040.52 224.556 1073.16 216.235 1105.05 205.53C1141.03 193.467 1174.97 178.785 1208.81 160.648C1246.9 140.24 1280.35 114.053 1308.65 82.5229C1308.22 82.3592 1307.78 82.1956 1307.35 82.0322C1281.26 111.156 1248.71 138.115 1208.08 159.881C1067.26 235.349 939.781 242.005 816.489 248.441C722.049 253.363 632.83 258.016 547.111 294.561C428.449 345.496 400.74 407.437 376.295 462.08L376.29 462.092C360.935 496.422 346.435 528.841 310.951 553.586C283.074 573.027 250.231 586.642 215.782 597Z" fill="url(#paint16_linear_2_2353)"/>
<path d="M162.674 597H166.668C214.338 584.803 261.218 568.141 298.901 540.464C333.208 515.278 346.677 482.174 360.937 447.129L360.964 447.061C383.849 390.815 409.783 327.08 526.885 273.43C611.562 234.846 701.047 229.04 795.781 222.896L795.901 222.889C856.248 218.971 918.642 214.92 983.352 202.186C1018.35 195.3 1050.7 186.564 1082.23 175.481C1117.81 162.974 1151.29 147.877 1184.58 129.326C1214.93 112.415 1242.15 91.6556 1266 67.2774C1265.56 67.1293 1265.12 66.9813 1264.68 66.8336C1242.35 89.7256 1215.68 110.817 1183.83 128.557C1045.29 205.747 918.404 213.977 795.697 221.937L795.688 221.937C700.808 228.086 611.18 233.899 526.249 272.604C408.729 326.431 382.711 390.368 359.755 446.78L359.75 446.79L359.737 446.823C345.523 481.759 332.097 514.757 298.027 539.779C259.577 568.02 211.439 584.757 162.674 597Z" fill="url(#paint17_linear_2_2353)"/>
<path d="M106.633 597H110.986C172.64 582.859 237.261 564.35 286.007 526.636C301.045 515.005 312.671 501.215 322.593 483.243C331.418 467.259 337.765 450.032 344.483 431.789L344.492 431.763C365.877 373.736 390.115 307.967 506.094 251.454C589.963 210.689 679.844 203.724 775.007 196.359C835.082 191.705 897.202 186.89 961.461 173.351C996.196 166.032 1028.24 156.898 1059.41 145.427C1094.59 132.459 1127.62 116.954 1160.37 98.0064C1182.56 85.1635 1202.97 70.1581 1221.52 53.0875L1220.2 52.6912C1202.56 68.9453 1182.48 83.9949 1159.62 97.2297C1023.32 176.132 897.025 185.922 774.895 195.388L774.877 195.39C679.566 202.777 589.544 209.755 505.425 250.64C389.004 307.382 364.71 373.34 343.292 431.549L343.292 431.55C330.198 467.102 317.829 500.686 285.14 525.975C235.536 564.333 169.342 582.773 106.633 597Z" fill="url(#paint18_linear_2_2353)"/>
<path d="M52.3657 597H56.5935C58.6046 596.529 60.6276 596.057 62.6617 595.581L62.9597 595.512L62.9624 595.511C134.378 578.839 215.33 559.94 273.125 512.81C287.541 501.07 298.571 487.114 307.838 468.899C316.085 452.69 321.902 435.145 328.051 416.589L328.064 416.549C347.915 356.719 370.413 288.91 485.304 229.478C568.333 186.519 658.613 178.379 754.188 169.775L754.225 169.772C813.984 164.381 875.774 158.808 939.534 144.481C974.012 136.719 1005.75 127.19 1036.61 115.331C1071.4 101.95 1103.97 86.0309 1136.2 66.6613C1149.67 58.5632 1162.46 49.627 1174.53 39.8763C1174.07 39.7577 1173.62 39.6393 1173.17 39.5211C1161.56 48.8981 1149 57.7387 1135.41 65.9066C1001.32 146.513 875.63 157.848 754.079 168.808L754.061 168.809L754.059 168.81C658.327 177.445 567.906 185.601 484.618 228.685C433.18 255.305 395.649 286.019 369.874 322.618C347.314 354.648 336.914 386.02 326.856 416.361L326.839 416.413C314.865 452.517 303.546 486.65 272.228 512.175C214.652 559.104 133.882 577.962 62.6266 594.599L62.5559 594.616L62.5542 594.616L62.5499 594.617L62.5468 594.618L62.5403 594.619L62.5376 594.62C59.1144 595.42 55.7229 596.212 52.3657 597Z" fill="url(#paint19_linear_2_2353)"/>
<path d="M0 595.547V596.559C15.1144 592.315 31.046 588.324 47.2726 584.258L47.2753 584.258L47.2887 584.254C115.607 567.143 193.013 547.747 248.597 501.273C263.481 488.816 274.699 474.275 283.896 455.51C292.072 438.832 297.601 420.983 303.454 402.085L303.455 402.082L303.456 402.081L303.465 402.051C321.734 343.043 342.445 276.167 454.008 215.576C536.297 170.875 626.005 161.5 720.983 151.575L721.013 151.572L721.015 151.572C779.013 145.513 839.004 139.247 900.497 124.615C933.739 116.71 964.28 107.142 993.866 95.358C1027.25 82.0751 1058.44 66.4013 1089.16 47.4464C1099.58 40.9824 1109.54 34.0023 1119.06 26.5179L1117.67 26.2139C1108.52 33.4054 1098.76 40.2595 1088.37 46.7108C960.482 125.584 838.657 138.311 720.882 150.606L720.795 150.616C625.677 160.567 535.832 169.967 453.281 214.796C341.314 275.597 320.549 342.67 302.23 401.844L302.229 401.846C290.808 438.721 280.021 473.548 247.663 500.627C192.335 546.913 115.092 566.267 46.9381 583.343C30.8352 587.377 15.0216 591.339 0 595.547Z" fill="url(#paint20_linear_2_2353)"/>
<path d="M0 580.361V581.38C10.0927 578.547 20.437 575.778 30.9021 572.977L30.9135 572.974L30.9164 572.973L30.9241 572.971L30.9296 572.969L30.9464 572.965L30.9574 572.962L30.9596 572.961L31.1163 572.919C64.5117 563.979 99.0497 554.731 132.308 541.891C170.137 527.283 200.141 510.218 224.017 489.717C257.649 460.85 267.894 425.213 278.74 387.485C295.462 329.307 314.421 263.372 422.683 201.678C504.129 155.255 593.211 144.703 687.527 133.53L687.585 133.523C743.892 126.853 802.136 119.953 861.425 105.026C893.466 96.9581 922.828 87.327 951.179 75.6082C983.173 62.3843 1012.91 46.8926 1042.15 28.25C1048.71 24.0659 1055.09 19.6702 1061.27 15.0661L1059.8 14.8079C1053.9 19.1902 1047.75 23.4318 1041.34 27.5168C919.733 105.043 801.605 119.046 687.361 132.588L687.353 132.589C592.875 143.764 503.633 154.346 421.92 200.903C313.277 262.835 294.271 328.944 277.498 387.289C266.691 424.891 256.479 460.404 223.073 489.08C169.854 534.757 95.9463 554.543 30.7318 572L30.4264 572.082L30.4235 572.083C20.1241 574.843 9.94214 577.572 0 580.361Z" fill="url(#paint21_linear_2_2353)"/>
<path d="M0 564.612V565.639C4.71289 564.282 9.46179 562.928 14.2351 561.568L14.2388 561.567L14.2454 561.565L14.2545 561.562L14.275 561.556L14.2787 561.555L14.282 561.554L14.2911 561.551L14.3116 561.545L14.3153 561.544L14.3219 561.542L14.3262 561.541L14.4292 561.512C46.5201 552.369 79.7031 542.913 111.533 530.02C147.664 515.381 176.422 498.42 199.445 478.165C234.131 447.663 243.755 411.359 253.943 372.925L253.949 372.903C269.149 315.544 286.377 250.546 391.356 187.783C471.979 139.575 560.408 127.768 654.031 115.282C708.649 107.994 765.132 100.456 822.236 85.2521C853.076 77.0413 881.28 67.3919 908.397 55.738C938.988 42.5909 967.361 27.3294 995.146 9.04807C996.861 7.91943 998.562 6.7759 1000.25 5.61749C999.729 5.54826 999.208 5.47927 998.687 5.41053C997.252 6.39011 995.802 7.36145 994.339 8.32443C878.795 84.3142 764.43 99.5744 653.834 114.331L653.795 114.337C560.026 126.853 471.449 138.676 390.573 187.026C343.521 215.157 309.933 246.139 287.889 281.75C268.518 313.037 260.478 343.366 252.703 372.697L252.703 372.698L252.695 372.728C242.542 411.041 232.951 447.23 198.494 477.544C147.208 522.652 76.4465 542.819 14.0044 560.609C9.30896 561.947 4.63721 563.278 0 564.612Z" fill="url(#paint22_linear_2_2353)"/>
<path d="M0 548.208V549.24C30.0037 540.165 60.9282 530.707 90.5312 518.15C125.086 503.492 152.683 486.635 174.897 466.619C210.63 434.418 219.585 397.45 229.066 358.315L229.067 358.311L229.068 358.307C242.765 301.77 258.293 237.675 360.039 173.882C439.752 123.895 527.41 110.817 620.259 96.9647L620.41 96.9422C673.32 89.0564 728.031 80.8974 782.964 65.4275C812.602 57.0768 839.634 47.3915 865.569 35.8176C889.085 25.3244 911.169 13.5344 932.628 0L930.157 0.299179C826.284 65.2466 721.674 80.8541 620.326 95.9748L620.099 96.0086C527.082 109.882 439.229 122.985 359.24 173.143C313.623 201.74 281.307 232.814 260.47 268.11C242.112 299.167 234.849 329.145 227.825 358.139L227.82 358.158C218.371 397.163 209.444 434.007 173.932 466.003C125.298 509.828 61.7782 529.527 0 548.208Z" fill="url(#paint23_linear_2_2353)"/>
<path d="M0 530.99V532.03C23.2002 524.462 46.6763 516.316 69.2986 506.281C102.369 491.613 128.878 474.859 150.338 455.069C187.13 421.135 195.372 383.525 204.097 343.709C216.314 287.969 230.16 224.793 328.735 159.982C407.573 108.133 494.549 93.7458 586.628 78.5147L586.66 78.5095C666.707 65.2703 748.86 51.6829 830.053 12.4197L826.887 12.8032C746.676 51.0632 665.51 64.4878 586.406 77.5715L586.304 77.5883C539.794 85.2832 495.859 92.5519 452.585 104.571C403.561 118.184 363.945 135.56 327.902 159.263C283.694 188.33 252.636 219.472 232.954 254.464C215.619 285.292 209.124 314.919 202.844 343.568L202.843 343.571L202.84 343.585C194.143 383.262 185.929 420.739 149.361 454.468C107.069 493.481 53.4677 513.544 0 530.99Z" fill="url(#paint24_linear_2_2353)"/>
<path d="M0 512.754V513.813C45.2145 497.48 89.5781 477.678 125.774 443.518C163.616 407.806 171.11 369.583 179.031 329.112C189.787 274.158 201.981 211.872 297.409 146.087C375.304 92.3792 461.456 76.6493 552.689 59.9915L552.775 59.9758C599.158 51.5139 646.275 42.9177 693.267 28.9819L687.339 29.6997C642.232 42.6851 597.03 50.9334 552.499 59.0563L552.006 59.1464C506.134 67.525 462.794 75.441 420.032 88.1759C396.962 95.0458 376.299 102.664 356.867 111.466C335.325 121.193 315.116 132.558 296.56 145.382C253.749 174.889 223.909 206.114 205.393 240.813C189.045 271.418 183.314 300.69 177.774 328.993L177.771 329.008C169.875 369.336 162.415 407.43 124.791 442.929C88.9073 476.786 44.8964 496.499 0 512.754Z" fill="url(#paint25_linear_2_2353)"/>
<path d="M0 493.171V494.262C36.4224 479.214 71.5488 460.59 101.215 431.968C140.118 394.439 146.797 355.619 153.867 314.521C163.643 257.687 173.753 198.92 266.079 132.189C316.855 95.4866 371.283 75.5616 428.395 61.0527L421.224 61.9209C409.881 64.9138 398.61 68.1513 387.373 71.7339C364.518 79.0226 344.061 87.0362 324.834 96.2234C303.467 106.425 283.493 118.243 265.224 131.492C223.806 161.445 195.174 192.736 177.764 227.155C162.394 257.529 157.417 286.452 152.608 314.411L152.603 314.437C145.559 355.388 138.905 394.066 100.223 431.381C70.8634 459.707 36.09 478.214 0 493.171Z" fill="url(#paint26_linear_2_2353)"/>
<path d="M0 471.779V472.898C27.4551 459.489 53.6541 443.056 76.6171 420.417C116.57 381.025 122.399 341.636 128.569 299.935C136.83 244.108 145.388 186.384 233.741 119.053C233.07 119.363 232.398 119.673 231.727 119.984C230.941 120.348 230.154 120.713 229.368 121.079C191.728 150.374 165.767 180.651 150.051 213.511C135.644 243.685 131.412 272.239 127.325 299.859L127.323 299.87C121.173 341.426 115.363 380.684 75.634 419.847C52.9706 442.192 27.1143 458.476 0 471.779Z" fill="url(#paint27_linear_2_2353)"/>
<path d="M0 447.862V449.083C18.4604 438.042 36.0558 425.025 52.0952 408.87C93.0813 367.612 98.0164 327.695 103.24 285.447L103.248 285.379L103.249 285.372C107.996 246.964 112.855 207.649 144.337 164.23C143.618 164.626 142.898 165.024 142.179 165.421C134.19 176.655 127.587 188.107 122.308 199.851C108.838 229.822 105.338 258.026 101.982 285.304C96.7753 327.437 91.8558 367.231 51.0845 408.311C35.3523 424.151 18.1034 436.968 0 447.862Z" fill="url(#paint28_linear_2_2353)"/>
<path d="M0 420.289V421.67C9.56763 414.395 18.7946 406.352 27.566 397.339C69.5663 354.131 73.5647 313.697 77.7972 270.895L77.8014 270.853C80.2549 246.024 82.7471 220.814 92.6029 194.164L90.9817 195.149C81.3873 221.589 78.9176 246.557 76.5214 270.783C72.3037 313.456 68.3208 353.754 26.5175 396.757C18.0723 405.443 9.19836 413.226 0 420.289Z" fill="url(#paint29_linear_2_2353)"/>
<path d="M0 387.241V388.84C0.997314 387.83 1.98926 386.808 2.97559 385.773C46.0167 340.588 49.038 299.658 52.235 256.327C53.1895 243.387 54.152 230.34 56.1837 217.009L54.7877 217.914C52.8307 230.989 51.8888 243.738 50.9619 256.285V256.287C47.777 299.473 44.7646 340.274 1.94629 385.221C1.29993 385.9 0.651123 386.573 0 387.241Z" fill="url(#paint30_linear_2_2353)"/>
<path d="M0 344.545V346.745C23.2504 310.517 24.8765 276.967 26.5779 241.859L26.5782 241.848L26.5785 241.845L26.8387 236.529C26.4048 236.825 25.9707 237.121 25.5369 237.418L25.3215 241.832C23.6543 276.249 22.0594 309.159 0 344.545Z" fill="url(#paint31_linear_2_2353)"/>
<defs>
<linearGradient id="paint0_linear_2_2353" x1="1.43244e-06" y1="373.148" x2="1648" y2="373.148" gradientUnits="userSpaceOnUse">
<stop stop-color="#13294B"/>
<stop offset="0.307292" stop-color="#1D58A7"/>
<stop offset="0.71875" stop-color="#FF552E"/>
<stop offset="1" stop-color="#13294B"/>
</linearGradient>
<linearGradient id="paint1_linear_2_2353" x1="1.43244e-06" y1="373.148" x2="1648" y2="373.148" gradientUnits="userSpaceOnUse">
<stop stop-color="#13294B"/>
<stop offset="0.307292" stop-color="#1D58A7"/>
<stop offset="0.71875" stop-color="#FF552E"/>
<stop offset="1" stop-color="#13294B"/>
</linearGradient>
<linearGradient id="paint2_linear_2_2353" x1="1.43244e-06" y1="373.148" x2="1648" y2="373.148" gradientUnits="userSpaceOnUse">
<stop stop-color="#13294B"/>
<stop offset="0.307292" stop-color="#1D58A7"/>
<stop offset="0.71875" stop-color="#FF552E"/>
<stop offset="1" stop-color="#13294B"/>
</linearGradient>
<linearGradient id="paint3_linear_2_2353" x1="1.43244e-06" y1="373.148" x2="1648" y2="373.148" gradientUnits="userSpaceOnUse">
<stop stop-color="#13294B"/>
<stop offset="0.307292" stop-color="#1D58A7"/>
<stop offset="0.71875" stop-color="#FF552E"/>
<stop offset="1" stop-color="#13294B"/>
</linearGradient>
<linearGradient id="paint4_linear_2_2353" x1="1.43244e-06" y1="373.148" x2="1648" y2="373.148" gradientUnits="userSpaceOnUse">
<stop stop-color="#13294B"/>
<stop offset="0.307292" stop-color="#1D58A7"/>
<stop offset="0.71875" stop-color="#FF552E"/>
<stop offset="1" stop-color="#13294B"/>
</linearGradient>
<linearGradient id="paint5_linear_2_2353" x1="1.43244e-06" y1="373.148" x2="1648" y2="373.148" gradientUnits="userSpaceOnUse">
<stop stop-color="#13294B"/>
<stop offset="0.307292" stop-color="#1D58A7"/>
<stop offset="0.71875" stop-color="#FF552E"/>
<stop offset="1" stop-color="#13294B"/>
</linearGradient>
<linearGradient id="paint6_linear_2_2353" x1="1.43244e-06" y1="373.148" x2="1648" y2="373.148" gradientUnits="userSpaceOnUse">
<stop stop-color="#13294B"/>
<stop offset="0.307292" stop-color="#1D58A7"/>
<stop offset="0.71875" stop-color="#FF552E"/>
<stop offset="1" stop-color="#13294B"/>
</linearGradient>
<linearGradient id="paint7_linear_2_2353" x1="1.43244e-06" y1="373.148" x2="1648" y2="373.148" gradientUnits="userSpaceOnUse">
<stop stop-color="#13294B"/>
<stop offset="0.307292" stop-color="#1D58A7"/>
<stop offset="0.71875" stop-color="#FF552E"/>
<stop offset="1" stop-color="#13294B"/>
</linearGradient>
<linearGradient id="paint8_linear_2_2353" x1="1.43244e-06" y1="373.148" x2="1648" y2="373.148" gradientUnits="userSpaceOnUse">
<stop stop-color="#13294B"/>
<stop offset="0.307292" stop-color="#1D58A7"/>
<stop offset="0.71875" stop-color="#FF552E"/>
<stop offset="1" stop-color="#13294B"/>
</linearGradient>
<linearGradient id="paint9_linear_2_2353" x1="1.43244e-06" y1="373.148" x2="1648" y2="373.148" gradientUnits="userSpaceOnUse">
<stop stop-color="#13294B"/>
<stop offset="0.307292" stop-color="#1D58A7"/>
<stop offset="0.71875" stop-color="#FF552E"/>
<stop offset="1" stop-color="#13294B"/>
</linearGradient>
<linearGradient id="paint10_linear_2_2353" x1="1.43244e-06" y1="373.148" x2="1648" y2="373.148" gradientUnits="userSpaceOnUse">
<stop stop-color="#13294B"/>
<stop offset="0.307292" stop-color="#1D58A7"/>
<stop offset="0.71875" stop-color="#FF552E"/>
<stop offset="1" stop-color="#13294B"/>
</linearGradient>
<linearGradient id="paint11_linear_2_2353" x1="1.43244e-06" y1="373.148" x2="1648" y2="373.148" gradientUnits="userSpaceOnUse">
<stop stop-color="#13294B"/>
<stop offset="0.307292" stop-color="#1D58A7"/>
<stop offset="0.71875" stop-color="#FF552E"/>
<stop offset="1" stop-color="#13294B"/>
</linearGradient>
<linearGradient id="paint12_linear_2_2353" x1="1.43244e-06" y1="373.148" x2="1648" y2="373.148" gradientUnits="userSpaceOnUse">
<stop stop-color="#13294B"/>
<stop offset="0.307292" stop-color="#1D58A7"/>
<stop offset="0.71875" stop-color="#FF552E"/>
<stop offset="1" stop-color="#13294B"/>
</linearGradient>
<linearGradient id="paint13_linear_2_2353" x1="1.43244e-06" y1="373.148" x2="1648" y2="373.148" gradientUnits="userSpaceOnUse">
<stop stop-color="#13294B"/>
<stop offset="0.307292" stop-color="#1D58A7"/>
<stop offset="0.71875" stop-color="#FF552E"/>
<stop offset="1" stop-color="#13294B"/>
</linearGradient>
<linearGradient id="paint14_linear_2_2353" x1="1.43244e-06" y1="373.148" x2="1648" y2="373.148" gradientUnits="userSpaceOnUse">
<stop stop-color="#13294B"/>
<stop offset="0.307292" stop-color="#1D58A7"/>
<stop offset="0.71875" stop-color="#FF552E"/>
<stop offset="1" stop-color="#13294B"/>
</linearGradient>
<linearGradient id="paint15_linear_2_2353" x1="1.43244e-06" y1="373.148" x2="1648" y2="373.148" gradientUnits="userSpaceOnUse">
<stop stop-color="#13294B"/>
<stop offset="0.307292" stop-color="#1D58A7"/>
<stop offset="0.71875" stop-color="#FF552E"/>
<stop offset="1" stop-color="#13294B"/>
</linearGradient>
<linearGradient id="paint16_linear_2_2353" x1="1.43244e-06" y1="373.148" x2="1648" y2="373.148" gradientUnits="userSpaceOnUse">
<stop stop-color="#13294B"/>
<stop offset="0.307292" stop-color="#1D58A7"/>
<stop offset="0.71875" stop-color="#FF552E"/>
<stop offset="1" stop-color="#13294B"/>
</linearGradient>
<linearGradient id="paint17_linear_2_2353" x1="1.43244e-06" y1="373.148" x2="1648" y2="373.148" gradientUnits="userSpaceOnUse">
<stop stop-color="#13294B"/>
<stop offset="0.307292" stop-color="#1D58A7"/>
<stop offset="0.71875" stop-color="#FF552E"/>
<stop offset="1" stop-color="#13294B"/>
</linearGradient>
<linearGradient id="paint18_linear_2_2353" x1="1.43244e-06" y1="373.148" x2="1648" y2="373.148" gradientUnits="userSpaceOnUse">
<stop stop-color="#13294B"/>
<stop offset="0.307292" stop-color="#1D58A7"/>
<stop offset="0.71875" stop-color="#FF552E"/>
<stop offset="1" stop-color="#13294B"/>
</linearGradient>
<linearGradient id="paint19_linear_2_2353" x1="1.43244e-06" y1="373.148" x2="1648" y2="373.148" gradientUnits="userSpaceOnUse">
<stop stop-color="#13294B"/>
<stop offset="0.307292" stop-color="#1D58A7"/>
<stop offset="0.71875" stop-color="#FF552E"/>
<stop offset="1" stop-color="#13294B"/>
</linearGradient>
<linearGradient id="paint20_linear_2_2353" x1="1.43244e-06" y1="373.148" x2="1648" y2="373.148" gradientUnits="userSpaceOnUse">
<stop stop-color="#13294B"/>
<stop offset="0.307292" stop-color="#1D58A7"/>
<stop offset="0.71875" stop-color="#FF552E"/>
<stop offset="1" stop-color="#13294B"/>
</linearGradient>
<linearGradient id="paint21_linear_2_2353" x1="1.43244e-06" y1="373.148" x2="1648" y2="373.148" gradientUnits="userSpaceOnUse">
<stop stop-color="#13294B"/>
<stop offset="0.307292" stop-color="#1D58A7"/>
<stop offset="0.71875" stop-color="#FF552E"/>
<stop offset="1" stop-color="#13294B"/>
</linearGradient>
<linearGradient id="paint22_linear_2_2353" x1="1.43244e-06" y1="373.148" x2="1648" y2="373.148" gradientUnits="userSpaceOnUse">
<stop stop-color="#13294B"/>
<stop offset="0.307292" stop-color="#1D58A7"/>
<stop offset="0.71875" stop-color="#FF552E"/>
<stop offset="1" stop-color="#13294B"/>
</linearGradient>
<linearGradient id="paint23_linear_2_2353" x1="1.43244e-06" y1="373.148" x2="1648" y2="373.148" gradientUnits="userSpaceOnUse">
<stop stop-color="#13294B"/>
<stop offset="0.307292" stop-color="#1D58A7"/>
<stop offset="0.71875" stop-color="#FF552E"/>
<stop offset="1" stop-color="#13294B"/>
</linearGradient>
<linearGradient id="paint24_linear_2_2353" x1="1.43244e-06" y1="373.148" x2="1648" y2="373.148" gradientUnits="userSpaceOnUse">
<stop stop-color="#13294B"/>
<stop offset="0.307292" stop-color="#1D58A7"/>
<stop offset="0.71875" stop-color="#FF552E"/>
<stop offset="1" stop-color="#13294B"/>
</linearGradient>
<linearGradient id="paint25_linear_2_2353" x1="1.43244e-06" y1="373.148" x2="1648" y2="373.148" gradientUnits="userSpaceOnUse">
<stop stop-color="#13294B"/>
<stop offset="0.307292" stop-color="#1D58A7"/>
<stop offset="0.71875" stop-color="#FF552E"/>
<stop offset="1" stop-color="#13294B"/>
</linearGradient>
<linearGradient id="paint26_linear_2_2353" x1="1.43244e-06" y1="373.148" x2="1648" y2="373.148" gradientUnits="userSpaceOnUse">
<stop stop-color="#13294B"/>
<stop offset="0.307292" stop-color="#1D58A7"/>
<stop offset="0.71875" stop-color="#FF552E"/>
<stop offset="1" stop-color="#13294B"/>
</linearGradient>
<linearGradient id="paint27_linear_2_2353" x1="1.43244e-06" y1="373.148" x2="1648" y2="373.148" gradientUnits="userSpaceOnUse">
<stop stop-color="#13294B"/>
<stop offset="0.307292" stop-color="#1D58A7"/>
<stop offset="0.71875" stop-color="#FF552E"/>
<stop offset="1" stop-color="#13294B"/>
</linearGradient>
<linearGradient id="paint28_linear_2_2353" x1="1.43244e-06" y1="373.148" x2="1648" y2="373.148" gradientUnits="userSpaceOnUse">
<stop stop-color="#13294B"/>
<stop offset="0.307292" stop-color="#1D58A7"/>
<stop offset="0.71875" stop-color="#FF552E"/>
<stop offset="1" stop-color="#13294B"/>
</linearGradient>
<linearGradient id="paint29_linear_2_2353" x1="1.43244e-06" y1="373.148" x2="1648" y2="373.148" gradientUnits="userSpaceOnUse">
<stop stop-color="#13294B"/>
<stop offset="0.307292" stop-color="#1D58A7"/>
<stop offset="0.71875" stop-color="#FF552E"/>
<stop offset="1" stop-color="#13294B"/>
</linearGradient>
<linearGradient id="paint30_linear_2_2353" x1="1.43244e-06" y1="373.148" x2="1648" y2="373.148" gradientUnits="userSpaceOnUse">
<stop stop-color="#13294B"/>
<stop offset="0.307292" stop-color="#1D58A7"/>
<stop offset="0.71875" stop-color="#FF552E"/>
<stop offset="1" stop-color="#13294B"/>
</linearGradient>
<linearGradient id="paint31_linear_2_2353" x1="1.43244e-06" y1="373.148" x2="1648" y2="373.148" gradientUnits="userSpaceOnUse">
<stop stop-color="#13294B"/>
<stop offset="0.307292" stop-color="#1D58A7"/>
<stop offset="0.71875" stop-color="#FF552E"/>
<stop offset="1" stop-color="#13294B"/>
</linearGradient>
</defs>
</svg>
