<svg width="24" height="24" viewBox="0 0 24 24" fill="none" xmlns="http://www.w3.org/2000/svg">
<path d="M16 12C16 14.2091 14.2091 16 12 16C9.79086 16 8 14.2091 8 12C8 9.79086 9.79086 8 12 8C14.2091 8 16 9.79086 16 12Z" fill="#13294B"/>
<path fill-rule="evenodd" clip-rule="evenodd" d="M6 0C2.68628 0 0 2.68628 0 6V18C0 21.3137 2.68628 24 6 24H18C21.3137 24 24 21.3137 24 18V6C24 2.68628 21.3137 0 18 0H6ZM20 5.5C20 6.32843 19.3284 7 18.5 7C17.6716 7 17 6.32843 17 5.5C17 4.67157 17.6716 4 18.5 4C19.3284 4 20 4.67157 20 5.5ZM12 18C15.3137 18 18 15.3137 18 12C18 8.68628 15.3137 6 12 6C8.68628 6 6 8.68628 6 12C6 15.3137 8.68628 18 12 18Z" fill="#13294B"/>
</svg>
